<svg width="17" height="16" viewBox="0 0 17 16" fill="none" xmlns="http://www.w3.org/2000/svg">
<path d="M12.8333 12.6667H3.49996V5.33341H12.8333M10.8333 0.666748V2.00008H5.49996V0.666748H4.16663V2.00008H3.49996C2.75996 2.00008 2.16663 2.59341 2.16663 3.33341V12.6667C2.16663 13.0204 2.3071 13.3595 2.55715 13.6096C2.8072 13.8596 3.14634 14.0001 3.49996 14.0001H12.8333C13.1869 14.0001 13.5261 13.8596 13.7761 13.6096C14.0262 13.3595 14.1666 13.0204 14.1666 12.6667V3.33341C14.1666 2.97979 14.0262 2.64065 13.7761 2.39061C13.5261 2.14056 13.1869 2.00008 12.8333 2.00008H12.1666V0.666748" fill="#FF6C2E"/>
</svg>
