<svg width="150" height="28" viewBox="0 0 150 28" fill="none" xmlns="http://www.w3.org/2000/svg">
<path d="M0 14C0 6.26801 6.26801 0 14 0H136C143.732 0 150 6.26801 150 14C150 21.732 143.732 28 136 28H14C6.26801 28 0 21.732 0 14Z" fill="#343434"/>
<path d="M18.3667 18.0001L14.5667 14.2001L15.5167 13.2501L18.3667 16.1001L24.4833 9.9834L25.4333 10.9334L18.3667 18.0001Z" fill="#FF6C2E"/>
<path d="M33.233 19V8.81818H34.4659V17.9062H39.1989V19H33.233ZM44.0511 19.1591C43.3617 19.1591 42.7569 18.995 42.2365 18.6669C41.7195 18.3388 41.3151 17.8797 41.0234 17.2898C40.7351 16.6998 40.5909 16.0104 40.5909 15.2216C40.5909 14.4261 40.7351 13.7318 41.0234 13.1385C41.3151 12.5452 41.7195 12.0845 42.2365 11.7564C42.7569 11.4283 43.3617 11.2642 44.0511 11.2642C44.7405 11.2642 45.3438 11.4283 45.8608 11.7564C46.3812 12.0845 46.7855 12.5452 47.0739 13.1385C47.3655 13.7318 47.5114 14.4261 47.5114 15.2216C47.5114 16.0104 47.3655 16.6998 47.0739 17.2898C46.7855 17.8797 46.3812 18.3388 45.8608 18.6669C45.3438 18.995 44.7405 19.1591 44.0511 19.1591ZM44.0511 18.1051C44.5748 18.1051 45.0057 17.9709 45.3438 17.7024C45.6818 17.4339 45.9321 17.081 46.0945 16.6435C46.2569 16.206 46.3381 15.732 46.3381 15.2216C46.3381 14.7112 46.2569 14.2356 46.0945 13.7947C45.9321 13.3539 45.6818 12.9976 45.3438 12.7259C45.0057 12.4541 44.5748 12.3182 44.0511 12.3182C43.5275 12.3182 43.0966 12.4541 42.7585 12.7259C42.4205 12.9976 42.1702 13.3539 42.0078 13.7947C41.8454 14.2356 41.7642 14.7112 41.7642 15.2216C41.7642 15.732 41.8454 16.206 42.0078 16.6435C42.1702 17.081 42.4205 17.4339 42.7585 17.7024C43.0966 17.9709 43.5275 18.1051 44.0511 18.1051ZM52.4047 19.1591C51.6887 19.1591 51.0723 18.9901 50.5552 18.652C50.0382 18.3139 49.6404 17.8482 49.362 17.255C49.0836 16.6617 48.9444 15.9839 48.9444 15.2216C48.9444 14.446 49.0869 13.7616 49.372 13.1683C49.6603 12.5717 50.0614 12.1061 50.5751 11.7713C51.0922 11.4332 51.6954 11.2642 52.3848 11.2642C52.9217 11.2642 53.4056 11.3636 53.8365 11.5625C54.2673 11.7614 54.6203 12.0398 54.8954 12.3977C55.1705 12.7557 55.3412 13.1733 55.4075 13.6506H54.2342C54.1447 13.3026 53.9458 12.9943 53.6376 12.7259C53.3327 12.4541 52.9217 12.3182 52.4047 12.3182C51.9473 12.3182 51.5462 12.4375 51.2015 12.6761C50.8601 12.9115 50.5933 13.2446 50.4011 13.6754C50.2122 14.103 50.1177 14.6051 50.1177 15.1818C50.1177 15.7718 50.2105 16.2855 50.3961 16.723C50.585 17.1605 50.8502 17.5002 51.1916 17.7422C51.5363 17.9841 51.9406 18.1051 52.4047 18.1051C52.7096 18.1051 52.9863 18.0521 53.2349 17.946C53.4835 17.84 53.694 17.6875 53.8663 17.4886C54.0386 17.2898 54.1613 17.0511 54.2342 16.7727H55.4075C55.3412 17.2235 55.1771 17.6295 54.9153 17.9908C54.6568 18.3487 54.3137 18.6338 53.8862 18.8459C53.4619 19.0547 52.9681 19.1591 52.4047 19.1591ZM58.2164 16.2159L58.1966 14.7642H58.4352L61.7761 11.3636H63.2278L59.6681 14.9631H59.5687L58.2164 16.2159ZM57.1227 19V8.81818H58.296V19H57.1227ZM61.975 19L58.992 15.2216L59.8272 14.4062L63.4664 19H61.975ZM67.6252 19.1591C66.8894 19.1591 66.2547 18.9967 65.7211 18.6719C65.1908 18.3438 64.7814 17.8864 64.4931 17.2997C64.208 16.7098 64.0655 16.0237 64.0655 15.2415C64.0655 14.4593 64.208 13.7699 64.4931 13.1733C64.7814 12.5734 65.1825 12.1061 65.6962 11.7713C66.2132 11.4332 66.8165 11.2642 67.5059 11.2642C67.9036 11.2642 68.2963 11.3305 68.6841 11.4631C69.0719 11.5956 69.4249 11.8111 69.7431 12.1094C70.0613 12.4044 70.3148 12.7955 70.5037 13.2827C70.6926 13.7699 70.7871 14.3698 70.7871 15.0824V15.5795H64.9007V14.5653H69.5939C69.5939 14.1345 69.5078 13.75 69.3354 13.4119C69.1664 13.0739 68.9244 12.8071 68.6096 12.6115C68.298 12.416 67.9301 12.3182 67.5059 12.3182C67.0385 12.3182 66.6342 12.4342 66.2928 12.6662C65.9547 12.8949 65.6945 13.1932 65.5123 13.5611C65.33 13.929 65.2388 14.3234 65.2388 14.7443V15.4205C65.2388 15.9972 65.3382 16.486 65.5371 16.8871C65.7393 17.2848 66.0194 17.5881 66.3773 17.7969C66.7353 18.0024 67.1512 18.1051 67.6252 18.1051C67.9334 18.1051 68.2118 18.062 68.4604 17.9759C68.7123 17.8864 68.9294 17.7538 69.1117 17.5781C69.294 17.3991 69.4348 17.1771 69.5343 16.9119L70.6678 17.2301C70.5485 17.6146 70.348 17.9527 70.0662 18.2443C69.7845 18.5327 69.4365 18.758 69.0222 18.9205C68.6079 19.0795 68.1422 19.1591 67.6252 19.1591ZM72.5719 19V11.3636H73.7054V12.517H73.785C73.9242 12.1392 74.1761 11.8326 74.5407 11.5973C74.9052 11.362 75.3162 11.2443 75.7736 11.2443C75.8598 11.2443 75.9675 11.246 76.0968 11.2493C76.226 11.2526 76.3238 11.2576 76.3901 11.2642V12.4574C76.3503 12.4474 76.2592 12.4325 76.1167 12.4126C75.9775 12.3894 75.83 12.3778 75.6742 12.3778C75.303 12.3778 74.9715 12.4557 74.6799 12.6115C74.3915 12.764 74.1628 12.9761 73.9938 13.2479C73.8281 13.5163 73.7452 13.8229 73.7452 14.1676V19H72.5719ZM83.1104 8.81818V19H81.8775V8.81818H83.1104ZM86.5968 14.4062V19H85.4235V11.3636H86.557V12.5568H86.6564C86.8354 12.169 87.1072 11.8575 87.4718 11.6222C87.8364 11.3835 88.307 11.2642 88.8837 11.2642C89.4007 11.2642 89.8532 11.3703 90.2409 11.5824C90.6287 11.7912 90.9303 12.1094 91.1458 12.5369C91.3612 12.9612 91.4689 13.4981 91.4689 14.1477V19H90.2956V14.2273C90.2956 13.6274 90.1399 13.16 89.8283 12.8253C89.5167 12.4872 89.0892 12.3182 88.5456 12.3182C88.1711 12.3182 87.8364 12.3994 87.5414 12.5618C87.2497 12.7242 87.0194 12.9612 86.8503 13.2727C86.6813 13.5843 86.5968 13.9621 86.5968 14.4062ZM96.7152 19.1591C95.9993 19.1591 95.3828 18.9901 94.8658 18.652C94.3487 18.3139 93.951 17.8482 93.6726 17.255C93.3942 16.6617 93.255 15.9839 93.255 15.2216C93.255 14.446 93.3975 13.7616 93.6825 13.1683C93.9709 12.5717 94.3719 12.1061 94.8857 11.7713C95.4027 11.4332 96.0059 11.2642 96.6953 11.2642C97.2322 11.2642 97.7161 11.3636 98.147 11.5625C98.5779 11.7614 98.9309 12.0398 99.206 12.3977C99.4811 12.7557 99.6518 13.1733 99.718 13.6506H98.5447C98.4553 13.3026 98.2564 12.9943 97.9482 12.7259C97.6432 12.4541 97.2322 12.3182 96.7152 12.3182C96.2578 12.3182 95.8568 12.4375 95.5121 12.6761C95.1707 12.9115 94.9039 13.2446 94.7116 13.6754C94.5227 14.103 94.4283 14.6051 94.4283 15.1818C94.4283 15.7718 94.5211 16.2855 94.7067 16.723C94.8956 17.1605 95.1607 17.5002 95.5021 17.7422C95.8468 17.9841 96.2512 18.1051 96.7152 18.1051C97.0201 18.1051 97.2969 18.0521 97.5455 17.946C97.794 17.84 98.0045 17.6875 98.1768 17.4886C98.3492 17.2898 98.4718 17.0511 98.5447 16.7727H99.718C99.6518 17.2235 99.4877 17.6295 99.2259 17.9908C98.9673 18.3487 98.6243 18.6338 98.1967 18.8459C97.7725 19.0547 97.2786 19.1591 96.7152 19.1591ZM102.607 8.81818V19H101.433V8.81818H102.607ZM109.568 15.8778V11.3636H110.741V19H109.568V17.7074H109.488C109.309 18.0952 109.031 18.425 108.653 18.6967C108.275 18.9652 107.798 19.0994 107.221 19.0994C106.744 19.0994 106.32 18.995 105.949 18.7862C105.577 18.5741 105.286 18.2559 105.074 17.8317C104.862 17.4041 104.756 16.8655 104.756 16.2159V11.3636H105.929V16.1364C105.929 16.6932 106.085 17.1373 106.396 17.4688C106.711 17.8002 107.112 17.9659 107.599 17.9659C107.891 17.9659 108.188 17.8913 108.489 17.7422C108.794 17.593 109.049 17.3643 109.255 17.0561C109.464 16.7479 109.568 16.3551 109.568 15.8778ZM115.774 19.1591C115.137 19.1591 114.576 18.9983 114.088 18.6768C113.601 18.352 113.22 17.8946 112.945 17.3047C112.67 16.7114 112.532 16.0104 112.532 15.2017C112.532 14.3996 112.67 13.7036 112.945 13.1136C113.22 12.5237 113.603 12.0679 114.093 11.7464C114.584 11.425 115.151 11.2642 115.794 11.2642C116.291 11.2642 116.684 11.3471 116.972 11.5128C117.264 11.6752 117.486 11.8608 117.638 12.0696C117.794 12.2751 117.915 12.4441 118.001 12.5767H118.1V8.81818H119.274V19H118.14V17.8267H118.001C117.915 17.9659 117.792 18.1416 117.633 18.3537C117.474 18.5625 117.247 18.7498 116.952 18.9155C116.657 19.0779 116.264 19.1591 115.774 19.1591ZM115.933 18.1051C116.404 18.1051 116.801 17.9825 117.126 17.7372C117.451 17.4886 117.698 17.1456 117.867 16.7081C118.036 16.2673 118.12 15.7585 118.12 15.1818C118.12 14.6117 118.038 14.1129 117.872 13.6854C117.706 13.2545 117.461 12.9197 117.136 12.6811C116.811 12.4392 116.41 12.3182 115.933 12.3182C115.436 12.3182 115.021 12.4458 114.69 12.701C114.362 12.9529 114.115 13.2959 113.949 13.7301C113.787 14.161 113.706 14.6449 113.706 15.1818C113.706 15.7254 113.788 16.2192 113.954 16.6634C114.123 17.1042 114.372 17.4555 114.7 17.7173C115.031 17.9759 115.442 18.1051 115.933 18.1051ZM124.787 19.1591C124.051 19.1591 123.417 18.9967 122.883 18.6719C122.353 18.3438 121.944 17.8864 121.655 17.2997C121.37 16.7098 121.228 16.0237 121.228 15.2415C121.228 14.4593 121.37 13.7699 121.655 13.1733C121.944 12.5734 122.345 12.1061 122.858 11.7713C123.375 11.4332 123.979 11.2642 124.668 11.2642C125.066 11.2642 125.458 11.3305 125.846 11.4631C126.234 11.5956 126.587 11.8111 126.905 12.1094C127.223 12.4044 127.477 12.7955 127.666 13.2827C127.855 13.7699 127.949 14.3698 127.949 15.0824V15.5795H122.063V14.5653H126.756C126.756 14.1345 126.67 13.75 126.498 13.4119C126.328 13.0739 126.087 12.8071 125.772 12.6115C125.46 12.416 125.092 12.3182 124.668 12.3182C124.201 12.3182 123.796 12.4342 123.455 12.6662C123.117 12.8949 122.857 13.1932 122.674 13.5611C122.492 13.929 122.401 14.3234 122.401 14.7443V15.4205C122.401 15.9972 122.5 16.486 122.699 16.8871C122.901 17.2848 123.181 17.5881 123.539 17.7969C123.897 18.0024 124.313 18.1051 124.787 18.1051C125.096 18.1051 125.374 18.062 125.623 17.9759C125.874 17.8864 126.092 17.7538 126.274 17.5781C126.456 17.3991 126.597 17.1771 126.696 16.9119L127.83 17.2301C127.711 17.6146 127.51 17.9527 127.228 18.2443C126.947 18.5327 126.599 18.758 126.184 18.9205C125.77 19.0795 125.304 19.1591 124.787 19.1591ZM132.618 19.1591C131.981 19.1591 131.419 18.9983 130.932 18.6768C130.445 18.352 130.064 17.8946 129.789 17.3047C129.514 16.7114 129.376 16.0104 129.376 15.2017C129.376 14.3996 129.514 13.7036 129.789 13.1136C130.064 12.5237 130.447 12.0679 130.937 11.7464C131.428 11.425 131.994 11.2642 132.637 11.2642C133.135 11.2642 133.527 11.3471 133.816 11.5128C134.107 11.6752 134.329 11.8608 134.482 12.0696C134.638 12.2751 134.759 12.4441 134.845 12.5767H134.944V8.81818H136.118V19H134.984V17.8267H134.845C134.759 17.9659 134.636 18.1416 134.477 18.3537C134.318 18.5625 134.091 18.7498 133.796 18.9155C133.501 19.0779 133.108 19.1591 132.618 19.1591ZM132.777 18.1051C133.247 18.1051 133.645 17.9825 133.97 17.7372C134.295 17.4886 134.542 17.1456 134.711 16.7081C134.88 16.2673 134.964 15.7585 134.964 15.1818C134.964 14.6117 134.881 14.1129 134.716 13.6854C134.55 13.2545 134.305 12.9197 133.98 12.6811C133.655 12.4392 133.254 12.3182 132.777 12.3182C132.279 12.3182 131.865 12.4458 131.534 12.701C131.206 12.9529 130.959 13.2959 130.793 13.7301C130.631 14.161 130.549 14.6449 130.549 15.1818C130.549 15.7254 130.632 16.2192 130.798 16.6634C130.967 17.1042 131.216 17.4555 131.544 17.7173C131.875 17.9759 132.286 18.1051 132.777 18.1051Z" fill="#F5F5F5"/>
</svg>
