<svg width="127" height="28" viewBox="0 0 127 28" fill="none" xmlns="http://www.w3.org/2000/svg">
<path d="M0 14C0 6.26801 6.26801 0 14 0H113C120.732 0 127 6.26801 127 14C127 21.732 120.732 28 113 28H14C6.26801 28 0 21.732 0 14Z" fill="#343434"/>
<path d="M18.3667 18.0001L14.5667 14.2001L15.5167 13.2501L18.3667 16.1001L24.4833 9.9834L25.4333 10.9334L18.3667 18.0001Z" fill="#FF6C2E"/>
<path d="M40.1932 12C40.0838 11.6652 39.9396 11.3653 39.7607 11.1001C39.585 10.8317 39.3745 10.603 39.1293 10.4141C38.8873 10.2251 38.6122 10.081 38.304 9.98153C37.9957 9.8821 37.6577 9.83239 37.2898 9.83239C36.6866 9.83239 36.138 9.98816 35.6442 10.2997C35.1503 10.6113 34.7576 11.0703 34.4659 11.6768C34.1742 12.2834 34.0284 13.0275 34.0284 13.9091C34.0284 14.7907 34.1759 15.5348 34.4709 16.1413C34.7659 16.7479 35.1652 17.2069 35.669 17.5185C36.1728 17.83 36.7396 17.9858 37.3693 17.9858C37.9527 17.9858 38.4664 17.8615 38.9105 17.6129C39.358 17.361 39.706 17.0064 39.9545 16.549C40.2064 16.0883 40.3324 15.5464 40.3324 14.9233L40.7102 15.0028H37.6477V13.9091H41.5256V15.0028C41.5256 15.8414 41.3466 16.5705 40.9886 17.1903C40.634 17.8101 40.1435 18.2907 39.517 18.6321C38.8939 18.9702 38.178 19.1392 37.3693 19.1392C36.4678 19.1392 35.6757 18.9271 34.9929 18.5028C34.3134 18.0786 33.7831 17.4754 33.402 16.6932C33.0241 15.911 32.8352 14.983 32.8352 13.9091C32.8352 13.1037 32.9429 12.3795 33.1584 11.7365C33.3771 11.0902 33.6854 10.54 34.0831 10.0859C34.4808 9.63187 34.9515 9.28385 35.495 9.0419C36.0386 8.79995 36.6368 8.67898 37.2898 8.67898C37.8267 8.67898 38.3272 8.76018 38.7912 8.92258C39.2585 9.08168 39.6745 9.30871 40.0391 9.60369C40.407 9.89536 40.7135 10.245 40.9588 10.6527C41.2041 11.0571 41.3731 11.5062 41.4659 12H40.1932ZM44.2338 21.8636C44.035 21.8636 43.8577 21.8471 43.7019 21.8139C43.5461 21.7841 43.4384 21.7543 43.3787 21.7244L43.677 20.6903C43.9621 20.7633 44.214 20.7898 44.4327 20.7699C44.6515 20.75 44.8453 20.6522 45.0144 20.4766C45.1867 20.3042 45.3442 20.0241 45.4867 19.6364L45.7054 19.0398L42.8816 11.3636H44.1543L46.2623 17.4489H46.3418L48.4498 11.3636H49.7225L46.481 20.1136C46.3352 20.508 46.1545 20.8345 45.9391 21.093C45.7237 21.3549 45.4734 21.5488 45.1884 21.6747C44.9067 21.8007 44.5885 21.8636 44.2338 21.8636ZM51.2711 19V11.3636H52.4047V12.5568H52.5041C52.6632 12.1491 52.92 11.8326 53.2747 11.6072C53.6293 11.3786 54.0552 11.2642 54.5524 11.2642C55.0562 11.2642 55.4754 11.3786 55.8102 11.6072C56.1483 11.8326 56.4118 12.1491 56.6007 12.5568H56.6802C56.8758 12.1624 57.1691 11.8492 57.5602 11.6172C57.9513 11.3819 58.4203 11.2642 58.9672 11.2642C59.6499 11.2642 60.2084 11.478 60.6426 11.9055C61.0768 12.3298 61.2939 12.991 61.2939 13.8892V19H60.1206V13.8892C60.1206 13.3258 59.9664 12.9231 59.6582 12.6811C59.35 12.4392 58.987 12.3182 58.5694 12.3182C58.0325 12.3182 57.6165 12.4806 57.3216 12.8054C57.0266 13.1269 56.8791 13.5346 56.8791 14.0284V19H55.6859V13.7699C55.6859 13.3357 55.545 12.986 55.2633 12.7209C54.9816 12.4524 54.6187 12.3182 54.1745 12.3182C53.8696 12.3182 53.5846 12.3994 53.3194 12.5618C53.0576 12.7242 52.8455 12.9496 52.6831 13.2379C52.524 13.523 52.4444 13.8527 52.4444 14.2273V19H51.2711ZM67.9533 19H66.6607L70.3993 8.81818H71.6721L75.4107 19H74.1181L71.0755 10.429H70.9959L67.9533 19ZM68.4306 15.0227H73.6408V16.1165H68.4306V15.0227ZM79.9398 19.1591C79.2239 19.1591 78.6074 18.9901 78.0904 18.652C77.5733 18.3139 77.1756 17.8482 76.8972 17.255C76.6188 16.6617 76.4796 15.9839 76.4796 15.2216C76.4796 14.446 76.6221 13.7616 76.9071 13.1683C77.1955 12.5717 77.5965 12.1061 78.1103 11.7713C78.6273 11.4332 79.2305 11.2642 79.9199 11.2642C80.4569 11.2642 80.9408 11.3636 81.3716 11.5625C81.8025 11.7614 82.1555 12.0398 82.4306 12.3977C82.7057 12.7557 82.8764 13.1733 82.9426 13.6506H81.7694C81.6799 13.3026 81.481 12.9943 81.1728 12.7259C80.8678 12.4541 80.4569 12.3182 79.9398 12.3182C79.4824 12.3182 79.0814 12.4375 78.7367 12.6761C78.3953 12.9115 78.1285 13.2446 77.9363 13.6754C77.7473 14.103 77.6529 14.6051 77.6529 15.1818C77.6529 15.7718 77.7457 16.2855 77.9313 16.723C78.1202 17.1605 78.3854 17.5002 78.7267 17.7422C79.0714 17.9841 79.4758 18.1051 79.9398 18.1051C80.2447 18.1051 80.5215 18.0521 80.7701 17.946C81.0186 17.84 81.2291 17.6875 81.4015 17.4886C81.5738 17.2898 81.6964 17.0511 81.7694 16.7727H82.9426C82.8764 17.2235 82.7123 17.6295 82.4505 17.9908C82.1919 18.3487 81.8489 18.6338 81.4213 18.8459C80.9971 19.0547 80.5033 19.1591 79.9398 19.1591ZM87.7601 19.1591C87.0442 19.1591 86.4277 18.9901 85.9107 18.652C85.3936 18.3139 84.9959 17.8482 84.7175 17.255C84.4391 16.6617 84.2999 15.9839 84.2999 15.2216C84.2999 14.446 84.4424 13.7616 84.7275 13.1683C85.0158 12.5717 85.4168 12.1061 85.9306 11.7713C86.4476 11.4332 87.0508 11.2642 87.7402 11.2642C88.2772 11.2642 88.7611 11.3636 89.1919 11.5625C89.6228 11.7614 89.9758 12.0398 90.2509 12.3977C90.526 12.7557 90.6967 13.1733 90.763 13.6506H89.5897C89.5002 13.3026 89.3013 12.9943 88.9931 12.7259C88.6882 12.4541 88.2772 12.3182 87.7601 12.3182C87.3027 12.3182 86.9017 12.4375 86.557 12.6761C86.2156 12.9115 85.9488 13.2446 85.7566 13.6754C85.5676 14.103 85.4732 14.6051 85.4732 15.1818C85.4732 15.7718 85.566 16.2855 85.7516 16.723C85.9405 17.1605 86.2057 17.5002 86.5471 17.7422C86.8917 17.9841 87.2961 18.1051 87.7601 18.1051C88.065 18.1051 88.3418 18.0521 88.5904 17.946C88.839 17.84 89.0494 17.6875 89.2218 17.4886C89.3941 17.2898 89.5167 17.0511 89.5897 16.7727H90.763C90.6967 17.2235 90.5326 17.6295 90.2708 17.9908C90.0123 18.3487 89.6692 18.6338 89.2417 18.8459C88.8174 19.0547 88.3236 19.1591 87.7601 19.1591ZM95.6799 19.1591C94.9441 19.1591 94.3094 18.9967 93.7757 18.6719C93.2454 18.3438 92.8361 17.8864 92.5478 17.2997C92.2627 16.7098 92.1202 16.0237 92.1202 15.2415C92.1202 14.4593 92.2627 13.7699 92.5478 13.1733C92.8361 12.5734 93.2372 12.1061 93.7509 11.7713C94.2679 11.4332 94.8712 11.2642 95.5605 11.2642C95.9583 11.2642 96.351 11.3305 96.7388 11.4631C97.1266 11.5956 97.4796 11.8111 97.7978 12.1094C98.1159 12.4044 98.3695 12.7955 98.5584 13.2827C98.7473 13.7699 98.8418 14.3698 98.8418 15.0824V15.5795H92.9554V14.5653H97.6486C97.6486 14.1345 97.5624 13.75 97.3901 13.4119C97.2211 13.0739 96.9791 12.8071 96.6642 12.6115C96.3527 12.416 95.9848 12.3182 95.5605 12.3182C95.0932 12.3182 94.6889 12.4342 94.3475 12.6662C94.0094 12.8949 93.7492 13.1932 93.5669 13.5611C93.3846 13.929 93.2935 14.3234 93.2935 14.7443V15.4205C93.2935 15.9972 93.3929 16.486 93.5918 16.8871C93.794 17.2848 94.074 17.5881 94.432 17.7969C94.79 18.0024 95.2059 18.1051 95.6799 18.1051C95.9881 18.1051 96.2665 18.062 96.5151 17.9759C96.767 17.8864 96.9841 17.7538 97.1664 17.5781C97.3487 17.3991 97.4895 17.1771 97.589 16.9119L98.7225 17.2301C98.6032 17.6146 98.4026 17.9527 98.1209 18.2443C97.8392 18.5327 97.4912 18.758 97.0769 18.9205C96.6626 19.0795 96.1969 19.1591 95.6799 19.1591ZM106.036 13.0739L104.982 13.3722C104.915 13.1965 104.818 13.0258 104.688 12.8601C104.562 12.6911 104.39 12.5518 104.171 12.4425C103.953 12.3331 103.673 12.2784 103.331 12.2784C102.864 12.2784 102.474 12.3861 102.163 12.6016C101.855 12.8137 101.7 13.0838 101.7 13.4119C101.7 13.7036 101.807 13.9339 102.019 14.103C102.231 14.272 102.562 14.4129 103.013 14.5256L104.146 14.804C104.829 14.9697 105.338 15.2232 105.673 15.5646C106.008 15.9027 106.175 16.3385 106.175 16.8722C106.175 17.3097 106.049 17.7008 105.797 18.0455C105.548 18.3902 105.2 18.6619 104.753 18.8608C104.306 19.0597 103.785 19.1591 103.192 19.1591C102.413 19.1591 101.768 18.9901 101.258 18.652C100.748 18.3139 100.424 17.8201 100.289 17.1705L101.402 16.892C101.508 17.303 101.709 17.6113 102.004 17.8168C102.302 18.0223 102.691 18.125 103.172 18.125C103.719 18.125 104.153 18.009 104.475 17.777C104.799 17.5417 104.962 17.2599 104.962 16.9318C104.962 16.6667 104.869 16.4446 104.683 16.2656C104.498 16.0833 104.213 15.9474 103.828 15.858L102.556 15.5597C101.856 15.3939 101.343 15.1371 101.014 14.7891C100.69 14.4377 100.527 13.9986 100.527 13.4716C100.527 13.0407 100.648 12.6596 100.89 12.3281C101.135 11.9967 101.468 11.7365 101.889 11.5476C102.314 11.3587 102.794 11.2642 103.331 11.2642C104.087 11.2642 104.68 11.4299 105.111 11.7614C105.545 12.0928 105.853 12.5303 106.036 13.0739ZM113.35 13.0739L112.296 13.3722C112.23 13.1965 112.132 13.0258 112.003 12.8601C111.877 12.6911 111.705 12.5518 111.486 12.4425C111.267 12.3331 110.987 12.2784 110.646 12.2784C110.178 12.2784 109.789 12.3861 109.477 12.6016C109.169 12.8137 109.015 13.0838 109.015 13.4119C109.015 13.7036 109.121 13.9339 109.333 14.103C109.545 14.272 109.877 14.4129 110.327 14.5256L111.461 14.804C112.144 14.9697 112.652 15.2232 112.987 15.5646C113.322 15.9027 113.489 16.3385 113.489 16.8722C113.489 17.3097 113.363 17.7008 113.112 18.0455C112.863 18.3902 112.515 18.6619 112.067 18.8608C111.62 19.0597 111.1 19.1591 110.506 19.1591C109.728 19.1591 109.083 18.9901 108.572 18.652C108.062 18.3139 107.739 17.8201 107.603 17.1705L108.717 16.892C108.823 17.303 109.023 17.6113 109.318 17.8168C109.616 18.0223 110.006 18.125 110.487 18.125C111.033 18.125 111.468 18.009 111.789 17.777C112.114 17.5417 112.276 17.2599 112.276 16.9318C112.276 16.6667 112.183 16.4446 111.998 16.2656C111.812 16.0833 111.527 15.9474 111.143 15.858L109.87 15.5597C109.171 15.3939 108.657 15.1371 108.329 14.7891C108.004 14.4377 107.842 13.9986 107.842 13.4716C107.842 13.0407 107.963 12.6596 108.205 12.3281C108.45 11.9967 108.783 11.7365 109.204 11.5476C109.628 11.3587 110.109 11.2642 110.646 11.2642C111.401 11.2642 111.995 11.4299 112.425 11.7614C112.86 12.0928 113.168 12.5303 113.35 13.0739Z" fill="#F5F5F5"/>
</svg>
