<svg width="179" height="28" viewBox="0 0 179 28" fill="none" xmlns="http://www.w3.org/2000/svg">
<path d="M0 14C0 6.26801 6.26801 0 14 0H165C172.732 0 179 6.26801 179 14C179 21.732 172.732 28 165 28H14C6.26801 28 0 21.732 0 14Z" fill="#343434"/>
<path d="M18.3667 18.0001L14.5667 14.2001L15.5167 13.2501L18.3667 16.1001L24.4833 9.9834L25.4333 10.9334L18.3667 18.0001Z" fill="#FF6C2E"/>
<path d="M33.233 19V8.81818H36.7926C37.5019 8.81818 38.0869 8.94081 38.5476 9.18608C39.0083 9.42803 39.3513 9.7545 39.5767 10.1655C39.8021 10.5732 39.9148 11.0256 39.9148 11.5227C39.9148 11.9602 39.8369 12.3215 39.6811 12.6065C39.5286 12.8916 39.3265 13.117 39.0746 13.2827C38.826 13.4484 38.5559 13.571 38.2642 13.6506V13.75C38.5758 13.7699 38.889 13.8793 39.2038 14.0781C39.5187 14.277 39.7822 14.562 39.9943 14.9332C40.2064 15.3045 40.3125 15.7585 40.3125 16.2955C40.3125 16.8059 40.1965 17.2649 39.9645 17.6726C39.7325 18.0803 39.3662 18.4034 38.8658 18.642C38.3653 18.8807 37.714 19 36.9119 19H33.233ZM34.4659 17.9062H36.9119C37.7173 17.9062 38.2891 17.7505 38.6271 17.4389C38.9685 17.1241 39.1392 16.7429 39.1392 16.2955C39.1392 15.9508 39.0514 15.6326 38.8757 15.3409C38.7 15.0459 38.4498 14.8106 38.125 14.6349C37.8002 14.456 37.4157 14.3665 36.9716 14.3665H34.4659V17.9062ZM34.4659 13.2926H36.7528C37.1241 13.2926 37.4588 13.2197 37.7571 13.0739C38.0587 12.928 38.2973 12.7225 38.473 12.4574C38.652 12.1922 38.7415 11.8807 38.7415 11.5227C38.7415 11.0753 38.5857 10.6958 38.2741 10.3842C37.9626 10.0694 37.4688 9.91193 36.7926 9.91193H34.4659V13.2926ZM44.4265 19.179C43.9426 19.179 43.5034 19.0878 43.109 18.9055C42.7146 18.7199 42.4014 18.4531 42.1694 18.1051C41.9374 17.7538 41.8214 17.3295 41.8214 16.8324C41.8214 16.3949 41.9076 16.0402 42.0799 15.7685C42.2522 15.4934 42.4826 15.2779 42.771 15.1222C43.0593 14.9664 43.3775 14.8504 43.7255 14.7741C44.0768 14.6946 44.4298 14.6316 44.7844 14.5852C45.2485 14.5256 45.6246 14.4808 45.913 14.451C46.2047 14.4179 46.4168 14.3632 46.5494 14.2869C46.6853 14.2107 46.7532 14.0781 46.7532 13.8892V13.8494C46.7532 13.3589 46.619 12.9777 46.3505 12.706C46.0853 12.4342 45.6826 12.2983 45.1424 12.2983C44.5823 12.2983 44.1431 12.4209 43.8249 12.6662C43.5067 12.9115 43.283 13.1733 43.1538 13.4517L42.0401 13.054C42.239 12.59 42.5041 12.2287 42.8356 11.9702C43.1703 11.7083 43.5349 11.526 43.9293 11.4233C44.3271 11.3172 44.7182 11.2642 45.1026 11.2642C45.3479 11.2642 45.6296 11.294 45.9478 11.3537C46.2693 11.41 46.5792 11.5277 46.8775 11.7067C47.1791 11.8857 47.4293 12.1558 47.6282 12.517C47.8271 12.8783 47.9265 13.3622 47.9265 13.9688V19H46.7532V17.9659H46.6935C46.614 18.1316 46.4814 18.3089 46.2958 18.4979C46.1102 18.6868 45.8633 18.8475 45.555 18.9801C45.2468 19.1127 44.8706 19.179 44.4265 19.179ZM44.6055 18.125C45.0695 18.125 45.4606 18.0339 45.7788 17.8516C46.1003 17.6693 46.3422 17.4339 46.5046 17.1456C46.6703 16.8572 46.7532 16.554 46.7532 16.2358V15.1619C46.7035 15.2216 46.5941 15.2763 46.4251 15.326C46.2594 15.3724 46.0671 15.4138 45.8484 15.4503C45.6329 15.4834 45.4225 15.5133 45.217 15.5398C45.0148 15.563 44.8507 15.5829 44.7248 15.5994C44.4199 15.6392 44.1348 15.7038 43.8697 15.7933C43.6078 15.8795 43.3957 16.0104 43.2333 16.1861C43.0742 16.3584 42.9947 16.5937 42.9947 16.892C42.9947 17.2997 43.1455 17.608 43.4471 17.8168C43.752 18.0223 44.1381 18.125 44.6055 18.125ZM55.4771 13.0739L54.4231 13.3722C54.3568 13.1965 54.2591 13.0258 54.1298 12.8601C54.0038 12.6911 53.8315 12.5518 53.6127 12.4425C53.394 12.3331 53.1139 12.2784 52.7725 12.2784C52.3052 12.2784 51.9158 12.3861 51.6042 12.6016C51.296 12.8137 51.1419 13.0838 51.1419 13.4119C51.1419 13.7036 51.2479 13.9339 51.46 14.103C51.6722 14.272 52.0036 14.4129 52.4544 14.5256L53.5879 14.804C54.2707 14.9697 54.7794 15.2232 55.1142 15.5646C55.4489 15.9027 55.6163 16.3385 55.6163 16.8722C55.6163 17.3097 55.4904 17.7008 55.2385 18.0455C54.9899 18.3902 54.6419 18.6619 54.1944 18.8608C53.747 19.0597 53.2266 19.1591 52.6333 19.1591C51.8545 19.1591 51.2098 18.9901 50.6994 18.652C50.189 18.3139 49.8658 17.8201 49.7299 17.1705L50.8436 16.892C50.9496 17.303 51.1502 17.6113 51.4451 17.8168C51.7434 18.0223 52.1329 18.125 52.6135 18.125C53.1603 18.125 53.5945 18.009 53.916 17.777C54.2408 17.5417 54.4032 17.2599 54.4032 16.9318C54.4032 16.6667 54.3104 16.4446 54.1248 16.2656C53.9392 16.0833 53.6542 15.9474 53.2697 15.858L51.997 15.5597C51.2976 15.3939 50.7839 15.1371 50.4558 14.7891C50.131 14.4377 49.9686 13.9986 49.9686 13.4716C49.9686 13.0407 50.0895 12.6596 50.3315 12.3281C50.5768 11.9967 50.9099 11.7365 51.3308 11.5476C51.755 11.3587 52.2356 11.2642 52.7725 11.2642C53.5282 11.2642 54.1215 11.4299 54.5524 11.7614C54.9866 12.0928 55.2948 12.5303 55.4771 13.0739ZM57.3825 19V11.3636H58.5558V19H57.3825ZM57.979 10.0909C57.7504 10.0909 57.5531 10.013 57.3874 9.85724C57.225 9.70147 57.1438 9.5142 57.1438 9.29545C57.1438 9.0767 57.225 8.88944 57.3874 8.73366C57.5531 8.57789 57.7504 8.5 57.979 8.5C58.2077 8.5 58.4033 8.57789 58.5657 8.73366C58.7314 8.88944 58.8143 9.0767 58.8143 9.29545C58.8143 9.5142 58.7314 9.70147 58.5657 9.85724C58.4033 10.013 58.2077 10.0909 57.979 10.0909ZM63.807 19.1591C63.0911 19.1591 62.4746 18.9901 61.9576 18.652C61.4405 18.3139 61.0428 17.8482 60.7644 17.255C60.486 16.6617 60.3468 15.9839 60.3468 15.2216C60.3468 14.446 60.4893 13.7616 60.7743 13.1683C61.0627 12.5717 61.4637 12.1061 61.9775 11.7713C62.4945 11.4332 63.0977 11.2642 63.7871 11.2642C64.324 11.2642 64.8079 11.3636 65.2388 11.5625C65.6697 11.7614 66.0227 12.0398 66.2978 12.3977C66.5729 12.7557 66.7435 13.1733 66.8098 13.6506H65.6365C65.5471 13.3026 65.3482 12.9943 65.04 12.7259C64.735 12.4541 64.324 12.3182 63.807 12.3182C63.3496 12.3182 62.9486 12.4375 62.6039 12.6761C62.2625 12.9115 61.9957 13.2446 61.8034 13.6754C61.6145 14.103 61.5201 14.6051 61.5201 15.1818C61.5201 15.7718 61.6129 16.2855 61.7985 16.723C61.9874 17.1605 62.2525 17.5002 62.5939 17.7422C62.9386 17.9841 63.343 18.1051 63.807 18.1051C64.1119 18.1051 64.3887 18.0521 64.6373 17.946C64.8858 17.84 65.0963 17.6875 65.2686 17.4886C65.441 17.2898 65.5636 17.0511 65.6365 16.7727H66.8098C66.7435 17.2235 66.5795 17.6295 66.3176 17.9908C66.0591 18.3487 65.7161 18.6338 65.2885 18.8459C64.8643 19.0547 64.3704 19.1591 63.807 19.1591ZM72.0648 9.91193V8.81818H79.7012V9.91193H76.4995V19H75.2665V9.91193H72.0648ZM80.652 19V11.3636H81.7855V12.517H81.8651C82.0043 12.1392 82.2562 11.8326 82.6207 11.5973C82.9853 11.362 83.3963 11.2443 83.8537 11.2443C83.9399 11.2443 84.0476 11.246 84.1768 11.2493C84.3061 11.2526 84.4039 11.2576 84.4702 11.2642V12.4574C84.4304 12.4474 84.3393 12.4325 84.1967 12.4126C84.0575 12.3894 83.91 12.3778 83.7543 12.3778C83.383 12.3778 83.0516 12.4557 82.7599 12.6115C82.4716 12.764 82.2429 12.9761 82.0739 13.2479C81.9081 13.5163 81.8253 13.8229 81.8253 14.1676V19H80.652ZM88.1081 19.179C87.6242 19.179 87.1851 19.0878 86.7907 18.9055C86.3962 18.7199 86.083 18.4531 85.851 18.1051C85.619 17.7538 85.503 17.3295 85.503 16.8324C85.503 16.3949 85.5892 16.0402 85.7615 15.7685C85.9339 15.4934 86.1642 15.2779 86.4526 15.1222C86.7409 14.9664 87.0591 14.8504 87.4071 14.7741C87.7585 14.6946 88.1114 14.6316 88.4661 14.5852C88.9301 14.5256 89.3063 14.4808 89.5946 14.451C89.8863 14.4179 90.0984 14.3632 90.231 14.2869C90.3669 14.2107 90.4348 14.0781 90.4348 13.8892V13.8494C90.4348 13.3589 90.3006 12.9777 90.0321 12.706C89.767 12.4342 89.3643 12.2983 88.824 12.2983C88.2639 12.2983 87.8248 12.4209 87.5066 12.6662C87.1884 12.9115 86.9647 13.1733 86.8354 13.4517L85.7218 13.054C85.9206 12.59 86.1858 12.2287 86.5172 11.9702C86.852 11.7083 87.2166 11.526 87.611 11.4233C88.0087 11.3172 88.3998 11.2642 88.7843 11.2642C89.0295 11.2642 89.3113 11.294 89.6294 11.3537C89.9509 11.41 90.2608 11.5277 90.5591 11.7067C90.8607 11.8857 91.111 12.1558 91.3098 12.517C91.5087 12.8783 91.6081 13.3622 91.6081 13.9688V19H90.4348V17.9659H90.3752C90.2956 18.1316 90.1631 18.3089 89.9775 18.4979C89.7918 18.6868 89.5449 18.8475 89.2367 18.9801C88.9284 19.1127 88.5523 19.179 88.1081 19.179ZM88.2871 18.125C88.7511 18.125 89.1422 18.0339 89.4604 17.8516C89.7819 17.6693 90.0239 17.4339 90.1863 17.1456C90.352 16.8572 90.4348 16.554 90.4348 16.2358V15.1619C90.3851 15.2216 90.2757 15.2763 90.1067 15.326C89.941 15.3724 89.7488 15.4138 89.53 15.4503C89.3146 15.4834 89.1041 15.5133 88.8986 15.5398C88.6964 15.563 88.5324 15.5829 88.4064 15.5994C88.1015 15.6392 87.8165 15.7038 87.5513 15.7933C87.2895 15.8795 87.0774 16.0104 86.915 16.1861C86.7559 16.3584 86.6763 16.5937 86.6763 16.892C86.6763 17.2997 86.8271 17.608 87.1287 17.8168C87.4337 18.0223 87.8198 18.125 88.2871 18.125ZM93.7496 19V11.3636H94.9229V19H93.7496ZM94.3462 10.0909C94.1175 10.0909 93.9203 10.013 93.7546 9.85724C93.5922 9.70147 93.511 9.5142 93.511 9.29545C93.511 9.0767 93.5922 8.88944 93.7546 8.73366C93.9203 8.57789 94.1175 8.5 94.3462 8.5C94.5749 8.5 94.7705 8.57789 94.9329 8.73366C95.0986 8.88944 95.1815 9.0767 95.1815 9.29545C95.1815 9.5142 95.0986 9.70147 94.9329 9.85724C94.7705 10.013 94.5749 10.0909 94.3462 10.0909ZM98.2452 14.4062V19H97.0719V11.3636H98.2054V12.5568H98.3049C98.4838 12.169 98.7556 11.8575 99.1202 11.6222C99.4848 11.3835 99.9554 11.2642 100.532 11.2642C101.049 11.2642 101.502 11.3703 101.889 11.5824C102.277 11.7912 102.579 12.1094 102.794 12.5369C103.01 12.9612 103.117 13.4981 103.117 14.1477V19H101.944V14.2273C101.944 13.6274 101.788 13.16 101.477 12.8253C101.165 12.4872 100.738 12.3182 100.194 12.3182C99.8195 12.3182 99.4848 12.3994 99.1898 12.5618C98.8981 12.7242 98.6678 12.9612 98.4988 13.2727C98.3297 13.5843 98.2452 13.9621 98.2452 14.4062ZM105.261 19V11.3636H106.435V19H105.261ZM105.858 10.0909C105.629 10.0909 105.432 10.013 105.266 9.85724C105.104 9.70147 105.023 9.5142 105.023 9.29545C105.023 9.0767 105.104 8.88944 105.266 8.73366C105.432 8.57789 105.629 8.5 105.858 8.5C106.087 8.5 106.282 8.57789 106.445 8.73366C106.61 8.88944 106.693 9.0767 106.693 9.29545C106.693 9.5142 106.61 9.70147 106.445 9.85724C106.282 10.013 106.087 10.0909 105.858 10.0909ZM109.757 14.4062V19H108.584V11.3636H109.717V12.5568H109.817C109.996 12.169 110.267 11.8575 110.632 11.6222C110.997 11.3835 111.467 11.2642 112.044 11.2642C112.561 11.2642 113.013 11.3703 113.401 11.5824C113.789 11.7912 114.09 12.1094 114.306 12.5369C114.521 12.9612 114.629 13.4981 114.629 14.1477V19H113.456V14.2273C113.456 13.6274 113.3 13.16 112.988 12.8253C112.677 12.4872 112.249 12.3182 111.706 12.3182C111.331 12.3182 110.997 12.3994 110.702 12.5618C110.41 12.7242 110.18 12.9612 110.01 13.2727C109.841 13.5843 109.757 13.9621 109.757 14.4062ZM119.855 22.0227C119.289 22.0227 118.801 21.9498 118.394 21.804C117.986 21.6615 117.646 21.4725 117.375 21.2372C117.106 21.0052 116.892 20.7566 116.733 20.4915L117.668 19.8352C117.774 19.9744 117.908 20.1335 118.071 20.3125C118.233 20.4948 118.455 20.6522 118.737 20.7848C119.022 20.9207 119.395 20.9886 119.855 20.9886C120.472 20.9886 120.981 20.8395 121.382 20.5412C121.783 20.2429 121.983 19.7756 121.983 19.1392V17.5881H121.884C121.798 17.7273 121.675 17.8996 121.516 18.1051C121.36 18.3073 121.135 18.4879 120.84 18.647C120.548 18.8028 120.154 18.8807 119.657 18.8807C119.04 18.8807 118.487 18.7348 117.996 18.4432C117.509 18.1515 117.123 17.7273 116.838 17.1705C116.556 16.6136 116.415 15.9375 116.415 15.142C116.415 14.3598 116.553 13.6787 116.828 13.0987C117.103 12.5154 117.486 12.0646 117.976 11.7464C118.467 11.425 119.033 11.2642 119.676 11.2642C120.174 11.2642 120.568 11.3471 120.86 11.5128C121.155 11.6752 121.38 11.8608 121.536 12.0696C121.695 12.2751 121.818 12.4441 121.904 12.5767H122.023V11.3636H123.157V19.2188C123.157 19.875 123.007 20.4086 122.709 20.8196C122.414 21.2339 122.016 21.5372 121.516 21.7294C121.019 21.925 120.465 22.0227 119.855 22.0227ZM119.816 17.8267C120.286 17.8267 120.684 17.719 121.009 17.5036C121.334 17.2881 121.581 16.9782 121.75 16.5739C121.919 16.1695 122.003 15.6856 122.003 15.1222C122.003 14.572 121.92 14.0864 121.755 13.6655C121.589 13.2446 121.344 12.9148 121.019 12.6761C120.694 12.4375 120.293 12.3182 119.816 12.3182C119.319 12.3182 118.904 12.4441 118.573 12.696C118.245 12.9479 117.998 13.286 117.832 13.7102C117.67 14.1345 117.588 14.6051 117.588 15.1222C117.588 15.6525 117.671 16.1214 117.837 16.5291C118.006 16.9335 118.255 17.2517 118.583 17.4837C118.914 17.7124 119.325 17.8267 119.816 17.8267ZM136.361 12C136.252 11.6652 136.108 11.3653 135.929 11.1001C135.753 10.8317 135.542 10.603 135.297 10.4141C135.055 10.2251 134.78 10.081 134.472 9.98153C134.164 9.8821 133.826 9.83239 133.458 9.83239C132.855 9.83239 132.306 9.98816 131.812 10.2997C131.318 10.6113 130.926 11.0703 130.634 11.6768C130.342 12.2834 130.196 13.0275 130.196 13.9091C130.196 14.7907 130.344 15.5348 130.639 16.1413C130.934 16.7479 131.333 17.2069 131.837 17.5185C132.341 17.83 132.908 17.9858 133.537 17.9858C134.121 17.9858 134.634 17.8615 135.078 17.6129C135.526 17.361 135.874 17.0064 136.123 16.549C136.374 16.0883 136.5 15.5464 136.5 14.9233L136.878 15.0028H133.816V13.9091H137.694V15.0028C137.694 15.8414 137.515 16.5705 137.157 17.1903C136.802 17.8101 136.311 18.2907 135.685 18.6321C135.062 18.9702 134.346 19.1392 133.537 19.1392C132.636 19.1392 131.844 18.9271 131.161 18.5028C130.481 18.0786 129.951 17.4754 129.57 16.6932C129.192 15.911 129.003 14.983 129.003 13.9091C129.003 13.1037 129.111 12.3795 129.326 11.7365C129.545 11.0902 129.853 10.54 130.251 10.0859C130.649 9.63187 131.119 9.28385 131.663 9.0419C132.207 8.79995 132.805 8.67898 133.458 8.67898C133.995 8.67898 134.495 8.76018 134.959 8.92258C135.426 9.08168 135.842 9.30871 136.207 9.60369C136.575 9.89536 136.882 10.245 137.127 10.6527C137.372 11.0571 137.541 11.5062 137.634 12H136.361ZM144.459 15.8778V11.3636H145.632V19H144.459V17.7074H144.379C144.2 18.0952 143.922 18.425 143.544 18.6967C143.166 18.9652 142.689 19.0994 142.112 19.0994C141.635 19.0994 141.211 18.995 140.839 18.7862C140.468 18.5741 140.176 18.2559 139.964 17.8317C139.752 17.4041 139.646 16.8655 139.646 16.2159V11.3636H140.819V16.1364C140.819 16.6932 140.975 17.1373 141.287 17.4688C141.602 17.8002 142.003 17.9659 142.49 17.9659C142.782 17.9659 143.078 17.8913 143.38 17.7422C143.685 17.593 143.94 17.3643 144.145 17.0561C144.354 16.7479 144.459 16.3551 144.459 15.8778ZM147.781 19V11.3636H148.954V19H147.781ZM148.377 10.0909C148.149 10.0909 147.952 10.013 147.786 9.85724C147.623 9.70147 147.542 9.5142 147.542 9.29545C147.542 9.0767 147.623 8.88944 147.786 8.73366C147.952 8.57789 148.149 8.5 148.377 8.5C148.606 8.5 148.802 8.57789 148.964 8.73366C149.13 8.88944 149.213 9.0767 149.213 9.29545C149.213 9.5142 149.13 9.70147 148.964 9.85724C148.802 10.013 148.606 10.0909 148.377 10.0909ZM153.987 19.1591C153.35 19.1591 152.789 18.9983 152.301 18.6768C151.814 18.352 151.433 17.8946 151.158 17.3047C150.883 16.7114 150.745 16.0104 150.745 15.2017C150.745 14.3996 150.883 13.7036 151.158 13.1136C151.433 12.5237 151.816 12.0679 152.306 11.7464C152.797 11.425 153.364 11.2642 154.007 11.2642C154.504 11.2642 154.896 11.3471 155.185 11.5128C155.477 11.6752 155.699 11.8608 155.851 12.0696C156.007 12.2751 156.128 12.4441 156.214 12.5767H156.313V8.81818H157.487V19H156.353V17.8267H156.214C156.128 17.9659 156.005 18.1416 155.846 18.3537C155.687 18.5625 155.46 18.7498 155.165 18.9155C154.87 19.0779 154.477 19.1591 153.987 19.1591ZM154.146 18.1051C154.616 18.1051 155.014 17.9825 155.339 17.7372C155.664 17.4886 155.911 17.1456 156.08 16.7081C156.249 16.2673 156.333 15.7585 156.333 15.1818C156.333 14.6117 156.25 14.1129 156.085 13.6854C155.919 13.2545 155.674 12.9197 155.349 12.6811C155.024 12.4392 154.623 12.3182 154.146 12.3182C153.649 12.3182 153.234 12.4458 152.903 12.701C152.575 12.9529 152.328 13.2959 152.162 13.7301C152 14.161 151.919 14.6449 151.919 15.1818C151.919 15.7254 152.001 16.2192 152.167 16.6634C152.336 17.1042 152.585 17.4555 152.913 17.7173C153.244 17.9759 153.655 18.1051 154.146 18.1051ZM163 19.1591C162.264 19.1591 161.63 18.9967 161.096 18.6719C160.566 18.3438 160.156 17.8864 159.868 17.2997C159.583 16.7098 159.441 16.0237 159.441 15.2415C159.441 14.4593 159.583 13.7699 159.868 13.1733C160.156 12.5734 160.557 12.1061 161.071 11.7713C161.588 11.4332 162.191 11.2642 162.881 11.2642C163.279 11.2642 163.671 11.3305 164.059 11.4631C164.447 11.5956 164.8 11.8111 165.118 12.1094C165.436 12.4044 165.69 12.7955 165.879 13.2827C166.068 13.7699 166.162 14.3698 166.162 15.0824V15.5795H160.276V14.5653H164.969C164.969 14.1345 164.883 13.75 164.71 13.4119C164.541 13.0739 164.299 12.8071 163.985 12.6115C163.673 12.416 163.305 12.3182 162.881 12.3182C162.414 12.3182 162.009 12.4342 161.668 12.6662C161.33 12.8949 161.07 13.1932 160.887 13.5611C160.705 13.929 160.614 14.3234 160.614 14.7443V15.4205C160.614 15.9972 160.713 16.486 160.912 16.8871C161.114 17.2848 161.394 17.5881 161.752 17.7969C162.11 18.0024 162.526 18.1051 163 18.1051C163.308 18.1051 163.587 18.062 163.835 17.9759C164.087 17.8864 164.304 17.7538 164.487 17.5781C164.669 17.3991 164.81 17.1771 164.909 16.9119L166.043 17.2301C165.923 17.6146 165.723 17.9527 165.441 18.2443C165.16 18.5327 164.811 18.758 164.397 18.9205C163.983 19.0795 163.517 19.1591 163 19.1591Z" fill="#F5F5F5"/>
</svg>
