<svg width="140" height="28" viewBox="0 0 140 28" fill="none" xmlns="http://www.w3.org/2000/svg">
<path d="M0 14C0 6.26801 6.26801 0 14 0H126C133.732 0 140 6.26801 140 14C140 21.732 133.732 28 126 28H14C6.26802 28 0 21.732 0 14Z" fill="#343434"/>
<path d="M18.3667 18.0001L14.5667 14.2001L15.5167 13.2501L18.3667 16.1001L24.4833 9.9834L25.4333 10.9334L18.3667 18.0001Z" fill="#FF6C2E"/>
<path d="M40.1932 12C40.0838 11.6652 39.9396 11.3653 39.7607 11.1001C39.585 10.8317 39.3745 10.603 39.1293 10.4141C38.8873 10.2251 38.6122 10.081 38.304 9.98153C37.9957 9.8821 37.6577 9.83239 37.2898 9.83239C36.6866 9.83239 36.138 9.98816 35.6442 10.2997C35.1503 10.6113 34.7576 11.0703 34.4659 11.6768C34.1742 12.2834 34.0284 13.0275 34.0284 13.9091C34.0284 14.7907 34.1759 15.5348 34.4709 16.1413C34.7659 16.7479 35.1652 17.2069 35.669 17.5185C36.1728 17.83 36.7396 17.9858 37.3693 17.9858C37.9527 17.9858 38.4664 17.8615 38.9105 17.6129C39.358 17.361 39.706 17.0064 39.9545 16.549C40.2064 16.0883 40.3324 15.5464 40.3324 14.9233L40.7102 15.0028H37.6477V13.9091H41.5256V15.0028C41.5256 15.8414 41.3466 16.5705 40.9886 17.1903C40.634 17.8101 40.1435 18.2907 39.517 18.6321C38.8939 18.9702 38.178 19.1392 37.3693 19.1392C36.4678 19.1392 35.6757 18.9271 34.9929 18.5028C34.3134 18.0786 33.7831 17.4754 33.402 16.6932C33.0241 15.911 32.8352 14.983 32.8352 13.9091C32.8352 13.1037 32.9429 12.3795 33.1584 11.7365C33.3771 11.0902 33.6854 10.54 34.0831 10.0859C34.4808 9.63187 34.9515 9.28385 35.495 9.0419C36.0386 8.79995 36.6368 8.67898 37.2898 8.67898C37.8267 8.67898 38.3272 8.76018 38.7912 8.92258C39.2585 9.08168 39.6745 9.30871 40.0391 9.60369C40.407 9.89536 40.7135 10.245 40.9588 10.6527C41.2041 11.0571 41.3731 11.5062 41.4659 12H40.1932ZM43.4782 19V11.3636H44.6117V12.517H44.6912C44.8304 12.1392 45.0823 11.8326 45.4469 11.5973C45.8115 11.362 46.2225 11.2443 46.6799 11.2443C46.766 11.2443 46.8738 11.246 47.003 11.2493C47.1323 11.2526 47.2301 11.2576 47.2963 11.2642V12.4574C47.2566 12.4474 47.1654 12.4325 47.0229 12.4126C46.8837 12.3894 46.7362 12.3778 46.5804 12.3778C46.2092 12.3778 45.8778 12.4557 45.5861 12.6115C45.2978 12.764 45.0691 12.9761 44.9 13.2479C44.7343 13.5163 44.6515 13.8229 44.6515 14.1676V19H43.4782ZM51.557 19.1591C50.8676 19.1591 50.2627 18.995 49.7424 18.6669C49.2253 18.3388 48.821 17.8797 48.5293 17.2898C48.2409 16.6998 48.0968 16.0104 48.0968 15.2216C48.0968 14.4261 48.2409 13.7318 48.5293 13.1385C48.821 12.5452 49.2253 12.0845 49.7424 11.7564C50.2627 11.4283 50.8676 11.2642 51.557 11.2642C52.2464 11.2642 52.8496 11.4283 53.3667 11.7564C53.887 12.0845 54.2914 12.5452 54.5797 13.1385C54.8714 13.7318 55.0172 14.4261 55.0172 15.2216C55.0172 16.0104 54.8714 16.6998 54.5797 17.2898C54.2914 17.8797 53.887 18.3388 53.3667 18.6669C52.8496 18.995 52.2464 19.1591 51.557 19.1591ZM51.557 18.1051C52.0807 18.1051 52.5115 17.9709 52.8496 17.7024C53.1877 17.4339 53.4379 17.081 53.6003 16.6435C53.7627 16.206 53.8439 15.732 53.8439 15.2216C53.8439 14.7112 53.7627 14.2356 53.6003 13.7947C53.4379 13.3539 53.1877 12.9976 52.8496 12.7259C52.5115 12.4541 52.0807 12.3182 51.557 12.3182C51.0333 12.3182 50.6025 12.4541 50.2644 12.7259C49.9263 12.9976 49.6761 13.3539 49.5137 13.7947C49.3513 14.2356 49.2701 14.7112 49.2701 15.2216C49.2701 15.732 49.3513 16.206 49.5137 16.6435C49.6761 17.081 49.9263 17.4339 50.2644 17.7024C50.6025 17.9709 51.0333 18.1051 51.557 18.1051ZM61.6207 15.8778V11.3636H62.794V19H61.6207V17.7074H61.5412C61.3622 18.0952 61.0838 18.425 60.706 18.6967C60.3281 18.9652 59.8509 19.0994 59.2741 19.0994C58.7969 19.0994 58.3726 18.995 58.0014 18.7862C57.6302 18.5741 57.3385 18.2559 57.1264 17.8317C56.9143 17.4041 56.8082 16.8655 56.8082 16.2159V11.3636H57.9815V16.1364C57.9815 16.6932 58.1373 17.1373 58.4489 17.4688C58.7637 17.8002 59.1648 17.9659 59.652 17.9659C59.9437 17.9659 60.2403 17.8913 60.5419 17.7422C60.8468 17.593 61.102 17.3643 61.3075 17.0561C61.5163 16.7479 61.6207 16.3551 61.6207 15.8778ZM64.943 21.8636V11.3636H66.0765V12.5767H66.2157C66.3019 12.4441 66.4212 12.2751 66.5737 12.0696C66.7295 11.8608 66.9515 11.6752 67.2399 11.5128C67.5315 11.3471 67.926 11.2642 68.4231 11.2642C69.0661 11.2642 69.6329 11.425 70.1234 11.7464C70.6139 12.0679 70.9967 12.5237 71.2718 13.1136C71.5469 13.7036 71.6845 14.3996 71.6845 15.2017C71.6845 16.0104 71.5469 16.7114 71.2718 17.3047C70.9967 17.8946 70.6156 18.352 70.1284 18.6768C69.6412 18.9983 69.0794 19.1591 68.443 19.1591C67.9525 19.1591 67.5597 19.0779 67.2647 18.9155C66.9698 18.7498 66.7427 18.5625 66.5836 18.3537C66.4245 18.1416 66.3019 17.9659 66.2157 17.8267H66.1163V21.8636H64.943ZM66.0964 15.1818C66.0964 15.7585 66.1809 16.2673 66.35 16.7081C66.519 17.1456 66.7659 17.4886 67.0907 17.7372C67.4155 17.9825 67.8133 18.1051 68.2839 18.1051C68.7744 18.1051 69.1838 17.9759 69.5119 17.7173C69.8433 17.4555 70.0919 17.1042 70.2576 16.6634C70.4267 16.2192 70.5112 15.7254 70.5112 15.1818C70.5112 14.6449 70.4283 14.161 70.2626 13.7301C70.1002 13.2959 69.8533 12.9529 69.5218 12.701C69.1937 12.4458 68.7811 12.3182 68.2839 12.3182C67.8066 12.3182 67.4056 12.4392 67.0808 12.6811C66.756 12.9197 66.5107 13.2545 66.345 13.6854C66.1793 14.1129 66.0964 14.6117 66.0964 15.1818ZM85.764 12H84.5311C84.4582 11.6454 84.3306 11.3338 84.1483 11.0653C83.9693 10.7969 83.7505 10.5715 83.492 10.3892C83.2368 10.2036 82.9534 10.0644 82.6419 9.97159C82.3303 9.87879 82.0055 9.83239 81.6674 9.83239C81.051 9.83239 80.4925 9.98816 79.992 10.2997C79.4949 10.6113 79.0988 11.0703 78.8038 11.6768C78.5121 12.2834 78.3663 13.0275 78.3663 13.9091C78.3663 14.7907 78.5121 15.5348 78.8038 16.1413C79.0988 16.7479 79.4949 17.2069 79.992 17.5185C80.4925 17.83 81.051 17.9858 81.6674 17.9858C82.0055 17.9858 82.3303 17.9394 82.6419 17.8466C82.9534 17.7538 83.2368 17.6162 83.492 17.4339C83.7505 17.2483 83.9693 17.0213 84.1483 16.7528C84.3306 16.4811 84.4582 16.1695 84.5311 15.8182H85.764C85.6712 16.3385 85.5022 16.8042 85.2569 17.2152C85.0117 17.6262 84.7067 17.9759 84.3422 18.2642C83.9776 18.5492 83.5682 18.7663 83.1142 18.9155C82.6634 19.0646 82.1812 19.1392 81.6674 19.1392C80.7991 19.1392 80.0268 18.9271 79.3507 18.5028C78.6745 18.0786 78.1426 17.4754 77.7548 16.6932C77.367 15.911 77.1731 14.983 77.1731 13.9091C77.1731 12.8352 77.367 11.9072 77.7548 11.125C78.1426 10.3428 78.6745 9.73958 79.3507 9.31534C80.0268 8.8911 80.7991 8.67898 81.6674 8.67898C82.1812 8.67898 82.6634 8.75355 83.1142 8.9027C83.5682 9.05185 83.9776 9.2706 84.3422 9.55895C84.7067 9.84399 85.0117 10.192 85.2569 10.603C85.5022 11.0107 85.6712 11.4763 85.764 12ZM88.7706 8.81818V19H87.5973V8.81818H88.7706ZM93.1667 19.179C92.6828 19.179 92.2437 19.0878 91.8493 18.9055C91.4548 18.7199 91.1416 18.4531 90.9096 18.1051C90.6776 17.7538 90.5616 17.3295 90.5616 16.8324C90.5616 16.3949 90.6478 16.0402 90.8201 15.7685C90.9925 15.4934 91.2228 15.2779 91.5112 15.1222C91.7995 14.9664 92.1177 14.8504 92.4657 14.7741C92.8171 14.6946 93.17 14.6316 93.5247 14.5852C93.9887 14.5256 94.3649 14.4808 94.6532 14.451C94.9449 14.4179 95.157 14.3632 95.2896 14.2869C95.4255 14.2107 95.4934 14.0781 95.4934 13.8892V13.8494C95.4934 13.3589 95.3592 12.9777 95.0907 12.706C94.8256 12.4342 94.4229 12.2983 93.8826 12.2983C93.3225 12.2983 92.8833 12.4209 92.5652 12.6662C92.247 12.9115 92.0233 13.1733 91.894 13.4517L90.7804 13.054C90.9792 12.59 91.2444 12.2287 91.5758 11.9702C91.9106 11.7083 92.2752 11.526 92.6696 11.4233C93.0673 11.3172 93.4584 11.2642 93.8429 11.2642C94.0881 11.2642 94.3699 11.294 94.688 11.3537C95.0095 11.41 95.3194 11.5277 95.6177 11.7067C95.9193 11.8857 96.1696 12.1558 96.3684 12.517C96.5673 12.8783 96.6667 13.3622 96.6667 13.9688V19H95.4934V17.9659H95.4338C95.3542 18.1316 95.2217 18.3089 95.036 18.4979C94.8504 18.6868 94.6035 18.8475 94.2953 18.9801C93.987 19.1127 93.6109 19.179 93.1667 19.179ZM93.3457 18.125C93.8097 18.125 94.2008 18.0339 94.519 17.8516C94.8405 17.6693 95.0824 17.4339 95.2449 17.1456C95.4106 16.8572 95.4934 16.554 95.4934 16.2358V15.1619C95.4437 15.2216 95.3343 15.2763 95.1653 15.326C94.9996 15.3724 94.8074 15.4138 94.5886 15.4503C94.3732 15.4834 94.1627 15.5133 93.9572 15.5398C93.755 15.563 93.591 15.5829 93.465 15.5994C93.1601 15.6392 92.8751 15.7038 92.6099 15.7933C92.3481 15.8795 92.1359 16.0104 91.9735 16.1861C91.8145 16.3584 91.7349 16.5937 91.7349 16.892C91.7349 17.2997 91.8857 17.608 92.1873 17.8168C92.4922 18.0223 92.8784 18.125 93.3457 18.125ZM104.217 13.0739L103.163 13.3722C103.097 13.1965 102.999 13.0258 102.87 12.8601C102.744 12.6911 102.572 12.5518 102.353 12.4425C102.134 12.3331 101.854 12.2784 101.513 12.2784C101.045 12.2784 100.656 12.3861 100.344 12.6016C100.036 12.8137 99.8821 13.0838 99.8821 13.4119C99.8821 13.7036 99.9882 13.9339 100.2 14.103C100.412 14.272 100.744 14.4129 101.195 14.5256L102.328 14.804C103.011 14.9697 103.52 15.2232 103.854 15.5646C104.189 15.9027 104.357 16.3385 104.357 16.8722C104.357 17.3097 104.231 17.7008 103.979 18.0455C103.73 18.3902 103.382 18.6619 102.935 18.8608C102.487 19.0597 101.967 19.1591 101.374 19.1591C100.595 19.1591 99.95 18.9901 99.4396 18.652C98.9292 18.3139 98.6061 17.8201 98.4702 17.1705L99.5838 16.892C99.6899 17.303 99.8904 17.6113 100.185 17.8168C100.484 18.0223 100.873 18.125 101.354 18.125C101.901 18.125 102.335 18.009 102.656 17.777C102.981 17.5417 103.143 17.2599 103.143 16.9318C103.143 16.6667 103.051 16.4446 102.865 16.2656C102.679 16.0833 102.394 15.9474 102.01 15.858L100.737 15.5597C100.038 15.3939 99.5241 15.1371 99.196 14.7891C98.8712 14.4377 98.7088 13.9986 98.7088 13.4716C98.7088 13.0407 98.8298 12.6596 99.0717 12.3281C99.317 11.9967 99.6501 11.7365 100.071 11.5476C100.495 11.3587 100.976 11.2642 101.513 11.2642C102.268 11.2642 102.862 11.4299 103.293 11.7614C103.727 12.0928 104.035 12.5303 104.217 13.0739ZM111.532 13.0739L110.478 13.3722C110.412 13.1965 110.314 13.0258 110.184 12.8601C110.059 12.6911 109.886 12.5518 109.667 12.4425C109.449 12.3331 109.169 12.2784 108.827 12.2784C108.36 12.2784 107.97 12.3861 107.659 12.6016C107.351 12.8137 107.197 13.0838 107.197 13.4119C107.197 13.7036 107.303 13.9339 107.515 14.103C107.727 14.272 108.058 14.4129 108.509 14.5256L109.643 14.804C110.325 14.9697 110.834 15.2232 111.169 15.5646C111.504 15.9027 111.671 16.3385 111.671 16.8722C111.671 17.3097 111.545 17.7008 111.293 18.0455C111.045 18.3902 110.697 18.6619 110.249 18.8608C109.802 19.0597 109.281 19.1591 108.688 19.1591C107.909 19.1591 107.265 18.9901 106.754 18.652C106.244 18.3139 105.921 17.8201 105.785 17.1705L106.898 16.892C107.004 17.303 107.205 17.6113 107.5 17.8168C107.798 18.0223 108.188 18.125 108.668 18.125C109.215 18.125 109.649 18.009 109.971 17.777C110.296 17.5417 110.458 17.2599 110.458 16.9318C110.458 16.6667 110.365 16.4446 110.18 16.2656C109.994 16.0833 109.709 15.9474 109.324 15.858L108.052 15.5597C107.352 15.3939 106.839 15.1371 106.51 14.7891C106.186 14.4377 106.023 13.9986 106.023 13.4716C106.023 13.0407 106.144 12.6596 106.386 12.3281C106.631 11.9967 106.965 11.7365 107.385 11.5476C107.81 11.3587 108.29 11.2642 108.827 11.2642C109.583 11.2642 110.176 11.4299 110.607 11.7614C111.041 12.0928 111.349 12.5303 111.532 13.0739ZM116.639 19.1591C115.903 19.1591 115.268 18.9967 114.735 18.6719C114.204 18.3438 113.795 17.8864 113.507 17.2997C113.222 16.7098 113.079 16.0237 113.079 15.2415C113.079 14.4593 113.222 13.7699 113.507 13.1733C113.795 12.5734 114.196 12.1061 114.71 11.7713C115.227 11.4332 115.83 11.2642 116.52 11.2642C116.917 11.2642 117.31 11.3305 117.698 11.4631C118.086 11.5956 118.439 11.8111 118.757 12.1094C119.075 12.4044 119.328 12.7955 119.517 13.2827C119.706 13.7699 119.801 14.3698 119.801 15.0824V15.5795H113.914V14.5653H118.608C118.608 14.1345 118.521 13.75 118.349 13.4119C118.18 13.0739 117.938 12.8071 117.623 12.6115C117.312 12.416 116.944 12.3182 116.52 12.3182C116.052 12.3182 115.648 12.4342 115.306 12.6662C114.968 12.8949 114.708 13.1932 114.526 13.5611C114.344 13.929 114.252 14.3234 114.252 14.7443V15.4205C114.252 15.9972 114.352 16.486 114.551 16.8871C114.753 17.2848 115.033 17.5881 115.391 17.7969C115.749 18.0024 116.165 18.1051 116.639 18.1051C116.947 18.1051 117.225 18.062 117.474 17.9759C117.726 17.8864 117.943 17.7538 118.125 17.5781C118.308 17.3991 118.449 17.1771 118.548 16.9119L119.681 17.2301C119.562 17.6146 119.362 17.9527 119.08 18.2443C118.798 18.5327 118.45 18.758 118.036 18.9205C117.622 19.0795 117.156 19.1591 116.639 19.1591ZM126.995 13.0739L125.941 13.3722C125.874 13.1965 125.777 13.0258 125.647 12.8601C125.521 12.6911 125.349 12.5518 125.13 12.4425C124.912 12.3331 124.632 12.2784 124.29 12.2784C123.823 12.2784 123.433 12.3861 123.122 12.6016C122.814 12.8137 122.659 13.0838 122.659 13.4119C122.659 13.7036 122.766 13.9339 122.978 14.103C123.19 14.272 123.521 14.4129 123.972 14.5256L125.105 14.804C125.788 14.9697 126.297 15.2232 126.632 15.5646C126.967 15.9027 127.134 16.3385 127.134 16.8722C127.134 17.3097 127.008 17.7008 126.756 18.0455C126.507 18.3902 126.159 18.6619 125.712 18.8608C125.265 19.0597 124.744 19.1591 124.151 19.1591C123.372 19.1591 122.727 18.9901 122.217 18.652C121.707 18.3139 121.383 17.8201 121.248 17.1705L122.361 16.892C122.467 17.303 122.668 17.6113 122.963 17.8168C123.261 18.0223 123.65 18.125 124.131 18.125C124.678 18.125 125.112 18.009 125.434 17.777C125.758 17.5417 125.921 17.2599 125.921 16.9318C125.921 16.6667 125.828 16.4446 125.642 16.2656C125.457 16.0833 125.172 15.9474 124.787 15.858L123.515 15.5597C122.815 15.3939 122.301 15.1371 121.973 14.7891C121.649 14.4377 121.486 13.9986 121.486 13.4716C121.486 13.0407 121.607 12.6596 121.849 12.3281C122.094 11.9967 122.427 11.7365 122.848 11.5476C123.273 11.3587 123.753 11.2642 124.29 11.2642C125.046 11.2642 125.639 11.4299 126.07 11.7614C126.504 12.0928 126.812 12.5303 126.995 13.0739Z" fill="#F5F5F5"/>
</svg>
