<svg width="153" height="28" viewBox="0 0 153 28" fill="none" xmlns="http://www.w3.org/2000/svg">
<path d="M0 14C0 6.26801 6.26801 0 14 0H139C146.732 0 153 6.26801 153 14C153 21.732 146.732 28 139 28H14C6.26801 28 0 21.732 0 14Z" fill="#343434"/>
<path d="M18.3667 18.0001L14.5667 14.2001L15.5167 13.2501L18.3667 16.1001L24.4833 9.9834L25.4333 10.9334L18.3667 18.0001Z" fill="#FF6C2E"/>
<path d="M33.233 19V8.81818H39.3381V9.91193H34.4659V13.3523H38.8807V14.446H34.4659V19H33.233ZM45.6246 15.8778V11.3636H46.7979V19H45.6246V17.7074H45.5451C45.3661 18.0952 45.0877 18.425 44.7099 18.6967C44.332 18.9652 43.8548 19.0994 43.2781 19.0994C42.8008 19.0994 42.3765 18.995 42.0053 18.7862C41.6341 18.5741 41.3424 18.2559 41.1303 17.8317C40.9182 17.4041 40.8121 16.8655 40.8121 16.2159V11.3636H41.9854V16.1364C41.9854 16.6932 42.1412 17.1373 42.4528 17.4688C42.7676 17.8002 43.1687 17.9659 43.6559 17.9659C43.9476 17.9659 44.2442 17.8913 44.5458 17.7422C44.8507 17.593 45.1059 17.3643 45.3114 17.0561C45.5202 16.7479 45.6246 16.3551 45.6246 15.8778ZM50.1202 8.81818V19H48.9469V8.81818H50.1202ZM53.4425 8.81818V19H52.2692V8.81818H53.4425ZM66.6483 12C66.5389 11.6652 66.3947 11.3653 66.2157 11.1001C66.0401 10.8317 65.8296 10.603 65.5843 10.4141C65.3424 10.2251 65.0673 10.081 64.7591 9.98153C64.4508 9.8821 64.1127 9.83239 63.7449 9.83239C63.1416 9.83239 62.5931 9.98816 62.0993 10.2997C61.6054 10.6113 61.2127 11.0703 60.921 11.6768C60.6293 12.2834 60.4835 13.0275 60.4835 13.9091C60.4835 14.7907 60.631 15.5348 60.926 16.1413C61.2209 16.7479 61.6203 17.2069 62.1241 17.5185C62.6279 17.83 63.1947 17.9858 63.8244 17.9858C64.4077 17.9858 64.9215 17.8615 65.3656 17.6129C65.813 17.361 66.161 17.0064 66.4096 16.549C66.6615 16.0883 66.7875 15.5464 66.7875 14.9233L67.1653 15.0028H64.1028V13.9091H67.9806V15.0028C67.9806 15.8414 67.8017 16.5705 67.4437 17.1903C67.0891 17.8101 66.5985 18.2907 65.9721 18.6321C65.349 18.9702 64.6331 19.1392 63.8244 19.1392C62.9229 19.1392 62.1307 18.9271 61.448 18.5028C60.7685 18.0786 60.2382 17.4754 59.8571 16.6932C59.4792 15.911 59.2903 14.983 59.2903 13.9091C59.2903 13.1037 59.398 12.3795 59.6135 11.7365C59.8322 11.0902 60.1404 10.54 60.5382 10.0859C60.9359 9.63187 61.4065 9.28385 61.9501 9.0419C62.4937 8.79995 63.0919 8.67898 63.7449 8.67898C64.2818 8.67898 64.7823 8.76018 65.2463 8.92258C65.7136 9.08168 66.1296 9.30871 66.4941 9.60369C66.862 9.89536 67.1686 10.245 67.4139 10.6527C67.6592 11.0571 67.8282 11.5062 67.921 12H66.6483ZM70.6889 21.8636C70.4901 21.8636 70.3127 21.8471 70.157 21.8139C70.0012 21.7841 69.8935 21.7543 69.8338 21.7244L70.1321 20.6903C70.4171 20.7633 70.669 20.7898 70.8878 20.7699C71.1065 20.75 71.3004 20.6522 71.4695 20.4766C71.6418 20.3042 71.7992 20.0241 71.9418 19.6364L72.1605 19.0398L69.3366 11.3636H70.6094L72.7173 17.4489H72.7969L74.9048 11.3636H76.1776L72.9361 20.1136C72.7902 20.508 72.6096 20.8345 72.3942 21.093C72.1787 21.3549 71.9285 21.5488 71.6435 21.6747C71.3617 21.8007 71.0436 21.8636 70.6889 21.8636ZM77.7262 19V11.3636H78.8597V12.5568H78.9592C79.1183 12.1491 79.3751 11.8326 79.7298 11.6072C80.0844 11.3786 80.5103 11.2642 81.0075 11.2642C81.5112 11.2642 81.9305 11.3786 82.2653 11.6072C82.6033 11.8326 82.8668 12.1491 83.0558 12.5568H83.1353C83.3308 12.1624 83.6242 11.8492 84.0153 11.6172C84.4064 11.3819 84.8754 11.2642 85.4222 11.2642C86.105 11.2642 86.6635 11.478 87.0977 11.9055C87.5318 12.3298 87.7489 12.991 87.7489 13.8892V19H86.5756V13.8892C86.5756 13.3258 86.4215 12.9231 86.1133 12.6811C85.805 12.4392 85.4421 12.3182 85.0245 12.3182C84.4876 12.3182 84.0716 12.4806 83.7766 12.8054C83.4817 13.1269 83.3342 13.5346 83.3342 14.0284V19H82.141V13.7699C82.141 13.3357 82.0001 12.986 81.7184 12.7209C81.4367 12.4524 81.0737 12.3182 80.6296 12.3182C80.3247 12.3182 80.0397 12.3994 79.7745 12.5618C79.5127 12.7242 79.3005 12.9496 79.1381 13.2379C78.979 13.523 78.8995 13.8527 78.8995 14.2273V19H77.7262ZM94.4084 19H93.1158L96.8544 8.81818H98.1271L101.866 19H100.573L97.5305 10.429H97.451L94.4084 19ZM94.8857 15.0227H100.096V16.1165H94.8857V15.0227ZM106.395 19.1591C105.679 19.1591 105.063 18.9901 104.545 18.652C104.028 18.3139 103.631 17.8482 103.352 17.255C103.074 16.6617 102.935 15.9839 102.935 15.2216C102.935 14.446 103.077 13.7616 103.362 13.1683C103.651 12.5717 104.052 12.1061 104.565 11.7713C105.082 11.4332 105.686 11.2642 106.375 11.2642C106.912 11.2642 107.396 11.3636 107.827 11.5625C108.258 11.7614 108.611 12.0398 108.886 12.3977C109.161 12.7557 109.331 13.1733 109.398 13.6506H108.224C108.135 13.3026 107.936 12.9943 107.628 12.7259C107.323 12.4541 106.912 12.3182 106.395 12.3182C105.938 12.3182 105.536 12.4375 105.192 12.6761C104.85 12.9115 104.584 13.2446 104.391 13.6754C104.202 14.103 104.108 14.6051 104.108 15.1818C104.108 15.7718 104.201 16.2855 104.386 16.723C104.575 17.1605 104.84 17.5002 105.182 17.7422C105.527 17.9841 105.931 18.1051 106.395 18.1051C106.7 18.1051 106.977 18.0521 107.225 17.946C107.474 17.84 107.684 17.6875 107.857 17.4886C108.029 17.2898 108.152 17.0511 108.224 16.7727H109.398C109.331 17.2235 109.167 17.6295 108.906 17.9908C108.647 18.3487 108.304 18.6338 107.876 18.8459C107.452 19.0547 106.958 19.1591 106.395 19.1591ZM114.215 19.1591C113.499 19.1591 112.883 18.9901 112.366 18.652C111.849 18.3139 111.451 17.8482 111.173 17.255C110.894 16.6617 110.755 15.9839 110.755 15.2216C110.755 14.446 110.897 13.7616 111.183 13.1683C111.471 12.5717 111.872 12.1061 112.386 11.7713C112.903 11.4332 113.506 11.2642 114.195 11.2642C114.732 11.2642 115.216 11.3636 115.647 11.5625C116.078 11.7614 116.431 12.0398 116.706 12.3977C116.981 12.7557 117.152 13.1733 117.218 13.6506H116.045C115.955 13.3026 115.756 12.9943 115.448 12.7259C115.143 12.4541 114.732 12.3182 114.215 12.3182C113.758 12.3182 113.357 12.4375 113.012 12.6761C112.671 12.9115 112.404 13.2446 112.212 13.6754C112.023 14.103 111.928 14.6051 111.928 15.1818C111.928 15.7718 112.021 16.2855 112.207 16.723C112.396 17.1605 112.661 17.5002 113.002 17.7422C113.347 17.9841 113.751 18.1051 114.215 18.1051C114.52 18.1051 114.797 18.0521 115.045 17.946C115.294 17.84 115.504 17.6875 115.677 17.4886C115.849 17.2898 115.972 17.0511 116.045 16.7727H117.218C117.152 17.2235 116.988 17.6295 116.726 17.9908C116.467 18.3487 116.124 18.6338 115.697 18.8459C115.272 19.0547 114.779 19.1591 114.215 19.1591ZM122.135 19.1591C121.399 19.1591 120.764 18.9967 120.231 18.6719C119.701 18.3438 119.291 17.8864 119.003 17.2997C118.718 16.7098 118.575 16.0237 118.575 15.2415C118.575 14.4593 118.718 13.7699 119.003 13.1733C119.291 12.5734 119.692 12.1061 120.206 11.7713C120.723 11.4332 121.326 11.2642 122.016 11.2642C122.413 11.2642 122.806 11.3305 123.194 11.4631C123.582 11.5956 123.935 11.8111 124.253 12.1094C124.571 12.4044 124.825 12.7955 125.013 13.2827C125.202 13.7699 125.297 14.3698 125.297 15.0824V15.5795H119.411V14.5653H124.104C124.104 14.1345 124.018 13.75 123.845 13.4119C123.676 13.0739 123.434 12.8071 123.119 12.6115C122.808 12.416 122.44 12.3182 122.016 12.3182C121.548 12.3182 121.144 12.4342 120.803 12.6662C120.464 12.8949 120.204 13.1932 120.022 13.5611C119.84 13.929 119.749 14.3234 119.749 14.7443V15.4205C119.749 15.9972 119.848 16.486 120.047 16.8871C120.249 17.2848 120.529 17.5881 120.887 17.7969C121.245 18.0024 121.661 18.1051 122.135 18.1051C122.443 18.1051 122.722 18.062 122.97 17.9759C123.222 17.8864 123.439 17.7538 123.621 17.5781C123.804 17.3991 123.945 17.1771 124.044 16.9119L125.178 17.2301C125.058 17.6146 124.858 17.9527 124.576 18.2443C124.294 18.5327 123.946 18.758 123.532 18.9205C123.118 19.0795 122.652 19.1591 122.135 19.1591ZM132.491 13.0739L131.437 13.3722C131.371 13.1965 131.273 13.0258 131.143 12.8601C131.018 12.6911 130.845 12.5518 130.626 12.4425C130.408 12.3331 130.128 12.2784 129.786 12.2784C129.319 12.2784 128.929 12.3861 128.618 12.6016C128.31 12.8137 128.156 13.0838 128.156 13.4119C128.156 13.7036 128.262 13.9339 128.474 14.103C128.686 14.272 129.017 14.4129 129.468 14.5256L130.602 14.804C131.284 14.9697 131.793 15.2232 132.128 15.5646C132.463 15.9027 132.63 16.3385 132.63 16.8722C132.63 17.3097 132.504 17.7008 132.252 18.0455C132.004 18.3902 131.656 18.6619 131.208 18.8608C130.761 19.0597 130.24 19.1591 129.647 19.1591C128.868 19.1591 128.223 18.9901 127.713 18.652C127.203 18.3139 126.879 17.8201 126.744 17.1705L127.857 16.892C127.963 17.303 128.164 17.6113 128.459 17.8168C128.757 18.0223 129.147 18.125 129.627 18.125C130.174 18.125 130.608 18.009 130.93 17.777C131.254 17.5417 131.417 17.2599 131.417 16.9318C131.417 16.6667 131.324 16.4446 131.138 16.2656C130.953 16.0833 130.668 15.9474 130.283 15.858L129.011 15.5597C128.311 15.3939 127.798 15.1371 127.469 14.7891C127.145 14.4377 126.982 13.9986 126.982 13.4716C126.982 13.0407 127.103 12.6596 127.345 12.3281C127.59 11.9967 127.924 11.7365 128.344 11.5476C128.769 11.3587 129.249 11.2642 129.786 11.2642C130.542 11.2642 131.135 11.4299 131.566 11.7614C132 12.0928 132.308 12.5303 132.491 13.0739ZM139.805 13.0739L138.751 13.3722C138.685 13.1965 138.587 13.0258 138.458 12.8601C138.332 12.6911 138.16 12.5518 137.941 12.4425C137.722 12.3331 137.442 12.2784 137.101 12.2784C136.633 12.2784 136.244 12.3861 135.932 12.6016C135.624 12.8137 135.47 13.0838 135.47 13.4119C135.47 13.7036 135.576 13.9339 135.788 14.103C136 14.272 136.332 14.4129 136.782 14.5256L137.916 14.804C138.599 14.9697 139.108 15.2232 139.442 15.5646C139.777 15.9027 139.944 16.3385 139.944 16.8722C139.944 17.3097 139.818 17.7008 139.567 18.0455C139.318 18.3902 138.97 18.6619 138.523 18.8608C138.075 19.0597 137.555 19.1591 136.961 19.1591C136.183 19.1591 135.538 18.9901 135.028 18.652C134.517 18.3139 134.194 17.8201 134.058 17.1705L135.172 16.892C135.278 17.303 135.478 17.6113 135.773 17.8168C136.072 18.0223 136.461 18.125 136.942 18.125C137.488 18.125 137.923 18.009 138.244 17.777C138.569 17.5417 138.731 17.2599 138.731 16.9318C138.731 16.6667 138.639 16.4446 138.453 16.2656C138.267 16.0833 137.982 15.9474 137.598 15.858L136.325 15.5597C135.626 15.3939 135.112 15.1371 134.784 14.7891C134.459 14.4377 134.297 13.9986 134.297 13.4716C134.297 13.0407 134.418 12.6596 134.66 12.3281C134.905 11.9967 135.238 11.7365 135.659 11.5476C136.083 11.3587 136.564 11.2642 137.101 11.2642C137.856 11.2642 138.45 11.4299 138.881 11.7614C139.315 12.0928 139.623 12.5303 139.805 13.0739Z" fill="#F5F5F5"/>
</svg>
