<svg width="186" height="28" viewBox="0 0 186 28" fill="none" xmlns="http://www.w3.org/2000/svg">
<path d="M0 14C0 6.26801 6.26801 0 14 0H172C179.732 0 186 6.26801 186 14C186 21.732 179.732 28 172 28H14C6.26801 28 0 21.732 0 14Z" fill="#343434"/>
<path d="M18.3667 18.0001L14.5667 14.2001L15.5167 13.2501L18.3667 16.1001L24.4833 9.9834L25.4333 10.9334L18.3667 18.0001Z" fill="#FF6C2E"/>
<path d="M33.233 19V8.81818H36.6733C37.4721 8.81818 38.125 8.96236 38.6321 9.25071C39.1425 9.53575 39.5204 9.92188 39.7656 10.4091C40.0109 10.8963 40.1335 11.4399 40.1335 12.0398C40.1335 12.6397 40.0109 13.1849 39.7656 13.6754C39.5237 14.166 39.1491 14.5571 38.642 14.8487C38.1349 15.1371 37.4853 15.2812 36.6932 15.2812H34.2273V14.1875H36.6534C37.2003 14.1875 37.6394 14.093 37.9709 13.9041C38.3023 13.7152 38.5426 13.46 38.6918 13.1385C38.8442 12.8137 38.9205 12.4474 38.9205 12.0398C38.9205 11.6321 38.8442 11.2675 38.6918 10.946C38.5426 10.6245 38.3007 10.3726 37.9659 10.1903C37.6312 10.0047 37.187 9.91193 36.6335 9.91193H34.4659V19H33.233ZM45.0803 19.1591C44.3445 19.1591 43.7098 18.9967 43.1761 18.6719C42.6458 18.3438 42.2365 17.8864 41.9482 17.2997C41.6631 16.7098 41.5206 16.0237 41.5206 15.2415C41.5206 14.4593 41.6631 13.7699 41.9482 13.1733C42.2365 12.5734 42.6375 12.1061 43.1513 11.7713C43.6683 11.4332 44.2715 11.2642 44.9609 11.2642C45.3587 11.2642 45.7514 11.3305 46.1392 11.4631C46.527 11.5956 46.88 11.8111 47.1982 12.1094C47.5163 12.4044 47.7699 12.7955 47.9588 13.2827C48.1477 13.7699 48.2422 14.3698 48.2422 15.0824V15.5795H42.3558V14.5653H47.049C47.049 14.1345 46.9628 13.75 46.7905 13.4119C46.6214 13.0739 46.3795 12.8071 46.0646 12.6115C45.7531 12.416 45.3852 12.3182 44.9609 12.3182C44.4936 12.3182 44.0893 12.4342 43.7479 12.6662C43.4098 12.8949 43.1496 13.1932 42.9673 13.5611C42.785 13.929 42.6939 14.3234 42.6939 14.7443V15.4205C42.6939 15.9972 42.7933 16.486 42.9922 16.8871C43.1944 17.2848 43.4744 17.5881 43.8324 17.7969C44.1903 18.0024 44.6063 18.1051 45.0803 18.1051C45.3885 18.1051 45.6669 18.062 45.9155 17.9759C46.1674 17.8864 46.3845 17.7538 46.5668 17.5781C46.7491 17.3991 46.8899 17.1771 46.9893 16.9119L48.1229 17.2301C48.0036 17.6146 47.803 17.9527 47.5213 18.2443C47.2396 18.5327 46.8916 18.758 46.4773 18.9205C46.063 19.0795 45.5973 19.1591 45.0803 19.1591ZM50.027 19V11.3636H51.1605V12.517H51.2401C51.3793 12.1392 51.6312 11.8326 51.9957 11.5973C52.3603 11.362 52.7713 11.2443 53.2287 11.2443C53.3149 11.2443 53.4226 11.246 53.5518 11.2493C53.6811 11.2526 53.7789 11.2576 53.8452 11.2642V12.4574C53.8054 12.4474 53.7143 12.4325 53.5717 12.4126C53.4325 12.3894 53.285 12.3778 53.1293 12.3778C52.758 12.3778 52.4266 12.4557 52.1349 12.6115C51.8466 12.764 51.6179 12.9761 51.4489 13.2479C51.2831 13.5163 51.2003 13.8229 51.2003 14.1676V19H50.027ZM60.6451 13.0739L59.5911 13.3722C59.5248 13.1965 59.427 13.0258 59.2978 12.8601C59.1718 12.6911 58.9995 12.5518 58.7807 12.4425C58.562 12.3331 58.2819 12.2784 57.9405 12.2784C57.4732 12.2784 57.0837 12.3861 56.7722 12.6016C56.464 12.8137 56.3098 13.0838 56.3098 13.4119C56.3098 13.7036 56.4159 13.9339 56.628 14.103C56.8401 14.272 57.1716 14.4129 57.6223 14.5256L58.7559 14.804C59.4386 14.9697 59.9474 15.2232 60.2821 15.5646C60.6169 15.9027 60.7843 16.3385 60.7843 16.8722C60.7843 17.3097 60.6583 17.7008 60.4064 18.0455C60.1578 18.3902 59.8098 18.6619 59.3624 18.8608C58.915 19.0597 58.3946 19.1591 57.8013 19.1591C57.0224 19.1591 56.3778 18.9901 55.8674 18.652C55.3569 18.3139 55.0338 17.8201 54.8979 17.1705L56.0115 16.892C56.1176 17.303 56.3181 17.6113 56.6131 17.8168C56.9114 18.0223 57.3008 18.125 57.7814 18.125C58.3283 18.125 58.7625 18.009 59.084 17.777C59.4088 17.5417 59.5712 17.2599 59.5712 16.9318C59.5712 16.6667 59.4784 16.4446 59.2928 16.2656C59.1072 16.0833 58.8221 15.9474 58.4377 15.858L57.165 15.5597C56.4656 15.3939 55.9519 15.1371 55.6238 14.7891C55.2989 14.4377 55.1365 13.9986 55.1365 13.4716C55.1365 13.0407 55.2575 12.6596 55.4995 12.3281C55.7447 11.9967 56.0778 11.7365 56.4988 11.5476C56.923 11.3587 57.4036 11.2642 57.9405 11.2642C58.6962 11.2642 59.2895 11.4299 59.7203 11.7614C60.1545 12.0928 60.4628 12.5303 60.6451 13.0739ZM65.6527 19.1591C64.9633 19.1591 64.3584 18.995 63.8381 18.6669C63.321 18.3388 62.9167 17.8797 62.625 17.2898C62.3366 16.6998 62.1925 16.0104 62.1925 15.2216C62.1925 14.4261 62.3366 13.7318 62.625 13.1385C62.9167 12.5452 63.321 12.0845 63.8381 11.7564C64.3584 11.4283 64.9633 11.2642 65.6527 11.2642C66.3421 11.2642 66.9453 11.4283 67.4624 11.7564C67.9827 12.0845 68.3871 12.5452 68.6754 13.1385C68.9671 13.7318 69.1129 14.4261 69.1129 15.2216C69.1129 16.0104 68.9671 16.6998 68.6754 17.2898C68.3871 17.8797 67.9827 18.3388 67.4624 18.6669C66.9453 18.995 66.3421 19.1591 65.6527 19.1591ZM65.6527 18.1051C66.1764 18.1051 66.6072 17.9709 66.9453 17.7024C67.2834 17.4339 67.5336 17.081 67.696 16.6435C67.8584 16.206 67.9396 15.732 67.9396 15.2216C67.9396 14.7112 67.8584 14.2356 67.696 13.7947C67.5336 13.3539 67.2834 12.9976 66.9453 12.7259C66.6072 12.4541 66.1764 12.3182 65.6527 12.3182C65.129 12.3182 64.6982 12.4541 64.3601 12.7259C64.022 12.9976 63.7718 13.3539 63.6094 13.7947C63.447 14.2356 63.3658 14.7112 63.3658 15.2216C63.3658 15.732 63.447 16.206 63.6094 16.6435C63.7718 17.081 64.022 17.4339 64.3601 17.7024C64.6982 17.9709 65.129 18.1051 65.6527 18.1051ZM72.0772 14.4062V19H70.9039V11.3636H72.0375V12.5568H72.1369C72.3159 12.169 72.5877 11.8575 72.9522 11.6222C73.3168 11.3835 73.7875 11.2642 74.3642 11.2642C74.8812 11.2642 75.3336 11.3703 75.7214 11.5824C76.1092 11.7912 76.4108 12.1094 76.6262 12.5369C76.8417 12.9612 76.9494 13.4981 76.9494 14.1477V19H75.7761V14.2273C75.7761 13.6274 75.6203 13.16 75.3088 12.8253C74.9972 12.4872 74.5697 12.3182 74.0261 12.3182C73.6516 12.3182 73.3168 12.3994 73.0218 12.5618C72.7302 12.7242 72.4998 12.9612 72.3308 13.2727C72.1618 13.5843 72.0772 13.9621 72.0772 14.4062ZM81.3406 19.179C80.8567 19.179 80.4175 19.0878 80.0231 18.9055C79.6287 18.7199 79.3155 18.4531 79.0835 18.1051C78.8514 17.7538 78.7354 17.3295 78.7354 16.8324C78.7354 16.3949 78.8216 16.0402 78.994 15.7685C79.1663 15.4934 79.3967 15.2779 79.685 15.1222C79.9734 14.9664 80.2915 14.8504 80.6396 14.7741C80.9909 14.6946 81.3439 14.6316 81.6985 14.5852C82.1625 14.5256 82.5387 14.4808 82.8271 14.451C83.1187 14.4179 83.3308 14.3632 83.4634 14.2869C83.5993 14.2107 83.6673 14.0781 83.6673 13.8892V13.8494C83.6673 13.3589 83.533 12.9777 83.2646 12.706C82.9994 12.4342 82.5967 12.2983 82.0565 12.2983C81.4963 12.2983 81.0572 12.4209 80.739 12.6662C80.4208 12.9115 80.1971 13.1733 80.0678 13.4517L78.9542 13.054C79.1531 12.59 79.4182 12.2287 79.7496 11.9702C80.0844 11.7083 80.449 11.526 80.8434 11.4233C81.2411 11.3172 81.6322 11.2642 82.0167 11.2642C82.262 11.2642 82.5437 11.294 82.8619 11.3537C83.1834 11.41 83.4933 11.5277 83.7915 11.7067C84.0932 11.8857 84.3434 12.1558 84.5423 12.517C84.7411 12.8783 84.8406 13.3622 84.8406 13.9688V19H83.6673V17.9659H83.6076C83.5281 18.1316 83.3955 18.3089 83.2099 18.4979C83.0243 18.6868 82.7773 18.8475 82.4691 18.9801C82.1609 19.1127 81.7847 19.179 81.3406 19.179ZM81.5195 18.125C81.9835 18.125 82.3746 18.0339 82.6928 17.8516C83.0143 17.6693 83.2563 17.4339 83.4187 17.1456C83.5844 16.8572 83.6673 16.554 83.6673 16.2358V15.1619C83.6175 15.2216 83.5082 15.2763 83.3391 15.326C83.1734 15.3724 82.9812 15.4138 82.7624 15.4503C82.547 15.4834 82.3365 15.5133 82.131 15.5398C81.9289 15.563 81.7648 15.5829 81.6388 15.5994C81.3339 15.6392 81.0489 15.7038 80.7837 15.7933C80.5219 15.8795 80.3098 16.0104 80.1474 16.1861C79.9883 16.3584 79.9087 16.5937 79.9087 16.892C79.9087 17.2997 80.0595 17.608 80.3612 17.8168C80.6661 18.0223 81.0522 18.125 81.5195 18.125ZM88.1554 8.81818V19H86.9821V8.81818H88.1554ZM90.3043 19V11.3636H91.4776V19H90.3043ZM90.9009 10.0909C90.6722 10.0909 90.475 10.013 90.3093 9.85724C90.1469 9.70147 90.0657 9.5142 90.0657 9.29545C90.0657 9.0767 90.1469 8.88944 90.3093 8.73366C90.475 8.57789 90.6722 8.5 90.9009 8.5C91.1296 8.5 91.3252 8.57789 91.4876 8.73366C91.6533 8.88944 91.7362 9.0767 91.7362 9.29545C91.7362 9.5142 91.6533 9.70147 91.4876 9.85724C91.3252 10.013 91.1296 10.0909 90.9009 10.0909ZM93.4078 19V18.1051L97.7431 12.5369V12.4574H93.5471V11.3636H99.2544V12.2983L95.0385 17.8267V17.9062H99.3936V19H93.4078ZM104.184 19.1591C103.448 19.1591 102.813 18.9967 102.28 18.6719C101.749 18.3438 101.34 17.8864 101.052 17.2997C100.767 16.7098 100.624 16.0237 100.624 15.2415C100.624 14.4593 100.767 13.7699 101.052 13.1733C101.34 12.5734 101.741 12.1061 102.255 11.7713C102.772 11.4332 103.375 11.2642 104.064 11.2642C104.462 11.2642 104.855 11.3305 105.243 11.4631C105.631 11.5956 105.983 11.8111 106.302 12.1094C106.62 12.4044 106.873 12.7955 107.062 13.2827C107.251 13.7699 107.346 14.3698 107.346 15.0824V15.5795H101.459V14.5653H106.153C106.153 14.1345 106.066 13.75 105.894 13.4119C105.725 13.0739 105.483 12.8071 105.168 12.6115C104.857 12.416 104.489 12.3182 104.064 12.3182C103.597 12.3182 103.193 12.4342 102.851 12.6662C102.513 12.8949 102.253 13.1932 102.071 13.5611C101.889 13.929 101.797 14.3234 101.797 14.7443V15.4205C101.797 15.9972 101.897 16.486 102.096 16.8871C102.298 17.2848 102.578 17.5881 102.936 17.7969C103.294 18.0024 103.71 18.1051 104.184 18.1051C104.492 18.1051 104.77 18.062 105.019 17.9759C105.271 17.8864 105.488 17.7538 105.67 17.5781C105.853 17.3991 105.993 17.1771 106.093 16.9119L107.226 17.2301C107.107 17.6146 106.907 17.9527 106.625 18.2443C106.343 18.5327 105.995 18.758 105.581 18.9205C105.166 19.0795 104.701 19.1591 104.184 19.1591ZM112.014 19.1591C111.378 19.1591 110.816 18.9983 110.329 18.6768C109.841 18.352 109.46 17.8946 109.185 17.3047C108.91 16.7114 108.773 16.0104 108.773 15.2017C108.773 14.3996 108.91 13.7036 109.185 13.1136C109.46 12.5237 109.843 12.0679 110.334 11.7464C110.824 11.425 111.391 11.2642 112.034 11.2642C112.531 11.2642 112.924 11.3471 113.212 11.5128C113.504 11.6752 113.726 11.8608 113.878 12.0696C114.034 12.2751 114.155 12.4441 114.241 12.5767H114.341V8.81818H115.514V19H114.381V17.8267H114.241C114.155 17.9659 114.032 18.1416 113.873 18.3537C113.714 18.5625 113.487 18.7498 113.192 18.9155C112.897 19.0779 112.505 19.1591 112.014 19.1591ZM112.173 18.1051C112.644 18.1051 113.041 17.9825 113.366 17.7372C113.691 17.4886 113.938 17.1456 114.107 16.7081C114.276 16.2673 114.361 15.7585 114.361 15.1818C114.361 14.6117 114.278 14.1129 114.112 13.6854C113.946 13.2545 113.701 12.9197 113.376 12.6811C113.051 12.4392 112.65 12.3182 112.173 12.3182C111.676 12.3182 111.262 12.4458 110.93 12.701C110.602 12.9529 110.355 13.2959 110.189 13.7301C110.027 14.161 109.946 14.6449 109.946 15.1818C109.946 15.7254 110.029 16.2192 110.194 16.6634C110.363 17.1042 110.612 17.4555 110.94 17.7173C111.272 17.9759 111.683 18.1051 112.173 18.1051ZM121.366 9.91193V8.81818H129.002V9.91193H125.8V19H124.567V9.91193H121.366ZM129.953 19V11.3636H131.086V12.517H131.166C131.305 12.1392 131.557 11.8326 131.922 11.5973C132.286 11.362 132.697 11.2443 133.154 11.2443C133.241 11.2443 133.348 11.246 133.478 11.2493C133.607 11.2526 133.705 11.2576 133.771 11.2642V12.4574C133.731 12.4474 133.64 12.4325 133.498 12.4126C133.358 12.3894 133.211 12.3778 133.055 12.3778C132.684 12.3778 132.352 12.4557 132.061 12.6115C131.772 12.764 131.544 12.9761 131.375 13.2479C131.209 13.5163 131.126 13.8229 131.126 14.1676V19H129.953ZM137.409 19.179C136.925 19.179 136.486 19.0878 136.091 18.9055C135.697 18.7199 135.384 18.4531 135.152 18.1051C134.92 17.7538 134.804 17.3295 134.804 16.8324C134.804 16.3949 134.89 16.0402 135.062 15.7685C135.235 15.4934 135.465 15.2779 135.753 15.1222C136.042 14.9664 136.36 14.8504 136.708 14.7741C137.059 14.6946 137.412 14.6316 137.767 14.5852C138.231 14.5256 138.607 14.4808 138.895 14.451C139.187 14.4179 139.399 14.3632 139.532 14.2869C139.668 14.2107 139.736 14.0781 139.736 13.8892V13.8494C139.736 13.3589 139.601 12.9777 139.333 12.706C139.068 12.4342 138.665 12.2983 138.125 12.2983C137.565 12.2983 137.126 12.4209 136.807 12.6662C136.489 12.9115 136.265 13.1733 136.136 13.4517L135.023 13.054C135.221 12.59 135.487 12.2287 135.818 11.9702C136.153 11.7083 136.517 11.526 136.912 11.4233C137.309 11.3172 137.701 11.2642 138.085 11.2642C138.33 11.2642 138.612 11.294 138.93 11.3537C139.252 11.41 139.562 11.5277 139.86 11.7067C140.162 11.8857 140.412 12.1558 140.611 12.517C140.809 12.8783 140.909 13.3622 140.909 13.9688V19H139.736V17.9659H139.676C139.596 18.1316 139.464 18.3089 139.278 18.4979C139.093 18.6868 138.846 18.8475 138.537 18.9801C138.229 19.1127 137.853 19.179 137.409 19.179ZM137.588 18.125C138.052 18.125 138.443 18.0339 138.761 17.8516C139.083 17.6693 139.325 17.4339 139.487 17.1456C139.653 16.8572 139.736 16.554 139.736 16.2358V15.1619C139.686 15.2216 139.577 15.2763 139.407 15.326C139.242 15.3724 139.05 15.4138 138.831 15.4503C138.615 15.4834 138.405 15.5133 138.199 15.5398C137.997 15.563 137.833 15.5829 137.707 15.5994C137.402 15.6392 137.117 15.7038 136.852 15.7933C136.59 15.8795 136.378 16.0104 136.216 16.1861C136.057 16.3584 135.977 16.5937 135.977 16.892C135.977 17.2997 136.128 17.608 136.43 17.8168C136.734 18.0223 137.121 18.125 137.588 18.125ZM143.05 19V11.3636H144.224V19H143.05ZM143.647 10.0909C143.418 10.0909 143.221 10.013 143.055 9.85724C142.893 9.70147 142.812 9.5142 142.812 9.29545C142.812 9.0767 142.893 8.88944 143.055 8.73366C143.221 8.57789 143.418 8.5 143.647 8.5C143.876 8.5 144.071 8.57789 144.234 8.73366C144.399 8.88944 144.482 9.0767 144.482 9.29545C144.482 9.5142 144.399 9.70147 144.234 9.85724C144.071 10.013 143.876 10.0909 143.647 10.0909ZM147.546 14.4062V19H146.373V11.3636H147.506V12.5568H147.606C147.785 12.169 148.056 11.8575 148.421 11.6222C148.786 11.3835 149.256 11.2642 149.833 11.2642C150.35 11.2642 150.802 11.3703 151.19 11.5824C151.578 11.7912 151.88 12.1094 152.095 12.5369C152.31 12.9612 152.418 13.4981 152.418 14.1477V19H151.245V14.2273C151.245 13.6274 151.089 13.16 150.778 12.8253C150.466 12.4872 150.038 12.3182 149.495 12.3182C149.12 12.3182 148.786 12.3994 148.491 12.5618C148.199 12.7242 147.969 12.9612 147.8 13.2727C147.631 13.5843 147.546 13.9621 147.546 14.4062ZM154.562 19V11.3636H155.735V19H154.562ZM155.159 10.0909C154.93 10.0909 154.733 10.013 154.567 9.85724C154.405 9.70147 154.324 9.5142 154.324 9.29545C154.324 9.0767 154.405 8.88944 154.567 8.73366C154.733 8.57789 154.93 8.5 155.159 8.5C155.387 8.5 155.583 8.57789 155.745 8.73366C155.911 8.88944 155.994 9.0767 155.994 9.29545C155.994 9.5142 155.911 9.70147 155.745 9.85724C155.583 10.013 155.387 10.0909 155.159 10.0909ZM159.058 14.4062V19H157.884V11.3636H159.018V12.5568H159.117C159.296 12.169 159.568 11.8575 159.933 11.6222C160.297 11.3835 160.768 11.2642 161.345 11.2642C161.862 11.2642 162.314 11.3703 162.702 11.5824C163.09 11.7912 163.391 12.1094 163.607 12.5369C163.822 12.9612 163.93 13.4981 163.93 14.1477V19H162.757V14.2273C162.757 13.6274 162.601 13.16 162.289 12.8253C161.978 12.4872 161.55 12.3182 161.007 12.3182C160.632 12.3182 160.297 12.3994 160.002 12.5618C159.711 12.7242 159.48 12.9612 159.311 13.2727C159.142 13.5843 159.058 13.9621 159.058 14.4062ZM169.156 22.0227C168.589 22.0227 168.102 21.9498 167.695 21.804C167.287 21.6615 166.947 21.4725 166.675 21.2372C166.407 21.0052 166.193 20.7566 166.034 20.4915L166.969 19.8352C167.075 19.9744 167.209 20.1335 167.371 20.3125C167.534 20.4948 167.756 20.6522 168.038 20.7848C168.323 20.9207 168.696 20.9886 169.156 20.9886C169.773 20.9886 170.281 20.8395 170.683 20.5412C171.084 20.2429 171.284 19.7756 171.284 19.1392V17.5881H171.185C171.098 17.7273 170.976 17.8996 170.817 18.1051C170.661 18.3073 170.436 18.4879 170.141 18.647C169.849 18.8028 169.455 18.8807 168.957 18.8807C168.341 18.8807 167.787 18.7348 167.297 18.4432C166.81 18.1515 166.424 17.7273 166.138 17.1705C165.857 16.6136 165.716 15.9375 165.716 15.142C165.716 14.3598 165.853 13.6787 166.129 13.0987C166.404 12.5154 166.786 12.0646 167.277 11.7464C167.768 11.425 168.334 11.2642 168.977 11.2642C169.474 11.2642 169.869 11.3471 170.161 11.5128C170.455 11.6752 170.681 11.8608 170.837 12.0696C170.996 12.2751 171.118 12.4441 171.205 12.5767H171.324V11.3636H172.457V19.2188C172.457 19.875 172.308 20.4086 172.01 20.8196C171.715 21.2339 171.317 21.5372 170.817 21.7294C170.32 21.925 169.766 22.0227 169.156 22.0227ZM169.116 17.8267C169.587 17.8267 169.985 17.719 170.31 17.5036C170.634 17.2881 170.881 16.9782 171.05 16.5739C171.219 16.1695 171.304 15.6856 171.304 15.1222C171.304 14.572 171.221 14.0864 171.055 13.6655C170.89 13.2446 170.644 12.9148 170.32 12.6761C169.995 12.4375 169.594 12.3182 169.116 12.3182C168.619 12.3182 168.205 12.4441 167.874 12.696C167.545 12.9479 167.299 13.286 167.133 13.7102C166.97 14.1345 166.889 14.6051 166.889 15.1222C166.889 15.6525 166.972 16.1214 167.138 16.5291C167.307 16.9335 167.555 17.2517 167.884 17.4837C168.215 17.7124 168.626 17.8267 169.116 17.8267Z" fill="#F5F5F5"/>
</svg>
