<svg width="189" height="28" viewBox="0 0 189 28" fill="none" xmlns="http://www.w3.org/2000/svg">
<path d="M0 14C0 6.26801 6.26801 0 14 0H175C182.732 0 189 6.26801 189 14C189 21.732 182.732 28 175 28H14C6.26802 28 0 21.732 0 14Z" fill="#343434"/>
<path d="M18.3667 18.0001L14.5667 14.2001L15.5167 13.2501L18.3667 16.1001L24.4833 9.9834L25.4333 10.9334L18.3667 18.0001Z" fill="#FF6C2E"/>
<path d="M41.3068 8.81818V19H40.1136L34.5653 11.0057H34.4659V19H33.233V8.81818H34.4261L39.9943 16.8324H40.0938V8.81818H41.3068ZM48.4274 15.8778V11.3636H49.6007V19H48.4274V17.7074H48.3478C48.1689 18.0952 47.8904 18.425 47.5126 18.6967C47.1348 18.9652 46.6575 19.0994 46.0808 19.0994C45.6035 19.0994 45.1793 18.995 44.8081 18.7862C44.4368 18.5741 44.1452 18.2559 43.9331 17.8317C43.7209 17.4041 43.6149 16.8655 43.6149 16.2159V11.3636H44.7882V16.1364C44.7882 16.6932 44.944 17.1373 45.2555 17.4688C45.5704 17.8002 45.9714 17.9659 46.4586 17.9659C46.7503 17.9659 47.0469 17.8913 47.3485 17.7422C47.6535 17.593 47.9087 17.3643 48.1142 17.0561C48.323 16.7479 48.4274 16.3551 48.4274 15.8778ZM55.0707 11.3636V12.358H51.1133V11.3636H55.0707ZM52.2667 9.53409H53.44V16.8125C53.44 17.1439 53.488 17.3925 53.5842 17.5582C53.6836 17.7206 53.8095 17.83 53.962 17.8864C54.1178 17.9394 54.2818 17.9659 54.4542 17.9659C54.5835 17.9659 54.6895 17.9593 54.7724 17.946C54.8552 17.9295 54.9215 17.9162 54.9712 17.9062L55.2099 18.9602C55.1303 18.9901 55.0193 19.0199 54.8768 19.0497C54.7343 19.0829 54.5536 19.0994 54.3349 19.0994C54.0034 19.0994 53.6786 19.0282 53.3604 18.8857C53.0456 18.7431 52.7837 18.526 52.5749 18.2344C52.3694 17.9427 52.2667 17.5748 52.2667 17.1307V9.53409ZM56.8356 19V11.3636H57.9691V12.517H58.0487C58.1879 12.1392 58.4397 11.8326 58.8043 11.5973C59.1689 11.362 59.5799 11.2443 60.0373 11.2443C60.1235 11.2443 60.2312 11.246 60.3604 11.2493C60.4897 11.2526 60.5875 11.2576 60.6538 11.2642V12.4574C60.614 12.4474 60.5228 12.4325 60.3803 12.4126C60.2411 12.3894 60.0936 12.3778 59.9379 12.3778C59.5666 12.3778 59.2352 12.4557 58.9435 12.6115C58.6552 12.764 58.4265 12.9761 58.2575 13.2479C58.0917 13.5163 58.0089 13.8229 58.0089 14.1676V19H56.8356ZM62.0446 19V11.3636H63.2179V19H62.0446ZM62.6412 10.0909C62.4125 10.0909 62.2153 10.013 62.0495 9.85724C61.8871 9.70147 61.8059 9.5142 61.8059 9.29545C61.8059 9.0767 61.8871 8.88944 62.0495 8.73366C62.2153 8.57789 62.4125 8.5 62.6412 8.5C62.8699 8.5 63.0654 8.57789 63.2278 8.73366C63.3935 8.88944 63.4764 9.0767 63.4764 9.29545C63.4764 9.5142 63.3935 9.70147 63.2278 9.85724C63.0654 10.013 62.8699 10.0909 62.6412 10.0909ZM68.6879 11.3636V12.358H64.7305V11.3636H68.6879ZM65.8839 9.53409H67.0572V16.8125C67.0572 17.1439 67.1052 17.3925 67.2013 17.5582C67.3008 17.7206 67.4267 17.83 67.5792 17.8864C67.735 17.9394 67.899 17.9659 68.0714 17.9659C68.2006 17.9659 68.3067 17.9593 68.3896 17.946C68.4724 17.9295 68.5387 17.9162 68.5884 17.9062L68.8271 18.9602C68.7475 18.9901 68.6365 19.0199 68.494 19.0497C68.3514 19.0829 68.1708 19.0994 67.9521 19.0994C67.6206 19.0994 67.2958 19.0282 66.9776 18.8857C66.6628 18.7431 66.4009 18.526 66.1921 18.2344C65.9866 17.9427 65.8839 17.5748 65.8839 17.1307V9.53409ZM70.4528 19V11.3636H71.6261V19H70.4528ZM71.0494 10.0909C70.8207 10.0909 70.6235 10.013 70.4577 9.85724C70.2953 9.70147 70.2141 9.5142 70.2141 9.29545C70.2141 9.0767 70.2953 8.88944 70.4577 8.73366C70.6235 8.57789 70.8207 8.5 71.0494 8.5C71.2781 8.5 71.4736 8.57789 71.636 8.73366C71.8017 8.88944 71.8846 9.0767 71.8846 9.29545C71.8846 9.5142 71.8017 9.70147 71.636 9.85724C71.4736 10.013 71.2781 10.0909 71.0494 10.0909ZM76.8773 19.1591C76.1879 19.1591 75.583 18.995 75.0627 18.6669C74.5456 18.3388 74.1413 17.8797 73.8496 17.2898C73.5613 16.6998 73.4171 16.0104 73.4171 15.2216C73.4171 14.4261 73.5613 13.7318 73.8496 13.1385C74.1413 12.5452 74.5456 12.0845 75.0627 11.7564C75.583 11.4283 76.1879 11.2642 76.8773 11.2642C77.5667 11.2642 78.1699 11.4283 78.687 11.7564C79.2073 12.0845 79.6117 12.5452 79.9 13.1385C80.1917 13.7318 80.3375 14.4261 80.3375 15.2216C80.3375 16.0104 80.1917 16.6998 79.9 17.2898C79.6117 17.8797 79.2073 18.3388 78.687 18.6669C78.1699 18.995 77.5667 19.1591 76.8773 19.1591ZM76.8773 18.1051C77.401 18.1051 77.8319 17.9709 78.1699 17.7024C78.508 17.4339 78.7582 17.081 78.9206 16.6435C79.083 16.206 79.1642 15.732 79.1642 15.2216C79.1642 14.7112 79.083 14.2356 78.9206 13.7947C78.7582 13.3539 78.508 12.9976 78.1699 12.7259C77.8319 12.4541 77.401 12.3182 76.8773 12.3182C76.3536 12.3182 75.9228 12.4541 75.5847 12.7259C75.2466 12.9976 74.9964 13.3539 74.834 13.7947C74.6716 14.2356 74.5904 14.7112 74.5904 15.2216C74.5904 15.732 74.6716 16.206 74.834 16.6435C74.9964 17.081 75.2466 17.4339 75.5847 17.7024C75.9228 17.9709 76.3536 18.1051 76.8773 18.1051ZM83.3018 14.4062V19H82.1286V11.3636H83.2621V12.5568H83.3615C83.5405 12.169 83.8123 11.8575 84.1768 11.6222C84.5414 11.3835 85.0121 11.2642 85.5888 11.2642C86.1058 11.2642 86.5582 11.3703 86.946 11.5824C87.3338 11.7912 87.6354 12.1094 87.8509 12.5369C88.0663 12.9612 88.174 13.4981 88.174 14.1477V19H87.0007V14.2273C87.0007 13.6274 86.8449 13.16 86.5334 12.8253C86.2218 12.4872 85.7943 12.3182 85.2507 12.3182C84.8762 12.3182 84.5414 12.3994 84.2464 12.5618C83.9548 12.7242 83.7244 12.9612 83.5554 13.2727C83.3864 13.5843 83.3018 13.9621 83.3018 14.4062ZM102.608 12H101.375C101.302 11.6454 101.174 11.3338 100.992 11.0653C100.813 10.7969 100.594 10.5715 100.336 10.3892C100.081 10.2036 99.7972 10.0644 99.4856 9.97159C99.1741 9.87879 98.8493 9.83239 98.5112 9.83239C97.8947 9.83239 97.3362 9.98816 96.8358 10.2997C96.3386 10.6113 95.9425 11.0703 95.6475 11.6768C95.3559 12.2834 95.21 13.0275 95.21 13.9091C95.21 14.7907 95.3559 15.5348 95.6475 16.1413C95.9425 16.7479 96.3386 17.2069 96.8358 17.5185C97.3362 17.83 97.8947 17.9858 98.5112 17.9858C98.8493 17.9858 99.1741 17.9394 99.4856 17.8466C99.7972 17.7538 100.081 17.6162 100.336 17.4339C100.594 17.2483 100.813 17.0213 100.992 16.7528C101.174 16.4811 101.302 16.1695 101.375 15.8182H102.608C102.515 16.3385 102.346 16.8042 102.101 17.2152C101.855 17.6262 101.55 17.9759 101.186 18.2642C100.821 18.5492 100.412 18.7663 99.9579 18.9155C99.5072 19.0646 99.0249 19.1392 98.5112 19.1392C97.6428 19.1392 96.8706 18.9271 96.1944 18.5028C95.5183 18.0786 94.9863 17.4754 94.5985 16.6932C94.2108 15.911 94.0169 14.983 94.0169 13.9091C94.0169 12.8352 94.2108 11.9072 94.5985 11.125C94.9863 10.3428 95.5183 9.73958 96.1944 9.31534C96.8706 8.8911 97.6428 8.67898 98.5112 8.67898C99.0249 8.67898 99.5072 8.75355 99.9579 8.9027C100.412 9.05185 100.821 9.2706 101.186 9.55895C101.55 9.84399 101.855 10.192 102.101 10.603C102.346 11.0107 102.515 11.4763 102.608 12ZM107.543 19.1591C106.854 19.1591 106.249 18.995 105.729 18.6669C105.212 18.3388 104.807 17.8797 104.516 17.2898C104.227 16.6998 104.083 16.0104 104.083 15.2216C104.083 14.4261 104.227 13.7318 104.516 13.1385C104.807 12.5452 105.212 12.0845 105.729 11.7564C106.249 11.4283 106.854 11.2642 107.543 11.2642C108.233 11.2642 108.836 11.4283 109.353 11.7564C109.873 12.0845 110.278 12.5452 110.566 13.1385C110.858 13.7318 111.004 14.4261 111.004 15.2216C111.004 16.0104 110.858 16.6998 110.566 17.2898C110.278 17.8797 109.873 18.3388 109.353 18.6669C108.836 18.995 108.233 19.1591 107.543 19.1591ZM107.543 18.1051C108.067 18.1051 108.498 17.9709 108.836 17.7024C109.174 17.4339 109.424 17.081 109.587 16.6435C109.749 16.206 109.83 15.732 109.83 15.2216C109.83 14.7112 109.749 14.2356 109.587 13.7947C109.424 13.3539 109.174 12.9976 108.836 12.7259C108.498 12.4541 108.067 12.3182 107.543 12.3182C107.02 12.3182 106.589 12.4541 106.251 12.7259C105.913 12.9976 105.662 13.3539 105.5 13.7947C105.338 14.2356 105.256 14.7112 105.256 15.2216C105.256 15.732 105.338 16.206 105.5 16.6435C105.662 17.081 105.913 17.4339 106.251 17.7024C106.589 17.9709 107.02 18.1051 107.543 18.1051ZM113.968 14.4062V19H112.795V11.3636H113.928V12.5568H114.028C114.206 12.169 114.478 11.8575 114.843 11.6222C115.207 11.3835 115.678 11.2642 116.255 11.2642C116.772 11.2642 117.224 11.3703 117.612 11.5824C118 11.7912 118.301 12.1094 118.517 12.5369C118.732 12.9612 118.84 13.4981 118.84 14.1477V19H117.667V14.2273C117.667 13.6274 117.511 13.16 117.199 12.8253C116.888 12.4872 116.46 12.3182 115.917 12.3182C115.542 12.3182 115.207 12.3994 114.912 12.5618C114.621 12.7242 114.39 12.9612 114.221 13.2727C114.052 13.5843 113.968 13.9621 113.968 14.4062ZM126.393 13.0739L125.339 13.3722C125.273 13.1965 125.175 13.0258 125.046 12.8601C124.92 12.6911 124.748 12.5518 124.529 12.4425C124.31 12.3331 124.03 12.2784 123.689 12.2784C123.221 12.2784 122.832 12.3861 122.52 12.6016C122.212 12.8137 122.058 13.0838 122.058 13.4119C122.058 13.7036 122.164 13.9339 122.376 14.103C122.588 14.272 122.92 14.4129 123.37 14.5256L124.504 14.804C125.187 14.9697 125.695 15.2232 126.03 15.5646C126.365 15.9027 126.532 16.3385 126.532 16.8722C126.532 17.3097 126.406 17.7008 126.154 18.0455C125.906 18.3902 125.558 18.6619 125.11 18.8608C124.663 19.0597 124.143 19.1591 123.549 19.1591C122.77 19.1591 122.126 18.9901 121.615 18.652C121.105 18.3139 120.782 17.8201 120.646 17.1705L121.76 16.892C121.866 17.303 122.066 17.6113 122.361 17.8168C122.659 18.0223 123.049 18.125 123.529 18.125C124.076 18.125 124.511 18.009 124.832 17.777C125.157 17.5417 125.319 17.2599 125.319 16.9318C125.319 16.6667 125.226 16.4446 125.041 16.2656C124.855 16.0833 124.57 15.9474 124.186 15.858L122.913 15.5597C122.214 15.3939 121.7 15.1371 121.372 14.7891C121.047 14.4377 120.885 13.9986 120.885 13.4716C120.885 13.0407 121.006 12.6596 121.248 12.3281C121.493 11.9967 121.826 11.7365 122.247 11.5476C122.671 11.3587 123.152 11.2642 123.689 11.2642C124.444 11.2642 125.038 11.4299 125.468 11.7614C125.903 12.0928 126.211 12.5303 126.393 13.0739ZM133.111 15.8778V11.3636H134.284V19H133.111V17.7074H133.031C132.852 18.0952 132.574 18.425 132.196 18.6967C131.818 18.9652 131.341 19.0994 130.764 19.0994C130.287 19.0994 129.863 18.995 129.492 18.7862C129.12 18.5741 128.829 18.2559 128.617 17.8317C128.405 17.4041 128.298 16.8655 128.298 16.2159V11.3636H129.472V16.1364C129.472 16.6932 129.628 17.1373 129.939 17.4688C130.254 17.8002 130.655 17.9659 131.142 17.9659C131.434 17.9659 131.731 17.8913 132.032 17.7422C132.337 17.593 132.592 17.3643 132.798 17.0561C133.007 16.7479 133.111 16.3551 133.111 15.8778ZM137.607 8.81818V19H136.433V8.81818H137.607ZM143.077 11.3636V12.358H139.119V11.3636H143.077ZM140.273 9.53409H141.446V16.8125C141.446 17.1439 141.494 17.3925 141.59 17.5582C141.689 17.7206 141.815 17.83 141.968 17.8864C142.124 17.9394 142.288 17.9659 142.46 17.9659C142.589 17.9659 142.695 17.9593 142.778 17.946C142.861 17.9295 142.927 17.9162 142.977 17.9062L143.216 18.9602C143.136 18.9901 143.025 19.0199 142.883 19.0497C142.74 19.0829 142.559 19.0994 142.341 19.0994C142.009 19.0994 141.684 19.0282 141.366 18.8857C141.051 18.7431 140.79 18.526 140.581 18.2344C140.375 17.9427 140.273 17.5748 140.273 17.1307V9.53409ZM147.089 19.179C146.605 19.179 146.166 19.0878 145.771 18.9055C145.377 18.7199 145.064 18.4531 144.831 18.1051C144.599 17.7538 144.483 17.3295 144.483 16.8324C144.483 16.3949 144.57 16.0402 144.742 15.7685C144.914 15.4934 145.145 15.2779 145.433 15.1222C145.721 14.9664 146.04 14.8504 146.388 14.7741C146.739 14.6946 147.092 14.6316 147.447 14.5852C147.911 14.5256 148.287 14.4808 148.575 14.451C148.867 14.4179 149.079 14.3632 149.211 14.2869C149.347 14.2107 149.415 14.0781 149.415 13.8892V13.8494C149.415 13.3589 149.281 12.9777 149.013 12.706C148.747 12.4342 148.345 12.2983 147.805 12.2983C147.244 12.2983 146.805 12.4209 146.487 12.6662C146.169 12.9115 145.945 13.1733 145.816 13.4517L144.702 13.054C144.901 12.59 145.166 12.2287 145.498 11.9702C145.832 11.7083 146.197 11.526 146.591 11.4233C146.989 11.3172 147.38 11.2642 147.765 11.2642C148.01 11.2642 148.292 11.294 148.61 11.3537C148.931 11.41 149.241 11.5277 149.54 11.7067C149.841 11.8857 150.091 12.1558 150.29 12.517C150.489 12.8783 150.589 13.3622 150.589 13.9688V19H149.415V17.9659H149.356C149.276 18.1316 149.144 18.3089 148.958 18.4979C148.772 18.6868 148.525 18.8475 148.217 18.9801C147.909 19.1127 147.533 19.179 147.089 19.179ZM147.268 18.125C147.732 18.125 148.123 18.0339 148.441 17.8516C148.762 17.6693 149.004 17.4339 149.167 17.1456C149.332 16.8572 149.415 16.554 149.415 16.2358V15.1619C149.366 15.2216 149.256 15.2763 149.087 15.326C148.921 15.3724 148.729 15.4138 148.51 15.4503C148.295 15.4834 148.085 15.5133 147.879 15.5398C147.677 15.563 147.513 15.5829 147.387 15.5994C147.082 15.6392 146.797 15.7038 146.532 15.7933C146.27 15.8795 146.058 16.0104 145.895 16.1861C145.736 16.3584 145.657 16.5937 145.657 16.892C145.657 17.2997 145.808 17.608 146.109 17.8168C146.414 18.0223 146.8 18.125 147.268 18.125ZM156.051 11.3636V12.358H152.094V11.3636H156.051ZM153.247 9.53409H154.42V16.8125C154.42 17.1439 154.469 17.3925 154.565 17.5582C154.664 17.7206 154.79 17.83 154.942 17.8864C155.098 17.9394 155.262 17.9659 155.435 17.9659C155.564 17.9659 155.67 17.9593 155.753 17.946C155.836 17.9295 155.902 17.9162 155.952 17.9062L156.19 18.9602C156.111 18.9901 156 19.0199 155.857 19.0497C155.715 19.0829 155.534 19.0994 155.315 19.0994C154.984 19.0994 154.659 19.0282 154.341 18.8857C154.026 18.7431 153.764 18.526 153.555 18.2344C153.35 17.9427 153.247 17.5748 153.247 17.1307V9.53409ZM157.816 19V11.3636H158.989V19H157.816ZM158.413 10.0909C158.184 10.0909 157.987 10.013 157.821 9.85724C157.659 9.70147 157.577 9.5142 157.577 9.29545C157.577 9.0767 157.659 8.88944 157.821 8.73366C157.987 8.57789 158.184 8.5 158.413 8.5C158.641 8.5 158.837 8.57789 158.999 8.73366C159.165 8.88944 159.248 9.0767 159.248 9.29545C159.248 9.5142 159.165 9.70147 158.999 9.85724C158.837 10.013 158.641 10.0909 158.413 10.0909ZM164.241 19.1591C163.551 19.1591 162.946 18.995 162.426 18.6669C161.909 18.3388 161.505 17.8797 161.213 17.2898C160.925 16.6998 160.78 16.0104 160.78 15.2216C160.78 14.4261 160.925 13.7318 161.213 13.1385C161.505 12.5452 161.909 12.0845 162.426 11.7564C162.946 11.4283 163.551 11.2642 164.241 11.2642C164.93 11.2642 165.533 11.4283 166.05 11.7564C166.571 12.0845 166.975 12.5452 167.263 13.1385C167.555 13.7318 167.701 14.4261 167.701 15.2216C167.701 16.0104 167.555 16.6998 167.263 17.2898C166.975 17.8797 166.571 18.3388 166.05 18.6669C165.533 18.995 164.93 19.1591 164.241 19.1591ZM164.241 18.1051C164.764 18.1051 165.195 17.9709 165.533 17.7024C165.871 17.4339 166.122 17.081 166.284 16.6435C166.446 16.206 166.528 15.732 166.528 15.2216C166.528 14.7112 166.446 14.2356 166.284 13.7947C166.122 13.3539 165.871 12.9976 165.533 12.7259C165.195 12.4541 164.764 12.3182 164.241 12.3182C163.717 12.3182 163.286 12.4541 162.948 12.7259C162.61 12.9976 162.36 13.3539 162.197 13.7947C162.035 14.2356 161.954 14.7112 161.954 15.2216C161.954 15.732 162.035 16.206 162.197 16.6435C162.36 17.081 162.61 17.4339 162.948 17.7024C163.286 17.9709 163.717 18.1051 164.241 18.1051ZM170.665 14.4062V19H169.492V11.3636H170.625V12.5568H170.725C170.904 12.169 171.176 11.8575 171.54 11.6222C171.905 11.3835 172.375 11.2642 172.952 11.2642C173.469 11.2642 173.922 11.3703 174.309 11.5824C174.697 11.7912 174.999 12.1094 175.214 12.5369C175.43 12.9612 175.537 13.4981 175.537 14.1477V19H174.364V14.2273C174.364 13.6274 174.208 13.16 173.897 12.8253C173.585 12.4872 173.158 12.3182 172.614 12.3182C172.239 12.3182 171.905 12.3994 171.61 12.5618C171.318 12.7242 171.088 12.9612 170.919 13.2727C170.75 13.5843 170.665 13.9621 170.665 14.4062Z" fill="#F5F5F5"/>
</svg>
