<svg width="42" height="42" viewBox="0 0 42 42" fill="none" xmlns="http://www.w3.org/2000/svg">
<rect width="42" height="42" fill="#FF6C2E"/>
<path d="M21.7714 13.5C22.6152 13.5022 23.0434 13.5068 23.4132 13.5173L23.5587 13.5225C23.7267 13.5285 23.8924 13.536 24.0927 13.545C24.8907 13.5825 25.4352 13.7085 25.9129 13.8938C26.4079 14.0843 26.8249 14.3422 27.2419 14.7585C27.6234 15.1333 27.9186 15.5869 28.1067 16.0875C28.2919 16.5652 28.4179 17.1097 28.4554 17.9085C28.4644 18.108 28.4719 18.2738 28.4779 18.4425L28.4824 18.588C28.4937 18.957 28.4982 19.3853 28.4997 20.229L28.5004 20.7885V21.771C28.5023 22.3181 28.4965 22.8651 28.4832 23.412L28.4787 23.5575C28.4727 23.7262 28.4652 23.892 28.4562 24.0915C28.4187 24.8903 28.2912 25.434 28.1067 25.9125C27.9186 26.4131 27.6234 26.8667 27.2419 27.2415C26.8671 27.623 26.4136 27.9181 25.9129 28.1063C25.4352 28.2915 24.8907 28.4175 24.0927 28.455L23.5587 28.4775L23.4132 28.482C23.0434 28.4925 22.6152 28.4978 21.7714 28.4993L21.2119 28.5H20.2302C19.6829 28.5019 19.1356 28.4962 18.5884 28.4827L18.4429 28.4783C18.2649 28.4715 18.0869 28.4638 17.9089 28.455C17.1109 28.4175 16.5664 28.2915 16.0879 28.1063C15.5875 27.918 15.1343 27.6229 14.7597 27.2415C14.3779 26.8668 14.0825 26.4132 13.8942 25.9125C13.7089 25.4347 13.5829 24.8903 13.5454 24.0915L13.5229 23.5575L13.5192 23.412C13.5054 22.8651 13.4991 22.3181 13.5004 21.771V20.229C13.4984 19.682 13.5039 19.1349 13.5169 18.588L13.5222 18.4425C13.5282 18.2738 13.5357 18.108 13.5447 17.9085C13.5822 17.1097 13.7082 16.566 13.8934 16.0875C14.0822 15.5866 14.3781 15.1331 14.7604 14.7585C15.1348 14.3772 15.5878 14.0821 16.0879 13.8938C16.5664 13.7085 17.1102 13.5825 17.9089 13.545C18.1084 13.536 18.2749 13.5285 18.4429 13.5225L18.5884 13.518C19.1353 13.5047 19.6824 13.4989 20.2294 13.5007L21.7714 13.5ZM21.0004 17.25C20.0059 17.25 19.052 17.6451 18.3488 18.3483C17.6455 19.0516 17.2504 20.0054 17.2504 21C17.2504 21.9946 17.6455 22.9484 18.3488 23.6517C19.052 24.3549 20.0059 24.75 21.0004 24.75C21.995 24.75 22.9488 24.3549 23.6521 23.6517C24.3553 22.9484 24.7504 21.9946 24.7504 21C24.7504 20.0054 24.3553 19.0516 23.6521 18.3483C22.9488 17.6451 21.995 17.25 21.0004 17.25ZM21.0004 18.75C21.2959 18.75 21.5885 18.8081 21.8615 18.9211C22.1345 19.0342 22.3826 19.1998 22.5915 19.4087C22.8005 19.6176 22.9663 19.8657 23.0794 20.1386C23.1925 20.4116 23.2508 20.7042 23.2508 20.9996C23.2509 21.2951 23.1927 21.5877 23.0797 21.8607C22.9666 22.1337 22.801 22.3818 22.5921 22.5907C22.3832 22.7997 22.1351 22.9655 21.8622 23.0786C21.5892 23.1917 21.2967 23.25 21.0012 23.25C20.4044 23.25 19.8321 23.0129 19.4102 22.591C18.9882 22.169 18.7512 21.5967 18.7512 21C18.7512 20.4033 18.9882 19.831 19.4102 19.409C19.8321 18.9871 20.4044 18.75 21.0012 18.75M24.9387 16.125C24.69 16.125 24.4516 16.2238 24.2758 16.3996C24.0999 16.5754 24.0012 16.8139 24.0012 17.0625C24.0012 17.3111 24.0999 17.5496 24.2758 17.7254C24.4516 17.9012 24.69 18 24.9387 18C25.1873 18 25.4258 17.9012 25.6016 17.7254C25.7774 17.5496 25.8762 17.3111 25.8762 17.0625C25.8762 16.8139 25.7774 16.5754 25.6016 16.3996C25.4258 16.2238 25.1873 16.125 24.9387 16.125Z" fill="white"/>
</svg>
