<svg width="718" height="483" viewBox="0 0 718 483" fill="none" xmlns="http://www.w3.org/2000/svg">
<rect width="1181" height="74" transform="translate(0.367432 759.222) rotate(-40)" fill="#EAEAEA"/>
<path d="M363.501 513.26L360.816 509.192L360.058 509.829L358.931 508.401L359.841 507.638L358.692 505.876L357.602 506.79L356.427 505.333L357.737 504.234L355.536 500.911L356.997 499.685L359.184 503.019L360.26 502.117L358.059 498.794L359.507 497.579L361.694 500.913L362.425 500.3L363.587 501.769L362.649 502.556L363.812 504.306L364.901 503.392L366.028 504.819L364.787 505.86L367.445 509.951L366.011 511.155L363.34 507.075L362.264 507.978L364.935 512.057L363.501 513.26ZM361.275 506.434L362.364 505.52L361.215 503.759L360.139 504.661L361.275 506.434ZM370.715 507.207L361.343 496.038L364.253 493.597C364.731 493.196 365.212 492.854 365.697 492.573C366.19 492.284 366.692 492.107 367.2 492.04C367.7 491.965 368.205 492.043 368.713 492.275C369.222 492.49 369.739 492.91 370.263 493.535C370.641 493.985 370.892 494.425 371.017 494.853C371.143 495.264 371.159 495.666 371.065 496.058C370.98 496.443 370.794 496.81 370.508 497.159C370.987 496.852 371.469 496.69 371.956 496.673C372.436 496.647 372.907 496.76 373.37 497.014C373.843 497.259 374.303 497.649 374.75 498.182C375.236 498.761 375.578 499.328 375.777 499.882C375.977 500.419 376.046 500.94 375.985 501.446C375.924 501.952 375.736 502.446 375.421 502.93C375.115 503.405 374.691 503.871 374.149 504.326L370.715 507.207ZM371.737 503.412L372.261 502.973C372.804 502.518 373.06 502.067 373.031 501.622C373.011 501.169 372.777 500.675 372.33 500.142C371.975 499.719 371.648 499.422 371.347 499.251C371.047 499.08 370.745 499.028 370.441 499.095C370.129 499.153 369.794 499.333 369.436 499.634L368.926 500.062L371.737 503.412ZM367.56 498.435L368.043 498.03C368.42 497.713 368.659 497.419 368.759 497.147C368.852 496.865 368.838 496.587 368.717 496.313C368.605 496.03 368.418 495.733 368.156 495.42C367.909 495.126 367.65 494.929 367.378 494.828C367.107 494.711 366.823 494.69 366.527 494.767C366.24 494.835 365.94 495.001 365.627 495.263L365.2 495.622L367.56 498.435ZM382.159 497.886C381.323 498.588 380.538 498.996 379.804 499.111C379.07 499.226 378.365 499.096 377.691 498.722C377.017 498.348 376.36 497.779 375.719 497.016L372.237 492.866C371.589 492.094 371.143 491.348 370.899 490.628C370.656 489.908 370.658 489.201 370.906 488.507C371.146 487.804 371.685 487.102 372.521 486.4C373.367 485.69 374.157 485.278 374.891 485.164C375.627 485.032 376.328 485.149 376.994 485.514C377.661 485.879 378.318 486.447 378.966 487.219L382.448 491.37C383.089 492.133 383.534 492.879 383.786 493.608C384.037 494.337 384.038 495.057 383.789 495.767C383.548 496.47 383.005 497.177 382.159 497.886ZM380.69 496.135C380.947 495.919 381.082 495.697 381.093 495.468C381.105 495.239 381.044 495.008 380.911 494.775C380.778 494.541 380.623 494.319 380.446 494.108L375.933 488.73C375.748 488.509 375.556 488.318 375.358 488.156C375.151 487.985 374.934 487.885 374.707 487.856C374.479 487.828 374.237 487.922 373.979 488.138C373.74 488.338 373.615 488.553 373.604 488.782C373.592 489.011 373.653 489.242 373.786 489.475C373.911 489.699 374.066 489.921 374.251 490.142L378.763 495.519C378.941 495.731 379.128 495.926 379.326 496.105C379.532 496.276 379.744 496.38 379.963 496.416C380.19 496.445 380.433 496.351 380.69 496.135ZM386.901 493.626L377.529 482.457L380.356 480.085C381.33 479.267 382.193 478.755 382.943 478.548C383.686 478.332 384.388 478.393 385.048 478.732C385.701 479.062 386.374 479.64 387.068 480.468L390.47 484.522C391.172 485.358 391.636 486.135 391.863 486.854C392.082 487.563 392.024 488.269 391.69 488.972C391.365 489.668 390.72 490.421 389.755 491.231L386.901 493.626ZM387.934 489.845L388.321 489.521C388.697 489.205 388.922 488.922 388.995 488.673C389.068 488.424 389.03 488.173 388.882 487.922C388.743 487.663 388.534 487.367 388.257 487.037L384.172 482.169C383.895 481.838 383.644 481.595 383.419 481.439C383.203 481.275 382.974 481.217 382.731 481.264C382.489 481.311 382.184 481.488 381.816 481.797L381.444 482.109L387.934 489.845ZM396.158 485.858L392.328 481.294L384.663 476.471L386.993 474.516L391.017 477.155L389.006 472.826L391.24 470.952L394.7 479.304L398.53 483.868L396.158 485.858ZM401.552 481.332L392.18 470.163L395.089 467.722C395.567 467.321 396.048 466.98 396.533 466.698C397.027 466.41 397.528 466.232 398.036 466.166C398.537 466.09 399.041 466.168 399.549 466.4C400.058 466.615 400.575 467.035 401.1 467.66C401.477 468.111 401.729 468.55 401.853 468.978C401.979 469.39 401.995 469.791 401.901 470.183C401.816 470.568 401.631 470.935 401.345 471.285C401.823 470.977 402.306 470.815 402.793 470.798C403.272 470.772 403.743 470.885 404.206 471.139C404.679 471.385 405.139 471.774 405.586 472.307C406.072 472.886 406.415 473.453 406.613 474.007C406.813 474.544 406.882 475.065 406.821 475.571C406.76 476.077 406.572 476.571 406.257 477.055C405.951 477.531 405.527 477.996 404.985 478.451L401.552 481.332ZM402.573 477.538L403.097 477.098C403.64 476.643 403.896 476.193 403.867 475.747C403.847 475.294 403.614 474.801 403.166 474.268C402.811 473.845 402.484 473.548 402.184 473.377C401.883 473.206 401.581 473.154 401.277 473.221C400.966 473.279 400.631 473.458 400.272 473.759L399.762 474.187L402.573 477.538ZM398.397 472.56L398.879 472.155C399.256 471.839 399.495 471.544 399.595 471.272C399.688 470.991 399.674 470.713 399.553 470.438C399.442 470.156 399.255 469.858 398.993 469.546C398.746 469.251 398.486 469.054 398.214 468.954C397.943 468.836 397.659 468.816 397.363 468.892C397.076 468.961 396.776 469.126 396.464 469.388L396.036 469.747L398.397 472.56ZM413.023 471.988C412.168 472.706 411.382 473.131 410.663 473.264C409.946 473.38 409.267 473.253 408.627 472.881C407.979 472.501 407.327 471.92 406.671 471.139L400.203 463.431L402.644 461.383L409.424 469.463C409.617 469.693 409.828 469.907 410.058 470.106C410.287 470.305 410.524 470.428 410.766 470.475C411.019 470.514 411.273 470.426 411.531 470.21C411.797 469.986 411.929 469.75 411.925 469.503C411.921 469.256 411.836 469.006 411.671 468.753C411.515 468.492 411.34 468.247 411.148 468.017L404.367 459.937L406.822 457.877L413.29 465.585C413.945 466.366 414.4 467.113 414.652 467.825C414.907 468.52 414.914 469.211 414.676 469.897C414.429 470.574 413.878 471.271 413.023 471.988ZM417.778 467.717L408.406 456.548L410.874 454.477L420.246 465.646L417.778 467.717ZM421.912 464.248L412.54 453.079L415.008 451.008L422.98 460.509L425.544 458.357L426.944 460.025L421.912 464.248ZM428.025 459.118L418.653 447.95L421.48 445.578C422.454 444.76 423.317 444.248 424.067 444.041C424.81 443.825 425.512 443.886 426.172 444.225C426.825 444.555 427.498 445.133 428.192 445.96L431.594 450.014C432.296 450.851 432.76 451.628 432.987 452.347C433.206 453.056 433.149 453.762 432.814 454.465C432.49 455.161 431.844 455.914 430.879 456.723L428.025 459.118ZM429.058 455.338L429.445 455.014C429.821 454.697 430.046 454.415 430.119 454.166C430.192 453.916 430.154 453.666 430.006 453.415C429.867 453.155 429.658 452.86 429.381 452.529L425.297 447.662C425.019 447.331 424.768 447.088 424.543 446.932C424.327 446.768 424.098 446.71 423.855 446.756C423.613 446.803 423.308 446.981 422.94 447.29L422.568 447.602L429.058 455.338ZM436.118 452.327L426.746 441.159L429.214 439.087L438.586 450.256L436.118 452.327ZM440.252 448.859L430.88 437.69L432.617 436.232L439.419 439.689L434.906 434.312L436.947 432.599L446.319 443.768L444.65 445.168L437.502 441.297L442.361 447.089L440.252 448.859ZM451.029 440.097C450.257 440.745 449.511 441.098 448.79 441.154C448.079 441.202 447.384 441.018 446.705 440.601C446.028 440.167 445.369 439.568 444.729 438.805L441.581 435.055C440.918 434.264 440.445 433.494 440.161 432.746C439.877 431.997 439.848 431.262 440.073 430.54C440.299 429.802 440.835 429.078 441.681 428.368C442.508 427.674 443.272 427.268 443.972 427.151C444.682 427.025 445.342 427.121 445.953 427.439C446.564 427.757 447.143 428.242 447.691 428.894L448.293 429.611L445.88 431.636L445.116 430.726C444.915 430.487 444.712 430.282 444.505 430.11C444.308 429.931 444.1 429.832 443.88 429.813C443.662 429.777 443.424 429.867 443.166 430.083C442.9 430.306 442.768 430.542 442.772 430.789C442.769 431.027 442.837 431.268 442.978 431.51C443.127 431.745 443.299 431.977 443.492 432.207L447.83 437.377C448.039 437.626 448.258 437.841 448.489 438.023C448.722 438.188 448.96 438.285 449.205 438.315C449.451 438.328 449.698 438.231 449.946 438.022C450.203 437.806 450.343 437.572 450.365 437.318C450.388 437.064 450.334 436.804 450.204 436.537C450.074 436.27 449.905 436.013 449.696 435.765L448.597 434.455L447.591 435.299L446.376 433.851L449.602 431.144L454.462 436.935L452.835 438.301L451.922 437.492C452.037 437.928 452.041 438.372 451.933 438.822C451.818 439.264 451.516 439.689 451.029 440.097Z" fill="#1F1F1F"/>
<path d="M486.834 409.771L484.15 405.704L483.391 406.34L482.264 404.913L483.174 404.149L482.025 402.387L480.936 403.302L479.76 401.844L481.07 400.745L478.869 397.422L480.331 396.196L482.518 399.53L483.593 398.628L481.392 395.305L482.84 394.09L485.027 397.425L485.758 396.811L486.92 398.28L485.982 399.067L487.145 400.817L488.234 399.903L489.362 401.33L488.121 402.371L490.778 406.462L489.344 407.666L486.673 403.586L485.597 404.489L488.269 408.568L486.834 409.771ZM484.608 402.946L485.697 402.032L484.548 400.27L483.473 401.173L484.608 402.946ZM497.152 401.396C496.453 401.982 495.765 402.348 495.088 402.493C494.411 402.638 493.737 402.554 493.066 402.24C492.388 401.916 491.687 401.352 490.966 400.548L492.809 398.461C493.219 398.931 493.585 399.283 493.905 399.515C494.235 399.74 494.522 399.859 494.768 399.872C495.023 399.877 495.252 399.795 495.454 399.625C495.712 399.409 495.804 399.183 495.731 398.946C495.667 398.702 495.554 398.484 495.392 398.291C495.006 397.831 494.572 397.538 494.089 397.41C493.599 397.274 493.03 397.203 492.383 397.197L490.712 397.166C489.988 397.162 489.291 397.058 488.618 396.855C487.948 396.634 487.331 396.189 486.768 395.518C485.973 394.571 485.648 393.614 485.792 392.647C485.929 391.671 486.48 390.778 487.445 389.968C488.043 389.466 488.605 389.167 489.134 389.068C489.671 388.962 490.17 388.997 490.632 389.173C491.095 389.333 491.513 389.57 491.886 389.884C492.26 390.18 492.591 390.49 492.878 390.814L490.974 392.857C490.687 392.534 490.425 392.269 490.188 392.06C489.952 391.835 489.729 391.701 489.52 391.657C489.304 391.604 489.089 391.666 488.878 391.844C488.648 392.036 488.559 392.276 488.611 392.561C488.672 392.839 488.783 393.075 488.945 393.268C489.292 393.681 489.674 393.94 490.091 394.045C490.509 394.133 490.999 394.184 491.559 394.199L493.166 394.237C494 394.242 494.803 394.368 495.573 394.614C496.353 394.853 497.067 395.358 497.715 396.13C498.155 396.654 498.436 397.233 498.56 397.865C498.675 398.489 498.617 399.109 498.384 399.728C498.16 400.339 497.749 400.895 497.152 401.396ZM501.131 397.775L491.76 386.606L495.51 383.459C496.181 382.896 496.841 382.562 497.489 382.457C498.129 382.342 498.759 382.44 499.38 382.75C499.992 383.05 500.588 383.545 501.166 384.235C501.891 385.099 502.304 385.88 502.405 386.579C502.498 387.269 502.374 387.905 502.033 388.489C501.693 389.072 501.219 389.618 500.612 390.127L499.619 390.961L503.6 395.704L501.131 397.775ZM498.173 389.237L499.001 388.543C499.304 388.288 499.487 388.04 499.551 387.799C499.615 387.557 499.577 387.307 499.438 387.048C499.308 386.781 499.1 386.477 498.815 386.137C498.576 385.852 498.345 385.623 498.121 385.451C497.899 385.261 497.656 385.167 497.392 385.17C497.128 385.172 496.83 385.312 496.499 385.59L495.686 386.272L498.173 389.237ZM512.347 388.646C511.51 389.348 510.725 389.756 509.991 389.871C509.257 389.986 508.553 389.856 507.878 389.482C507.204 389.108 506.547 388.539 505.907 387.776L502.424 383.626C501.776 382.854 501.33 382.108 501.087 381.388C500.843 380.668 500.845 379.961 501.093 379.267C501.334 378.565 501.872 377.862 502.709 377.16C503.554 376.45 504.344 376.038 505.078 375.924C505.814 375.792 506.515 375.909 507.181 376.274C507.848 376.639 508.505 377.207 509.153 377.979L512.636 382.13C513.276 382.893 513.722 383.639 513.973 384.368C514.224 385.097 514.225 385.817 513.976 386.527C513.735 387.23 513.192 387.937 512.347 388.646ZM510.877 386.895C511.135 386.679 511.269 386.457 511.281 386.228C511.292 385.999 511.231 385.768 511.098 385.535C510.966 385.301 510.81 385.079 510.633 384.868L506.121 379.49C505.935 379.269 505.744 379.078 505.545 378.916C505.338 378.745 505.121 378.645 504.894 378.616C504.666 378.588 504.424 378.682 504.167 378.898C503.928 379.098 503.802 379.313 503.791 379.542C503.779 379.771 503.84 380.002 503.973 380.235C504.098 380.459 504.253 380.681 504.438 380.902L508.951 386.279C509.128 386.491 509.315 386.686 509.513 386.865C509.719 387.036 509.932 387.14 510.15 387.176C510.377 387.205 510.62 387.111 510.877 386.895ZM517.088 384.386L507.716 373.217L510.791 370.637C511.545 370.004 512.267 369.539 512.958 369.242C513.648 368.944 514.326 368.885 514.992 369.062C515.659 369.223 516.321 369.694 516.976 370.475C517.362 370.935 517.669 371.375 517.896 371.795C518.123 372.215 518.248 372.643 518.269 373.079C518.292 373.499 518.193 373.95 517.972 374.433L524.038 378.554L521.487 380.695L516.06 376.719L515.356 377.309L519.556 382.315L517.088 384.386ZM514.165 375.889L514.854 375.31C515.203 375.017 515.424 374.73 515.517 374.449C515.602 374.158 515.585 373.867 515.466 373.575C515.348 373.267 515.15 372.947 514.873 372.616C514.472 372.138 514.072 371.839 513.673 371.719C513.275 371.599 512.842 371.736 512.373 372.129L511.573 372.8L514.165 375.889ZM526.215 376.728L518.382 367.393L516.699 368.804L515.16 366.97L520.993 362.076L522.532 363.91L520.864 365.31L528.697 374.645L526.215 376.728Z" fill="#1F1F1F"/>
<path d="M562.673 346.136L559.988 342.068L559.23 342.704L558.102 341.277L559.012 340.513L557.863 338.752L556.774 339.666L555.598 338.208L556.908 337.109L554.707 333.786L556.169 332.56L558.356 335.894L559.432 334.992L557.231 331.669L558.679 330.454L560.866 333.789L561.596 333.175L562.758 334.644L561.821 335.431L562.984 337.181L564.073 336.267L565.2 337.694L563.959 338.735L566.616 342.826L565.182 344.03L562.511 339.95L561.436 340.853L564.107 344.932L562.673 346.136ZM560.446 339.31L561.536 338.396L560.387 336.634L559.311 337.537L560.446 339.31ZM570.783 339.33L560.06 329.295L562.156 327.536L568.279 333.489L563.67 326.289L565.311 324.912L571.609 330.625L566.858 323.591L568.926 321.856L576.961 334.147L574.809 335.952L568.2 330.007L572.962 337.502L570.783 339.33ZM582.839 329.496C582.003 330.198 581.217 330.606 580.483 330.721C579.749 330.835 579.045 330.706 578.371 330.332C577.697 329.957 577.039 329.389 576.399 328.626L572.917 324.475C572.269 323.703 571.823 322.957 571.579 322.238C571.336 321.518 571.338 320.811 571.586 320.117C571.826 319.414 572.365 318.712 573.201 318.01C574.047 317.3 574.837 316.888 575.571 316.773C576.306 316.642 577.007 316.759 577.674 317.124C578.34 317.488 578.998 318.057 579.646 318.829L583.128 322.98C583.768 323.743 584.214 324.489 584.466 325.218C584.717 325.947 584.718 326.666 584.468 327.377C584.228 328.08 583.685 328.786 582.839 329.496ZM581.37 327.745C581.627 327.529 581.762 327.306 581.773 327.077C581.785 326.848 581.724 326.617 581.591 326.384C581.458 326.151 581.303 325.929 581.126 325.717L576.613 320.34C576.428 320.119 576.236 319.928 576.037 319.766C575.831 319.594 575.614 319.494 575.386 319.466C575.159 319.438 574.916 319.531 574.659 319.747C574.42 319.948 574.295 320.163 574.283 320.392C574.272 320.621 574.332 320.852 574.465 321.085C574.591 321.309 574.746 321.531 574.931 321.751L579.443 327.129C579.621 327.34 579.808 327.536 580.005 327.715C580.212 327.886 580.424 327.99 580.642 328.026C580.87 328.055 581.112 327.961 581.37 327.745ZM587.581 325.235L578.209 314.066L581.284 311.486C582.038 310.854 582.76 310.389 583.45 310.092C584.14 309.794 584.819 309.734 585.484 309.912C586.152 310.072 586.813 310.543 587.469 311.325C587.855 311.784 588.161 312.224 588.388 312.644C588.616 313.065 588.74 313.493 588.762 313.929C588.784 314.349 588.685 314.8 588.464 315.283L594.53 319.404L591.979 321.544L586.552 317.569L585.849 318.159L590.049 323.164L587.581 325.235ZM584.657 316.739L585.347 316.16C585.696 315.867 585.917 315.58 586.01 315.298C586.095 315.008 586.078 314.717 585.958 314.425C585.841 314.117 585.643 313.797 585.365 313.466C584.964 312.988 584.564 312.689 584.166 312.569C583.768 312.449 583.334 312.586 582.865 312.979L582.065 313.65L584.657 316.739ZM595.849 318.298L586.477 307.129L588.945 305.058L592.775 309.622L590.82 303.484L593.233 301.459L595.4 308.242L602.702 312.547L600.192 314.653L594.437 311.07L594.545 311.732L598.317 316.227L595.849 318.298ZM606.7 309.474C605.864 310.176 605.078 310.584 604.344 310.699C603.61 310.814 602.906 310.684 602.232 310.31C601.558 309.936 600.901 309.367 600.26 308.604L596.778 304.454C596.13 303.681 595.684 302.935 595.44 302.216C595.197 301.496 595.199 300.789 595.447 300.095C595.687 299.392 596.226 298.69 597.062 297.988C597.908 297.278 598.698 296.866 599.432 296.752C600.167 296.62 600.868 296.737 601.535 297.102C602.202 297.467 602.859 298.035 603.507 298.807L606.989 302.958C607.629 303.721 608.075 304.467 608.327 305.196C608.578 305.925 608.579 306.645 608.329 307.355C608.089 308.058 607.546 308.764 606.7 309.474ZM605.231 307.723C605.488 307.507 605.623 307.284 605.634 307.056C605.646 306.827 605.585 306.596 605.452 306.362C605.319 306.129 605.164 305.907 604.987 305.696L600.474 300.318C600.289 300.097 600.097 299.906 599.898 299.744C599.692 299.572 599.475 299.473 599.247 299.444C599.02 299.416 598.778 299.509 598.52 299.725C598.281 299.926 598.156 300.141 598.144 300.37C598.133 300.599 598.194 300.83 598.326 301.063C598.452 301.287 598.607 301.509 598.792 301.73L603.304 307.107C603.482 307.319 603.669 307.514 603.866 307.693C604.073 307.864 604.285 307.968 604.504 308.004C604.731 308.033 604.973 307.939 605.231 307.723ZM614.807 302.672C613.952 303.389 613.166 303.814 612.447 303.947C611.73 304.063 611.051 303.936 610.411 303.565C609.762 303.184 609.111 302.603 608.455 301.822L601.987 294.114L604.428 292.066L611.208 300.146C611.401 300.376 611.612 300.591 611.842 300.789C612.071 300.988 612.307 301.111 612.55 301.158C612.803 301.197 613.057 301.109 613.315 300.893C613.581 300.669 613.713 300.434 613.709 300.186C613.705 299.939 613.62 299.689 613.455 299.436C613.299 299.175 613.124 298.93 612.932 298.7L606.151 290.62L608.606 288.56L615.074 296.268C615.729 297.05 616.183 297.796 616.436 298.508C616.691 299.204 616.698 299.894 616.459 300.58C616.213 301.257 615.662 301.954 614.807 302.672ZM620.555 297.567L612.722 288.232L611.039 289.643L609.501 287.81L615.333 282.915L616.872 284.749L615.204 286.149L623.037 295.484L620.555 297.567Z" fill="#1F1F1F"/>
<path d="M656.896 267.073L654.211 263.005L653.453 263.641L652.326 262.214L653.236 261.45L652.087 259.689L650.997 260.603L649.822 259.146L651.132 258.046L648.931 254.724L650.392 253.497L652.579 256.831L653.655 255.929L651.454 252.606L652.902 251.391L655.089 254.726L655.82 254.112L656.982 255.581L656.044 256.368L657.207 258.118L658.296 257.204L659.423 258.631L658.182 259.673L660.84 263.764L659.406 264.967L656.735 260.887L655.659 261.79L658.33 265.869L656.896 267.073ZM654.67 260.247L655.759 259.333L654.61 257.571L653.535 258.474L654.67 260.247ZM667.214 258.697C666.515 259.283 665.827 259.649 665.15 259.794C664.473 259.94 663.799 259.855 663.128 259.541C662.449 259.217 661.749 258.654 661.027 257.849L662.871 255.762C663.281 256.232 663.647 256.584 663.967 256.816C664.297 257.041 664.584 257.16 664.83 257.173C665.085 257.178 665.314 257.096 665.516 256.926C665.773 256.71 665.866 256.484 665.793 256.248C665.729 256.003 665.616 255.785 665.454 255.592C665.068 255.132 664.634 254.839 664.151 254.711C663.66 254.575 663.092 254.504 662.445 254.498L660.774 254.467C660.05 254.463 659.352 254.36 658.68 254.156C658.01 253.936 657.393 253.49 656.83 252.819C656.035 251.872 655.71 250.915 655.854 249.948C655.991 248.972 656.542 248.079 657.507 247.269C658.104 246.768 658.667 246.468 659.195 246.369C659.733 246.263 660.232 246.298 660.694 246.475C661.157 246.634 661.575 246.871 661.948 247.185C662.322 247.482 662.653 247.792 662.939 248.115L661.036 250.159C660.749 249.835 660.487 249.57 660.25 249.362C660.014 249.137 659.791 249.002 659.582 248.958C659.365 248.905 659.151 248.967 658.94 249.145C658.71 249.338 658.621 249.577 658.673 249.862C658.733 250.14 658.845 250.376 659.007 250.569C659.354 250.982 659.736 251.242 660.153 251.346C660.571 251.434 661.06 251.485 661.621 251.5L663.228 251.539C664.062 251.543 664.864 251.669 665.635 251.915C666.415 252.154 667.129 252.659 667.777 253.431C668.216 253.955 668.498 254.534 668.621 255.166C668.737 255.79 668.679 256.411 668.446 257.029C668.222 257.64 667.811 258.196 667.214 258.697ZM671.193 255.076L661.821 243.907L665.572 240.76C666.243 240.197 666.902 239.863 667.551 239.758C668.191 239.643 668.821 239.741 669.441 240.051C670.054 240.352 670.649 240.847 671.228 241.536C671.953 242.4 672.366 243.182 672.467 243.88C672.56 244.57 672.436 245.206 672.095 245.79C671.754 246.373 671.281 246.92 670.674 247.429L669.681 248.262L673.661 253.005L671.193 255.076ZM668.235 246.538L669.062 245.844C669.366 245.589 669.549 245.341 669.613 245.1C669.677 244.858 669.639 244.608 669.5 244.349C669.37 244.082 669.162 243.779 668.877 243.438C668.638 243.153 668.406 242.925 668.183 242.752C667.961 242.562 667.718 242.468 667.454 242.471C667.189 242.473 666.892 242.613 666.561 242.891L665.747 243.573L668.235 246.538ZM682.408 245.947C681.572 246.649 680.787 247.058 680.053 247.172C679.319 247.287 678.614 247.157 677.94 246.783C677.266 246.409 676.609 245.84 675.969 245.077L672.486 240.927C671.838 240.155 671.392 239.409 671.148 238.689C670.905 237.969 670.907 237.262 671.155 236.569C671.395 235.866 671.934 235.163 672.77 234.461C673.616 233.752 674.406 233.339 675.14 233.225C675.876 233.093 676.577 233.21 677.243 233.575C677.91 233.94 678.567 234.508 679.215 235.281L682.697 239.431C683.338 240.194 683.783 240.94 684.035 241.669C684.286 242.398 684.287 243.118 684.038 243.828C683.797 244.531 683.254 245.238 682.408 245.947ZM680.939 244.196C681.196 243.98 681.331 243.758 681.342 243.529C681.354 243.3 681.293 243.069 681.16 242.836C681.027 242.603 680.872 242.38 680.695 242.169L676.182 236.791C675.997 236.571 675.805 236.379 675.607 236.217C675.4 236.046 675.183 235.946 674.956 235.917C674.728 235.889 674.486 235.983 674.228 236.199C673.989 236.399 673.864 236.614 673.853 236.843C673.841 237.072 673.902 237.303 674.035 237.536C674.16 237.76 674.315 237.982 674.5 238.203L679.013 243.58C679.19 243.792 679.377 243.987 679.575 244.166C679.781 244.338 679.993 244.441 680.212 244.478C680.439 244.506 680.682 244.412 680.939 244.196ZM687.15 241.687L677.778 230.518L680.853 227.938C681.607 227.305 682.329 226.84 683.019 226.543C683.71 226.246 684.388 226.186 685.054 226.363C685.721 226.524 686.383 226.995 687.038 227.776C687.424 228.236 687.73 228.676 687.958 229.096C688.185 229.516 688.309 229.944 688.331 230.381C688.354 230.8 688.255 231.251 688.033 231.734L694.1 235.855L691.549 237.996L686.121 234.02L685.418 234.61L689.618 239.616L687.15 241.687ZM684.226 233.19L684.916 232.612C685.265 232.319 685.486 232.031 685.579 231.75C685.664 231.459 685.647 231.168 685.528 230.876C685.41 230.568 685.212 230.248 684.934 229.917C684.533 229.439 684.134 229.14 683.735 229.02C683.337 228.9 682.903 229.037 682.434 229.43L681.635 230.101L684.226 233.19ZM696.276 234.029L688.443 224.694L686.761 226.105L685.222 224.271L691.055 219.377L692.594 221.211L690.925 222.611L698.758 231.946L696.276 234.029ZM704.513 227.399C703.815 227.985 703.127 228.351 702.45 228.496C701.773 228.641 701.099 228.557 700.428 228.243C699.749 227.919 699.049 227.355 698.327 226.551L700.171 224.464C700.581 224.934 700.946 225.285 701.267 225.518C701.596 225.743 701.884 225.861 702.13 225.874C702.385 225.88 702.614 225.798 702.816 225.628C703.073 225.412 703.165 225.186 703.092 224.949C703.029 224.705 702.916 224.487 702.754 224.294C702.368 223.834 701.934 223.541 701.451 223.413C700.96 223.276 700.392 223.205 699.745 223.2L698.074 223.169C697.35 223.165 696.652 223.061 695.98 222.858C695.309 222.637 694.692 222.191 694.129 221.52C693.335 220.574 693.01 219.617 693.154 218.65C693.291 217.674 693.841 216.781 694.807 215.971C695.404 215.469 695.967 215.169 696.495 215.071C697.033 214.965 697.532 215 697.994 215.176C698.457 215.336 698.875 215.573 699.247 215.887C699.622 216.183 699.952 216.493 700.239 216.817L698.336 218.86C698.049 218.537 697.787 218.271 697.549 218.063C697.313 217.838 697.091 217.704 696.882 217.66C696.665 217.607 696.451 217.669 696.24 217.847C696.01 218.039 695.921 218.279 695.972 218.564C696.033 218.842 696.145 219.078 696.307 219.271C696.654 219.684 697.036 219.943 697.452 220.048C697.871 220.136 698.36 220.187 698.921 220.202L700.527 220.24C701.362 220.245 702.164 220.371 702.935 220.617C703.715 220.856 704.428 221.361 705.076 222.133C705.516 222.657 705.798 223.235 705.921 223.868C706.037 224.491 705.978 225.112 705.745 225.731C705.522 226.342 705.111 226.898 704.513 227.399ZM709.389 223.026L698.666 212.991L700.762 211.232L706.885 217.185L702.277 209.985L703.917 208.608L710.215 214.321L705.464 207.287L707.532 205.551L715.567 217.842L713.416 219.647L706.806 213.703L711.568 221.198L709.389 223.026ZM718.107 215.71L708.736 204.541L713.755 200.33L715.166 202.012L712.615 204.153L714.941 206.924L716.885 205.293L718.32 207.003L716.376 208.634L719.176 211.971L721.754 209.807L723.154 211.476L718.107 215.71ZM723.737 210.987L716.475 198.047L719.288 195.687L730.742 205.109L728.466 207.018L726.116 204.973L724.475 206.349L726.067 209.031L723.737 210.987ZM723.457 204.689L724.643 203.694L720.394 199.834L723.457 204.689ZM731.869 204.163L722.497 192.994L725.572 190.414C726.326 189.781 727.048 189.316 727.739 189.019C728.429 188.722 729.107 188.662 729.773 188.839C730.44 189 731.102 189.471 731.758 190.252C732.143 190.712 732.45 191.152 732.677 191.572C732.904 191.992 733.029 192.42 733.05 192.857C733.073 193.276 732.974 193.727 732.753 194.21L738.819 198.331L736.268 200.472L730.841 196.496L730.138 197.086L734.337 202.092L731.869 204.163ZM728.946 195.666L729.635 195.088C729.985 194.795 730.206 194.507 730.298 194.226C730.383 193.935 730.366 193.644 730.247 193.352C730.129 193.044 729.931 192.724 729.654 192.393C729.253 191.915 728.853 191.616 728.455 191.496C728.056 191.376 727.623 191.513 727.154 191.906L726.354 192.577L728.946 195.666Z" fill="#1F1F1F"/>
</svg>
