<svg width="951" height="259" viewBox="0 0 951 259" fill="none" xmlns="http://www.w3.org/2000/svg">
<rect width="1181" height="74" transform="translate(0.676147 326.197) rotate(-16)" fill="#575757"/>
<path d="M366.13 268.218L365.332 263.41L364.38 263.683L363.931 261.921L365.073 261.593L364.74 259.517L363.373 259.908L362.891 258.099L364.535 257.628L363.876 253.697L365.71 253.171L366.352 257.107L367.702 256.72L367.043 252.789L368.859 252.268L369.501 256.204L370.418 255.941L370.882 257.755L369.706 258.093L370.056 260.164L371.423 259.772L371.872 261.535L370.315 261.981L371.079 266.799L369.279 267.315L368.498 262.502L367.149 262.889L367.93 267.702L366.13 268.218ZM366.873 261.077L368.239 260.685L367.906 258.609L366.557 258.996L366.873 261.077ZM378.962 264.764C378.086 265.015 377.308 265.069 376.631 264.926C375.953 264.784 375.372 264.432 374.887 263.872C374.398 263.301 373.988 262.501 373.656 261.473L376.189 260.316C376.372 260.912 376.563 261.382 376.761 261.724C376.971 262.064 377.185 262.289 377.405 262.401C377.636 262.51 377.878 262.528 378.132 262.455C378.455 262.362 378.631 262.193 378.66 261.948C378.701 261.699 378.687 261.453 378.618 261.211C378.452 260.634 378.175 260.189 377.786 259.877C377.393 259.552 376.902 259.256 376.314 258.988L374.8 258.28C374.14 257.982 373.545 257.603 373.014 257.144C372.491 256.67 372.108 256.012 371.867 255.17C371.526 253.982 371.618 252.975 372.143 252.15C372.665 251.314 373.532 250.723 374.743 250.375C375.493 250.16 376.129 250.115 376.651 250.24C377.186 250.361 377.628 250.597 377.977 250.946C378.335 251.28 378.621 251.666 378.834 252.105C379.055 252.528 379.231 252.946 379.362 253.358L376.791 254.45C376.661 254.038 376.529 253.689 376.397 253.402C376.273 253.101 376.125 252.888 375.952 252.762C375.775 252.626 375.554 252.596 375.289 252.672C375.001 252.754 374.822 252.937 374.753 253.219C374.695 253.497 374.702 253.758 374.771 254C374.92 254.519 375.163 254.911 375.501 255.176C375.848 255.426 376.274 255.672 376.78 255.914L378.232 256.603C378.993 256.946 379.675 257.387 380.278 257.926C380.894 258.461 381.34 259.213 381.618 260.182C381.807 260.839 381.829 261.482 381.684 262.11C381.537 262.727 381.231 263.27 380.766 263.741C380.313 264.208 379.712 264.549 378.962 264.764ZM384.071 263.074L380.052 249.059L384.758 247.709C385.6 247.468 386.339 247.431 386.973 247.598C387.605 247.754 388.141 248.1 388.581 248.635C389.019 249.159 389.361 249.854 389.609 250.719C389.92 251.803 389.98 252.685 389.788 253.364C389.592 254.032 389.22 254.563 388.671 254.957C388.123 255.352 387.468 255.658 386.707 255.877L385.461 256.234L387.168 262.186L384.071 263.074ZM384.841 254.071L385.879 253.773C386.26 253.664 386.528 253.512 386.685 253.318C386.841 253.123 386.908 252.879 386.887 252.586C386.876 252.289 386.81 251.927 386.688 251.5C386.585 251.143 386.467 250.84 386.333 250.591C386.208 250.327 386.024 250.143 385.781 250.037C385.539 249.932 385.21 249.939 384.795 250.058L383.774 250.351L384.841 254.071ZM398.029 259.296C396.979 259.597 396.096 259.651 395.379 259.457C394.662 259.263 394.071 258.858 393.607 258.242C393.144 257.626 392.774 256.839 392.5 255.882L391.006 250.674C390.729 249.705 390.625 248.842 390.695 248.086C390.765 247.329 391.055 246.684 391.563 246.151C392.069 245.607 392.847 245.184 393.896 244.883C394.957 244.579 395.847 244.524 396.564 244.717C397.289 244.896 397.882 245.288 398.343 245.893C398.803 246.497 399.172 247.284 399.45 248.253L400.944 253.461C401.218 254.418 401.322 255.281 401.255 256.049C401.188 256.817 400.896 257.475 400.379 258.023C399.874 258.568 399.09 258.992 398.029 259.296ZM397.399 257.099C397.722 257.006 397.935 256.858 398.039 256.653C398.143 256.449 398.181 256.213 398.154 255.946C398.128 255.679 398.077 255.413 398 255.147L396.065 248.399C395.986 248.122 395.889 247.87 395.773 247.641C395.654 247.4 395.496 247.221 395.3 247.102C395.104 246.984 394.844 246.971 394.521 247.063C394.221 247.149 394.02 247.294 393.916 247.499C393.812 247.703 393.774 247.939 393.8 248.206C393.824 248.462 393.875 248.728 393.955 249.005L395.89 255.753C395.966 256.018 396.057 256.273 396.165 256.516C396.284 256.757 396.435 256.938 396.62 257.06C396.816 257.178 397.076 257.191 397.399 257.099ZM404.094 257.333L400.075 243.317L403.933 242.211C404.879 241.94 405.728 241.809 406.48 241.818C407.231 241.827 407.875 242.048 408.411 242.481C408.956 242.899 409.368 243.599 409.65 244.579C409.815 245.156 409.916 245.682 409.953 246.159C409.989 246.635 409.929 247.077 409.771 247.484C409.621 247.877 409.347 248.249 408.949 248.6L412.814 254.832L409.613 255.75L406.272 249.911L405.39 250.164L407.191 256.444L404.094 257.333ZM404.879 248.381L405.744 248.133C406.182 248.008 406.501 247.835 406.7 247.616C406.896 247.385 406.999 247.112 407.009 246.797C407.026 246.467 406.976 246.095 406.857 245.68C406.685 245.08 406.441 244.644 406.126 244.372C405.811 244.101 405.359 244.049 404.771 244.218L403.767 244.506L404.879 248.381ZM415.546 254.049L412.187 242.335L410.076 242.94L409.416 240.639L416.735 238.54L417.395 240.841L415.301 241.442L418.66 253.156L415.546 254.049ZM425.767 251.342C424.891 251.594 424.114 251.648 423.436 251.505C422.758 251.363 422.177 251.011 421.692 250.451C421.203 249.88 420.793 249.08 420.461 248.052L422.994 246.895C423.177 247.491 423.368 247.961 423.566 248.303C423.776 248.643 423.991 248.868 424.21 248.98C424.441 249.089 424.683 249.107 424.937 249.034C425.26 248.941 425.436 248.772 425.466 248.527C425.507 248.278 425.492 248.032 425.423 247.79C425.257 247.213 424.98 246.768 424.591 246.455C424.198 246.131 423.707 245.835 423.119 245.567L421.605 244.859C420.945 244.561 420.35 244.182 419.819 243.723C419.296 243.249 418.914 242.591 418.672 241.748C418.331 240.56 418.424 239.554 418.949 238.729C419.47 237.893 420.337 237.301 421.548 236.954C422.298 236.739 422.934 236.694 423.457 236.819C423.991 236.94 424.433 237.175 424.783 237.525C425.141 237.859 425.426 238.245 425.639 238.683C425.86 239.107 426.036 239.524 426.167 239.936L423.597 241.029C423.466 240.617 423.335 240.268 423.202 239.981C423.079 239.68 422.93 239.466 422.757 239.341C422.58 239.205 422.359 239.174 422.094 239.25C421.806 239.333 421.627 239.515 421.558 239.797C421.501 240.076 421.507 240.336 421.576 240.579C421.725 241.098 421.968 241.49 422.307 241.755C422.653 242.005 423.079 242.251 423.586 242.493L425.038 243.181C425.798 243.525 426.48 243.966 427.084 244.505C427.699 245.04 428.146 245.792 428.423 246.761C428.612 247.418 428.634 248.061 428.49 248.689C428.342 249.306 428.036 249.849 427.571 250.32C427.118 250.786 426.517 251.127 425.767 251.342ZM432 249.33L426.286 235.801L428.916 235.047L432.088 242.976L430.807 234.524L432.866 233.933L436.295 241.714L434.816 233.355L437.412 232.611L439.752 247.108L437.053 247.882L433.433 239.763L434.734 248.546L432 249.33ZM442.94 246.193L438.921 232.178L445.22 230.372L445.825 232.483L442.624 233.401L443.621 236.879L446.061 236.179L446.676 238.325L444.236 239.024L445.437 243.212L448.673 242.284L449.273 244.378L442.94 246.193ZM450.004 244.168L448.633 229.394L452.163 228.381L458.794 241.647L455.939 242.466L454.624 239.641L452.565 240.232L452.929 243.329L450.004 244.168ZM452.311 238.301L453.799 237.874L451.487 232.62L452.311 238.301ZM460.209 241.242L456.19 227.226L460.049 226.12C460.995 225.849 461.844 225.718 462.595 225.727C463.347 225.736 463.991 225.957 464.527 226.39C465.071 226.808 465.484 227.508 465.765 228.488C465.93 229.065 466.032 229.591 466.068 230.068C466.105 230.544 466.044 230.986 465.887 231.393C465.737 231.786 465.463 232.158 465.064 232.509L468.93 238.741L465.729 239.659L462.388 233.82L461.505 234.073L463.306 240.354L460.209 241.242ZM460.994 232.29L461.859 232.042C462.298 231.917 462.617 231.744 462.816 231.525C463.012 231.294 463.115 231.021 463.124 230.706C463.142 230.376 463.091 230.004 462.972 229.589C462.8 228.989 462.557 228.553 462.242 228.281C461.926 228.01 461.475 227.958 460.887 228.127L459.883 228.415L460.994 232.29Z" fill="white"/>
<path d="M509.358 227.148L508.56 222.34L507.608 222.613L507.159 220.851L508.301 220.523L507.968 218.447L506.601 218.839L506.119 217.029L507.763 216.558L507.104 212.627L508.938 212.101L509.58 216.037L510.93 215.65L510.271 211.719L512.087 211.198L512.729 215.134L513.646 214.871L514.11 216.685L512.934 217.023L513.284 219.094L514.651 218.702L515.1 220.465L513.543 220.911L514.307 225.729L512.507 226.245L511.726 221.432L510.377 221.819L511.158 226.632L509.358 227.148ZM510.101 220.007L511.467 219.615L511.134 217.539L509.785 217.926L510.101 220.007ZM518.411 224.553L514.392 210.537L520.448 208.801L521.048 210.895L518.089 211.743L519.101 215.273L521.68 214.533L522.3 216.696L519.722 217.436L521.508 223.665L518.411 224.553ZM525.93 222.396L521.911 208.381L525.009 207.493L529.027 221.508L525.93 222.396ZM532.38 220.547L529.021 208.833L526.911 209.438L526.251 207.137L533.57 205.038L534.23 207.34L532.136 207.94L535.495 219.654L532.38 220.547ZM538.822 218.7L534.804 204.684L536.984 204.059L541.791 209.984L539.856 203.236L542.417 202.501L546.436 216.517L544.342 217.117L539.386 210.673L541.47 217.941L538.822 218.7ZM548.521 215.919L544.503 201.903L550.801 200.097L551.406 202.208L548.205 203.126L549.202 206.604L551.642 205.904L552.257 208.05L549.818 208.75L551.018 212.937L554.254 212.009L554.854 214.103L548.521 215.919ZM560.04 212.84C559.163 213.092 558.386 213.146 557.709 213.003C557.031 212.861 556.45 212.509 555.964 211.949C555.476 211.378 555.066 210.578 554.733 209.55L557.266 208.393C557.45 208.989 557.641 209.459 557.839 209.801C558.049 210.141 558.263 210.366 558.482 210.478C558.713 210.587 558.956 210.605 559.209 210.532C559.532 210.439 559.709 210.27 559.738 210.024C559.779 209.776 559.765 209.53 559.695 209.288C559.53 208.711 559.253 208.266 558.863 207.953C558.471 207.629 557.98 207.333 557.391 207.065L555.877 206.357C555.218 206.059 554.622 205.68 554.091 205.221C553.568 204.747 553.186 204.089 552.945 203.246C552.604 202.058 552.696 201.052 553.221 200.227C553.743 199.391 554.609 198.799 555.82 198.452C556.57 198.237 557.206 198.192 557.729 198.317C558.263 198.438 558.705 198.673 559.055 199.023C559.413 199.357 559.699 199.743 559.912 200.181C560.133 200.605 560.309 201.022 560.439 201.434L557.869 202.527C557.739 202.115 557.607 201.766 557.475 201.479C557.351 201.178 557.203 200.964 557.029 200.839C556.853 200.703 556.632 200.672 556.367 200.748C556.078 200.831 555.9 201.013 555.831 201.295C555.773 201.574 555.779 201.834 555.849 202.077C555.998 202.596 556.241 202.988 556.579 203.253C556.926 203.503 557.352 203.749 557.858 203.991L559.31 204.679C560.07 205.023 560.752 205.464 561.356 206.003C561.972 206.538 562.418 207.29 562.696 208.259C562.884 208.916 562.907 209.559 562.762 210.187C562.614 210.804 562.308 211.347 561.844 211.818C561.391 212.284 560.79 212.625 560.04 212.84ZM568.641 210.374C567.764 210.626 566.987 210.68 566.309 210.537C565.632 210.394 565.05 210.043 564.565 209.483C564.077 208.912 563.666 208.112 563.334 207.083L565.867 205.926C566.051 206.523 566.242 206.992 566.44 207.335C566.649 207.674 566.864 207.9 567.083 208.012C567.314 208.121 567.556 208.138 567.81 208.066C568.133 207.973 568.309 207.804 568.339 207.558C568.38 207.309 568.365 207.064 568.296 206.822C568.131 206.245 567.853 205.8 567.464 205.487C567.071 205.163 566.581 204.867 565.992 204.598L564.478 203.89C563.819 203.593 563.223 203.214 562.692 202.755C562.169 202.28 561.787 201.622 561.545 200.78C561.205 199.592 561.297 198.586 561.822 197.761C562.344 196.925 563.21 196.333 564.421 195.986C565.171 195.771 565.807 195.726 566.33 195.85C566.864 195.972 567.306 196.207 567.656 196.556C568.014 196.891 568.299 197.277 568.512 197.715C568.734 198.139 568.91 198.556 569.04 198.968L566.47 200.061C566.339 199.649 566.208 199.3 566.076 199.013C565.952 198.712 565.803 198.498 565.63 198.373C565.454 198.236 565.233 198.206 564.967 198.282C564.679 198.365 564.5 198.547 564.431 198.829C564.374 199.108 564.38 199.368 564.449 199.61C564.598 200.13 564.842 200.522 565.18 200.787C565.526 201.037 565.953 201.283 566.459 201.525L567.911 202.213C568.671 202.557 569.353 202.998 569.957 203.536C570.572 204.072 571.019 204.824 571.297 205.793C571.485 206.45 571.507 207.093 571.363 207.721C571.215 208.338 570.909 208.881 570.445 209.351C569.992 209.818 569.39 210.159 568.641 210.374Z" fill="white"/>
<path d="M613.174 197.38L612.376 192.571L611.424 192.844L610.975 191.082L612.117 190.754L611.784 188.678L610.417 189.07L609.936 187.26L611.579 186.789L610.92 182.858L612.755 182.332L613.396 186.268L614.746 185.881L614.087 181.95L615.904 181.429L616.545 185.365L617.462 185.102L617.926 186.916L616.75 187.254L617.1 189.325L618.467 188.933L618.917 190.696L617.359 191.142L618.123 195.961L616.323 196.477L615.542 191.663L614.193 192.05L614.974 196.864L613.174 197.38ZM613.917 190.238L615.284 189.846L614.95 187.77L613.601 188.157L613.917 190.238ZM622.279 194.769L618.26 180.754L621.357 179.866L622.984 185.541L625.165 184.916L623.537 179.241L626.634 178.352L630.653 192.368L627.556 193.256L625.8 187.131L623.62 187.756L625.376 193.881L622.279 194.769ZM632.788 191.756L628.769 177.74L635.067 175.934L635.672 178.045L632.471 178.963L633.468 182.441L635.908 181.742L636.523 183.887L634.084 184.587L635.284 188.774L638.52 187.846L639.12 189.94L632.788 191.756ZM639.852 189.73L638.48 174.956L642.01 173.944L648.641 187.21L645.786 188.028L644.471 185.203L642.412 185.794L642.776 188.892L639.852 189.73ZM642.158 183.863L643.646 183.436L641.334 178.182L642.158 183.863ZM650.056 186.804L646.038 172.789L649.135 171.901L652.553 183.822L655.772 182.899L656.372 184.993L650.056 186.804ZM657.791 184.586L654.432 172.872L652.321 173.477L651.661 171.176L658.98 169.077L659.64 171.379L657.547 171.979L660.906 183.693L657.791 184.586ZM664.285 182.724L660.266 168.709L663.363 167.821L664.991 173.496L667.171 172.871L665.544 167.195L668.641 166.307L672.66 180.322L669.562 181.211L667.806 175.085L665.626 175.711L667.382 181.836L664.285 182.724Z" fill="white"/>
<path d="M714.107 168.438L713.308 163.629L712.357 163.902L711.908 162.14L713.05 161.812L712.716 159.736L711.349 160.128L710.868 158.318L712.512 157.847L711.853 153.916L713.687 153.39L714.329 157.326L715.678 156.939L715.019 153.008L716.836 152.487L717.478 156.423L718.395 156.16L718.859 157.974L717.682 158.312L718.033 160.383L719.4 159.992L719.849 161.754L718.292 162.201L719.055 167.019L717.256 167.535L716.475 162.721L715.125 163.108L715.906 167.922L714.107 168.438ZM714.849 161.296L716.216 160.904L715.883 158.828L714.533 159.215L714.849 161.296ZM724.284 165.519L718.569 151.99L721.199 151.236L724.372 159.165L723.09 150.713L725.149 150.122L728.579 157.903L727.1 149.544L729.695 148.8L732.035 163.297L729.336 164.071L725.716 155.952L727.018 164.736L724.284 165.519ZM739.297 161.439C738.248 161.74 737.364 161.794 736.647 161.6C735.93 161.406 735.339 161.001 734.876 160.385C734.412 159.769 734.043 158.982 733.768 158.025L732.275 152.817C731.997 151.848 731.893 150.985 731.963 150.228C732.033 149.472 732.323 148.827 732.832 148.294C733.337 147.75 734.115 147.327 735.165 147.026C736.226 146.722 737.115 146.666 737.832 146.86C738.558 147.039 739.151 147.431 739.611 148.035C740.072 148.64 740.441 149.427 740.719 150.396L742.212 155.604C742.486 156.561 742.59 157.424 742.523 158.192C742.457 158.96 742.165 159.618 741.648 160.166C741.142 160.71 740.359 161.135 739.297 161.439ZM738.667 159.242C738.99 159.149 739.204 159 739.307 158.796C739.411 158.591 739.45 158.356 739.423 158.089C739.396 157.822 739.345 157.556 739.269 157.29L737.334 150.542C737.254 150.265 737.157 150.012 737.041 149.783C736.922 149.543 736.765 149.363 736.569 149.245C736.372 149.126 736.113 149.113 735.79 149.206C735.49 149.292 735.288 149.437 735.184 149.642C735.081 149.846 735.042 150.082 735.069 150.349C735.092 150.604 735.144 150.871 735.223 151.147L737.158 157.896C737.234 158.161 737.326 158.415 737.433 158.659C737.552 158.9 737.704 159.081 737.889 159.203C738.085 159.321 738.344 159.334 738.667 159.242ZM745.362 159.475L741.343 145.46L745.202 144.354C746.148 144.083 746.996 143.951 747.748 143.961C748.5 143.97 749.144 144.191 749.68 144.624C750.224 145.042 750.637 145.741 750.918 146.722C751.083 147.299 751.184 147.825 751.221 148.302C751.258 148.778 751.197 149.22 751.039 149.627C750.89 150.019 750.616 150.391 750.217 150.743L754.083 156.975L750.882 157.893L747.541 152.053L746.658 152.306L748.459 158.587L745.362 159.475ZM746.147 150.524L747.012 150.276C747.451 150.15 747.769 149.978 747.969 149.758C748.165 149.527 748.267 149.255 748.277 148.94C748.295 148.61 748.244 148.238 748.125 147.822C747.953 147.222 747.71 146.787 747.394 146.515C747.079 146.243 746.628 146.192 746.039 146.361L745.036 146.648L746.147 150.524ZM755.737 156.5L751.718 142.485L754.815 141.597L756.458 147.324L757.168 140.922L760.196 140.054L759.417 147.131L764.336 154.035L761.187 154.938L757.387 149.324L757.217 149.972L758.834 155.612L755.737 156.5ZM769.239 152.853C768.19 153.154 767.306 153.208 766.589 153.014C765.872 152.82 765.281 152.415 764.817 151.799C764.354 151.183 763.985 150.397 763.71 149.439L762.217 144.231C761.939 143.262 761.835 142.399 761.905 141.643C761.975 140.886 762.265 140.241 762.774 139.708C763.279 139.164 764.057 138.741 765.106 138.44C766.168 138.136 767.057 138.081 767.774 138.274C768.499 138.453 769.092 138.845 769.553 139.45C770.013 140.054 770.383 140.841 770.66 141.81L772.154 147.018C772.428 147.975 772.532 148.838 772.465 149.606C772.398 150.375 772.106 151.033 771.589 151.58C771.084 152.125 770.301 152.549 769.239 152.853ZM768.609 150.656C768.932 150.563 769.145 150.415 769.249 150.21C769.353 150.006 769.391 149.77 769.365 149.503C769.338 149.236 769.287 148.97 769.211 148.705L767.276 141.956C767.196 141.68 767.099 141.427 766.983 141.198C766.864 140.957 766.707 140.778 766.51 140.659C766.314 140.541 766.055 140.528 765.732 140.62C765.432 140.706 765.23 140.852 765.126 141.056C765.023 141.261 764.984 141.496 765.011 141.763C765.034 142.019 765.085 142.285 765.165 142.562L767.1 149.31C767.176 149.575 767.267 149.83 767.375 150.074C767.494 150.314 767.646 150.495 767.83 150.617C768.027 150.736 768.286 150.749 768.609 150.656ZM779.412 149.936C778.339 150.244 777.448 150.312 776.737 150.142C776.035 149.956 775.467 149.563 775.033 148.964C774.595 148.353 774.236 147.557 773.955 146.576L771.181 136.904L774.244 136.026L777.151 146.165C777.234 146.454 777.34 146.736 777.469 147.011C777.597 147.286 777.763 147.494 777.966 147.636C778.18 147.774 778.449 147.797 778.772 147.704C779.107 147.608 779.322 147.447 779.42 147.219C779.517 146.991 779.541 146.729 779.493 146.43C779.456 146.129 779.397 145.834 779.314 145.545L776.407 135.406L779.487 134.523L782.26 144.195C782.541 145.175 782.652 146.042 782.594 146.796C782.543 147.534 782.27 148.168 781.772 148.698C781.272 149.216 780.485 149.629 779.412 149.936ZM786.739 147.611L783.38 135.897L781.269 136.502L780.609 134.201L787.928 132.102L788.588 134.403L786.495 135.004L789.854 146.718L786.739 147.611Z" fill="white"/>
<path d="M832.342 134.534L831.544 129.726L830.592 129.999L830.143 128.236L831.285 127.909L830.952 125.832L829.585 126.224L829.103 124.415L830.747 123.944L830.088 120.013L831.922 119.487L832.564 123.423L833.914 123.036L833.255 119.105L835.071 118.584L835.713 122.52L836.63 122.257L837.094 124.071L835.918 124.408L836.268 126.48L837.635 126.088L838.084 127.851L836.527 128.297L837.291 133.115L835.491 133.631L834.71 128.818L833.361 129.205L834.142 134.018L832.342 134.534ZM833.084 127.393L834.451 127.001L834.118 124.924L832.768 125.311L833.084 127.393ZM845.468 130.995C844.407 131.299 843.51 131.351 842.778 131.148C842.055 130.932 841.466 130.513 841.014 129.894C840.559 129.263 840.195 128.475 839.924 127.529L838.475 122.477C838.198 121.508 838.086 120.641 838.142 119.876C838.194 119.099 838.471 118.433 838.973 117.877C839.487 117.318 840.274 116.886 841.335 116.582C842.374 116.284 843.231 116.226 843.907 116.406C844.591 116.572 845.142 116.926 845.559 117.468C845.977 118.01 846.3 118.679 846.528 119.475L846.875 120.686L843.847 121.554L843.445 120.153C843.366 119.876 843.273 119.615 843.165 119.372C843.069 119.124 842.929 118.94 842.744 118.818C842.556 118.685 842.295 118.666 841.961 118.762C841.638 118.855 841.42 119.011 841.308 119.23C841.208 119.446 841.173 119.693 841.203 119.972C841.241 120.236 841.301 120.512 841.384 120.8L843.274 127.392C843.364 127.704 843.469 127.985 843.591 128.238C843.722 128.475 843.885 128.653 844.082 128.771C844.286 128.875 844.538 128.884 844.838 128.798C845.161 128.705 845.369 128.558 845.461 128.357C845.55 128.144 845.573 127.9 845.532 127.625C845.49 127.35 845.43 127.074 845.351 126.797L844.929 125.326L847.957 124.458L848.304 125.669C848.532 126.465 848.616 127.215 848.556 127.919C848.504 128.608 848.237 129.221 847.754 129.759C847.28 130.282 846.518 130.694 845.468 130.995ZM855.218 128.199C854.168 128.5 853.285 128.554 852.568 128.36C851.85 128.166 851.26 127.761 850.796 127.145C850.332 126.529 849.963 125.743 849.689 124.785L848.195 119.577C847.917 118.608 847.814 117.745 847.884 116.989C847.954 116.232 848.243 115.587 848.752 115.054C849.258 114.51 850.035 114.087 851.085 113.786C852.146 113.482 853.035 113.427 853.753 113.621C854.478 113.8 855.071 114.191 855.532 114.796C855.992 115.4 856.361 116.187 856.639 117.156L858.132 122.364C858.407 123.321 858.511 124.184 858.444 124.952C858.377 125.721 858.085 126.379 857.568 126.926C857.063 127.471 856.279 127.895 855.218 128.199ZM854.588 126.002C854.911 125.909 855.124 125.761 855.228 125.556C855.331 125.352 855.37 125.116 855.343 124.849C855.317 124.582 855.265 124.316 855.189 124.051L853.254 117.303C853.175 117.026 853.077 116.773 852.962 116.544C852.843 116.303 852.685 116.124 852.489 116.005C852.293 115.887 852.033 115.874 851.71 115.966C851.41 116.052 851.208 116.198 851.105 116.402C851.001 116.607 850.963 116.842 850.989 117.109C851.013 117.365 851.064 117.631 851.143 117.908L853.078 124.656C853.154 124.921 853.246 125.176 853.354 125.42C853.472 125.66 853.624 125.841 853.809 125.963C854.005 126.082 854.265 126.095 854.588 126.002ZM860.388 126.492L859.017 111.718L862.546 110.706L869.178 123.972L866.323 124.79L865.007 121.966L862.948 122.556L863.312 125.654L860.388 126.492ZM862.694 120.625L864.182 120.199L861.87 114.944L862.694 120.625ZM874.447 122.686C873.386 122.99 872.489 123.041 871.757 122.839C871.033 122.622 870.445 122.204 869.993 121.585C869.537 120.954 869.174 120.165 868.903 119.219L867.454 114.167C867.176 113.198 867.065 112.331 867.12 111.566C867.172 110.79 867.449 110.124 867.952 109.568C868.465 109.009 869.253 108.577 870.314 108.272C871.352 107.975 872.209 107.916 872.885 108.097C873.569 108.263 874.12 108.617 874.538 109.159C874.955 109.7 875.278 110.369 875.507 111.165L875.854 112.376L872.826 113.245L872.424 111.843C872.345 111.566 872.251 111.306 872.144 111.062C872.048 110.815 871.908 110.63 871.723 110.509C871.535 110.375 871.274 110.357 870.939 110.453C870.616 110.545 870.399 110.701 870.287 110.92C870.187 111.137 870.151 111.384 870.181 111.662C870.219 111.926 870.28 112.202 870.363 112.49L872.253 119.083C872.342 119.394 872.448 119.676 872.57 119.928C872.701 120.165 872.864 120.343 873.06 120.462C873.265 120.565 873.517 120.574 873.817 120.488C874.14 120.396 874.347 120.249 874.439 120.047C874.528 119.835 874.552 119.591 874.51 119.316C874.469 119.04 874.409 118.764 874.329 118.487L873.907 117.017L876.935 116.148L877.283 117.36C877.511 118.156 877.595 118.905 877.535 119.609C877.483 120.298 877.215 120.912 876.733 121.45C876.259 121.973 875.497 122.385 874.447 122.686ZM880.175 120.818L876.156 106.803L879.253 105.915L880.88 111.59L883.061 110.965L881.433 105.29L884.53 104.402L888.549 118.417L885.452 119.305L883.696 113.18L881.516 113.805L883.272 119.93L880.175 120.818Z" fill="white"/>
<path d="M929.429 106.695L928.631 101.887L927.68 102.16L927.23 100.397L928.372 100.07L928.039 97.993L926.672 98.385L926.191 96.5756L927.835 96.1043L927.176 92.1736L929.01 91.6477L929.651 95.5833L931.001 95.1963L930.342 91.2657L932.159 90.7447L932.8 94.6803L933.717 94.4174L934.182 96.2317L933.005 96.5691L933.356 98.6407L934.722 98.2488L935.172 100.011L933.614 100.458L934.378 105.276L932.579 105.792L931.798 100.979L930.448 101.366L931.229 106.179L929.429 106.695ZM930.172 99.5536L931.539 99.1617L931.205 97.0851L929.856 97.4721L930.172 99.5536ZM939.745 103.737L936.386 92.023L934.275 92.6283L933.615 90.3271L940.934 88.2284L941.594 90.5296L939.501 91.13L942.859 102.844L939.745 103.737ZM946.187 101.89L942.168 87.8745L946.027 86.7681C946.973 86.4969 947.821 86.3659 948.573 86.3751C949.325 86.3842 949.969 86.6053 950.505 87.0383C951.049 87.4565 951.462 88.1558 951.743 89.1363C951.908 89.713 952.009 90.2396 952.046 90.7159C952.083 91.1922 952.022 91.6341 951.864 92.0413C951.715 92.4338 951.441 92.8057 951.042 93.1572L954.908 99.3892L951.707 100.307L948.366 94.4677L947.483 94.7208L949.284 101.002L946.187 101.89ZM946.972 92.9386L947.837 92.6905C948.276 92.5648 948.594 92.3923 948.794 92.1728C948.99 91.9419 949.092 91.669 949.102 91.3541C949.12 91.0245 949.069 90.652 948.95 90.2367C948.778 89.6369 948.535 89.2012 948.219 88.9295C947.904 88.6578 947.453 88.6063 946.864 88.775L945.861 89.0628L946.972 92.9386ZM955.887 99.1083L954.516 84.334L958.045 83.3219L964.677 96.5879L961.822 97.4065L960.506 94.5817L958.447 95.1721L958.811 98.2698L955.887 99.1083ZM958.193 93.2413L959.681 92.8147L957.369 87.5603L958.193 93.2413ZM966.109 96.1771L962.09 82.162L965.188 81.2738L969.206 95.289L966.109 96.1771ZM971.296 94.6898L967.277 80.6746L969.458 80.0494L974.265 85.9739L972.33 79.2258L974.891 78.4915L978.909 92.5067L976.816 93.1071L971.86 86.6635L973.944 93.9307L971.296 94.6898ZM981.013 91.9037L976.994 77.8885L980.091 77.0004L984.11 91.0156L981.013 91.9037ZM986.2 90.4163L982.181 76.4011L984.361 75.776L989.168 81.7004L987.233 74.9524L989.794 74.2181L993.813 88.2333L991.719 88.8336L986.763 82.3901L988.847 89.6572L986.2 90.4163ZM999.609 86.796C998.64 87.0738 997.815 87.0919 997.134 86.8502C996.465 86.6053 995.905 86.1542 995.454 85.4969C995.012 84.8248 994.653 84.0101 994.379 83.0526L993.029 78.3463C992.745 77.3543 992.625 76.4585 992.67 75.6591C992.716 74.8596 992.988 74.1761 993.487 73.6086C993.994 73.0262 994.778 72.5829 995.839 72.2786C996.878 71.9809 997.74 71.9208 998.428 72.0981C999.127 72.2722 999.691 72.6285 1000.12 73.1671C1000.55 73.7057 1000.88 74.3845 1001.12 75.2035L1001.37 76.1032L998.346 76.9715L998.019 75.8295C997.933 75.5296 997.83 75.2594 997.711 75.0188C997.604 74.775 997.454 74.5996 997.261 74.4926C997.076 74.3708 996.822 74.3562 996.499 74.4488C996.165 74.5447 995.949 74.7065 995.852 74.9341C995.751 75.1501 995.716 75.3974 995.746 75.6759C995.788 75.9511 995.85 76.2329 995.932 76.5213L997.793 83.0098C997.882 83.3213 997.995 83.6072 998.133 83.8675C998.278 84.1129 998.456 84.299 998.667 84.4257C998.886 84.5376 999.152 84.5489 999.463 84.4596C999.786 84.367 1000.01 84.2094 1000.13 83.9867C1000.26 83.7641 1000.31 83.5044 1000.3 83.2077C1000.29 82.911 1000.24 82.607 1000.15 82.2955L999.682 80.6517L998.419 81.0139L997.898 79.1972L1001.95 78.0362L1004.03 85.3033L1001.99 85.8888L1001.48 84.7791C1001.41 85.2242 1001.23 85.6307 1000.95 85.9985C1000.67 86.3548 1000.22 86.6207 999.609 86.796Z" fill="white"/>
</svg>
