<svg width="42" height="42" viewBox="0 0 42 42" fill="none" xmlns="http://www.w3.org/2000/svg">
<rect width="42" height="42" fill="#FF6C2E"/>
<path d="M17.2051 15.7498C17.2049 16.1476 17.0467 16.5291 16.7652 16.8102C16.4838 17.0914 16.1022 17.2492 15.7043 17.249C15.3065 17.2488 14.9251 17.0906 14.6439 16.8092C14.3627 16.5277 14.2049 16.1461 14.2051 15.7483C14.2053 15.3504 14.3635 14.969 14.6449 14.6878C14.9264 14.4067 15.308 14.2488 15.7058 14.249C16.1037 14.2492 16.4851 14.4074 16.7663 14.6889C17.0474 14.9703 17.2053 15.3519 17.2051 15.7498ZM17.2501 18.3598H14.2501V27.7498H17.2501V18.3598ZM21.9901 18.3598H19.0051V27.7498H21.9601V22.8223C21.9601 20.0773 25.5376 19.8223 25.5376 22.8223V27.7498H28.5001V21.8023C28.5001 17.1748 23.2051 17.3473 21.9601 19.6198L21.9901 18.3598Z" fill="white"/>
</svg>
