<svg width="11" height="22" viewBox="0 0 11 22" fill="none" xmlns="http://www.w3.org/2000/svg">
<g clip-path="url(#clip0_2218_2591)">
<path d="M4.71045 17.7175C0.737461 11.9579 0 11.3668 0 9.25C0 6.3505 2.3505 4 5.25 4C8.1495 4 10.5 6.3505 10.5 9.25C10.5 11.3668 9.76254 11.9579 5.78955 17.7175C5.52882 18.0942 4.97115 18.0941 4.71045 17.7175ZM5.25 11.4375C6.45813 11.4375 7.4375 10.4581 7.4375 9.25C7.4375 8.04187 6.45813 7.0625 5.25 7.0625C4.04187 7.0625 3.0625 8.04187 3.0625 9.25C3.0625 10.4581 4.04187 11.4375 5.25 11.4375Z" fill="#FF6C2E"/>
</g>
<defs>
<clipPath id="clip0_2218_2591">
<rect width="10.5" height="14" fill="white" transform="translate(0 4)"/>
</clipPath>
</defs>
</svg>
