<svg width="153" height="28" viewBox="0 0 153 28" fill="none" xmlns="http://www.w3.org/2000/svg">
<path d="M0 14C0 6.26801 6.26801 0 14 0H139C146.732 0 153 6.26801 153 14C153 21.732 146.732 28 139 28H14C6.26801 28 0 21.732 0 14Z" fill="#343434"/>
<path d="M18.3667 18.0001L14.5667 14.2001L15.5167 13.2501L18.3667 16.1001L24.4833 9.9834L25.4333 10.9334L18.3667 18.0001Z" fill="#FF6C2E"/>
<path d="M33.6506 8.81818L36.6733 17.3892H36.7926L39.8153 8.81818H41.108L37.3693 19H36.0966L32.358 8.81818H33.6506ZM43.9268 8.81818V19H42.6939V8.81818H43.9268ZM46.399 19V8.81818H49.8393C50.6381 8.81818 51.291 8.96236 51.7981 9.25071C52.3085 9.53575 52.6864 9.92188 52.9316 10.4091C53.1769 10.8963 53.2995 11.4399 53.2995 12.0398C53.2995 12.6397 53.1769 13.1849 52.9316 13.6754C52.6897 14.166 52.3152 14.5571 51.8081 14.8487C51.301 15.1371 50.6513 15.2812 49.8592 15.2812H47.3933V14.1875H49.8194C50.3663 14.1875 50.8055 14.093 51.1369 13.9041C51.4683 13.7152 51.7086 13.46 51.8578 13.1385C52.0102 12.8137 52.0865 12.4474 52.0865 12.0398C52.0865 11.6321 52.0102 11.2675 51.8578 10.946C51.7086 10.6245 51.4667 10.3726 51.1319 10.1903C50.7972 10.0047 50.353 9.91193 49.7995 9.91193H47.6319V19H46.399ZM66.1834 12C66.074 11.6652 65.9299 11.3653 65.7509 11.1001C65.5752 10.8317 65.3648 10.603 65.1195 10.4141C64.8775 10.2251 64.6025 10.081 64.2942 9.98153C63.986 9.8821 63.6479 9.83239 63.28 9.83239C62.6768 9.83239 62.1283 9.98816 61.6344 10.2997C61.1406 10.6113 60.7478 11.0703 60.4561 11.6768C60.1645 12.2834 60.0186 13.0275 60.0186 13.9091C60.0186 14.7907 60.1661 15.5348 60.4611 16.1413C60.7561 16.7479 61.1555 17.2069 61.6593 17.5185C62.1631 17.83 62.7298 17.9858 63.3596 17.9858C63.9429 17.9858 64.4566 17.8615 64.9007 17.6129C65.3482 17.361 65.6962 17.0064 65.9448 16.549C66.1967 16.0883 66.3226 15.5464 66.3226 14.9233L66.7005 15.0028H63.638V13.9091H67.5158V15.0028C67.5158 15.8414 67.3368 16.5705 66.9789 17.1903C66.6242 17.8101 66.1337 18.2907 65.5073 18.6321C64.8842 18.9702 64.1683 19.1392 63.3596 19.1392C62.458 19.1392 61.6659 18.9271 60.9831 18.5028C60.3037 18.0786 59.7734 17.4754 59.3922 16.6932C59.0144 15.911 58.8255 14.983 58.8255 13.9091C58.8255 13.1037 58.9332 12.3795 59.1486 11.7365C59.3674 11.0902 59.6756 10.54 60.0733 10.0859C60.4711 9.63187 60.9417 9.28385 61.4853 9.0419C62.0288 8.79995 62.6271 8.67898 63.28 8.67898C63.8169 8.67898 64.3174 8.76018 64.7814 8.92258C65.2488 9.08168 65.6647 9.30871 66.0293 9.60369C66.3972 9.89536 66.7038 10.245 66.949 10.6527C67.1943 11.0571 67.3633 11.5062 67.4561 12H66.1834ZM70.2241 21.8636C70.0252 21.8636 69.8479 21.8471 69.6921 21.8139C69.5363 21.7841 69.4286 21.7543 69.369 21.7244L69.6673 20.6903C69.9523 20.7633 70.2042 20.7898 70.4229 20.7699C70.6417 20.75 70.8356 20.6522 71.0046 20.4766C71.177 20.3042 71.3344 20.0241 71.4769 19.6364L71.6957 19.0398L68.8718 11.3636H70.1445L72.2525 17.4489H72.332L74.44 11.3636H75.7127L72.4712 20.1136C72.3254 20.508 72.1448 20.8345 71.9293 21.093C71.7139 21.3549 71.4637 21.5488 71.1786 21.6747C70.8969 21.8007 70.5787 21.8636 70.2241 21.8636ZM77.2614 19V11.3636H78.3949V12.5568H78.4943C78.6534 12.1491 78.9103 11.8326 79.2649 11.6072C79.6196 11.3786 80.0455 11.2642 80.5426 11.2642C81.0464 11.2642 81.4657 11.3786 81.8004 11.6072C82.1385 11.8326 82.402 12.1491 82.5909 12.5568H82.6705C82.866 12.1624 83.1593 11.8492 83.5504 11.6172C83.9415 11.3819 84.4105 11.2642 84.9574 11.2642C85.6402 11.2642 86.1986 11.478 86.6328 11.9055C87.067 12.3298 87.2841 12.991 87.2841 13.8892V19H86.1108V13.8892C86.1108 13.3258 85.9567 12.9231 85.6484 12.6811C85.3402 12.4392 84.9773 12.3182 84.5597 12.3182C84.0227 12.3182 83.6068 12.4806 83.3118 12.8054C83.0168 13.1269 82.8693 13.5346 82.8693 14.0284V19H81.6761V13.7699C81.6761 13.3357 81.5353 12.986 81.2536 12.7209C80.9718 12.4524 80.6089 12.3182 80.1648 12.3182C79.8598 12.3182 79.5748 12.3994 79.3097 12.5618C79.0478 12.7242 78.8357 12.9496 78.6733 13.2379C78.5142 13.523 78.4347 13.8527 78.4347 14.2273V19H77.2614ZM93.9435 19H92.6509L96.3896 8.81818H97.6623L101.401 19H100.108L97.0657 10.429H96.9862L93.9435 19ZM94.4208 15.0227H99.631V16.1165H94.4208V15.0227ZM105.93 19.1591C105.214 19.1591 104.598 18.9901 104.081 18.652C103.564 18.3139 103.166 17.8482 102.887 17.255C102.609 16.6617 102.47 15.9839 102.47 15.2216C102.47 14.446 102.612 13.7616 102.897 13.1683C103.186 12.5717 103.587 12.1061 104.1 11.7713C104.618 11.4332 105.221 11.2642 105.91 11.2642C106.447 11.2642 106.931 11.3636 107.362 11.5625C107.793 11.7614 108.146 12.0398 108.421 12.3977C108.696 12.7557 108.867 13.1733 108.933 13.6506H107.76C107.67 13.3026 107.471 12.9943 107.163 12.7259C106.858 12.4541 106.447 12.3182 105.93 12.3182C105.473 12.3182 105.072 12.4375 104.727 12.6761C104.386 12.9115 104.119 13.2446 103.926 13.6754C103.738 14.103 103.643 14.6051 103.643 15.1818C103.643 15.7718 103.736 16.2855 103.922 16.723C104.11 17.1605 104.376 17.5002 104.717 17.7422C105.062 17.9841 105.466 18.1051 105.93 18.1051C106.235 18.1051 106.512 18.0521 106.76 17.946C107.009 17.84 107.219 17.6875 107.392 17.4886C107.564 17.2898 107.687 17.0511 107.76 16.7727H108.933C108.867 17.2235 108.703 17.6295 108.441 17.9908C108.182 18.3487 107.839 18.6338 107.412 18.8459C106.987 19.0547 106.493 19.1591 105.93 19.1591ZM113.75 19.1591C113.034 19.1591 112.418 18.9901 111.901 18.652C111.384 18.3139 110.986 17.8482 110.708 17.255C110.429 16.6617 110.29 15.9839 110.29 15.2216C110.29 14.446 110.433 13.7616 110.718 13.1683C111.006 12.5717 111.407 12.1061 111.921 11.7713C112.438 11.4332 113.041 11.2642 113.73 11.2642C114.267 11.2642 114.751 11.3636 115.182 11.5625C115.613 11.7614 115.966 12.0398 116.241 12.3977C116.516 12.7557 116.687 13.1733 116.753 13.6506H115.58C115.49 13.3026 115.292 12.9943 114.983 12.7259C114.678 12.4541 114.267 12.3182 113.75 12.3182C113.293 12.3182 112.892 12.4375 112.547 12.6761C112.206 12.9115 111.939 13.2446 111.747 13.6754C111.558 14.103 111.463 14.6051 111.463 15.1818C111.463 15.7718 111.556 16.2855 111.742 16.723C111.931 17.1605 112.196 17.5002 112.537 17.7422C112.882 17.9841 113.286 18.1051 113.75 18.1051C114.055 18.1051 114.332 18.0521 114.581 17.946C114.829 17.84 115.04 17.6875 115.212 17.4886C115.384 17.2898 115.507 17.0511 115.58 16.7727H116.753C116.687 17.2235 116.523 17.6295 116.261 17.9908C116.002 18.3487 115.659 18.6338 115.232 18.8459C114.808 19.0547 114.314 19.1591 113.75 19.1591ZM121.67 19.1591C120.934 19.1591 120.3 18.9967 119.766 18.6719C119.236 18.3438 118.826 17.8864 118.538 17.2997C118.253 16.7098 118.11 16.0237 118.11 15.2415C118.11 14.4593 118.253 13.7699 118.538 13.1733C118.826 12.5734 119.227 12.1061 119.741 11.7713C120.258 11.4332 120.861 11.2642 121.551 11.2642C121.949 11.2642 122.341 11.3305 122.729 11.4631C123.117 11.5956 123.47 11.8111 123.788 12.1094C124.106 12.4044 124.36 12.7955 124.549 13.2827C124.738 13.7699 124.832 14.3698 124.832 15.0824V15.5795H118.946V14.5653H123.639C123.639 14.1345 123.553 13.75 123.38 13.4119C123.211 13.0739 122.969 12.8071 122.654 12.6115C122.343 12.416 121.975 12.3182 121.551 12.3182C121.083 12.3182 120.679 12.4342 120.338 12.6662C120 12.8949 119.739 13.1932 119.557 13.5611C119.375 13.929 119.284 14.3234 119.284 14.7443V15.4205C119.284 15.9972 119.383 16.486 119.582 16.8871C119.784 17.2848 120.064 17.5881 120.422 17.7969C120.78 18.0024 121.196 18.1051 121.67 18.1051C121.978 18.1051 122.257 18.062 122.505 17.9759C122.757 17.8864 122.974 17.7538 123.157 17.5781C123.339 17.3991 123.48 17.1771 123.579 16.9119L124.713 17.2301C124.593 17.6146 124.393 17.9527 124.111 18.2443C123.829 18.5327 123.481 18.758 123.067 18.9205C122.653 19.0795 122.187 19.1591 121.67 19.1591ZM132.026 13.0739L130.972 13.3722C130.906 13.1965 130.808 13.0258 130.679 12.8601C130.553 12.6911 130.38 12.5518 130.162 12.4425C129.943 12.3331 129.663 12.2784 129.321 12.2784C128.854 12.2784 128.465 12.3861 128.153 12.6016C127.845 12.8137 127.691 13.0838 127.691 13.4119C127.691 13.7036 127.797 13.9339 128.009 14.103C128.221 14.272 128.552 14.4129 129.003 14.5256L130.137 14.804C130.819 14.9697 131.328 15.2232 131.663 15.5646C131.998 15.9027 132.165 16.3385 132.165 16.8722C132.165 17.3097 132.039 17.7008 131.787 18.0455C131.539 18.3902 131.191 18.6619 130.743 18.8608C130.296 19.0597 129.775 19.1591 129.182 19.1591C128.403 19.1591 127.759 18.9901 127.248 18.652C126.738 18.3139 126.415 17.8201 126.279 17.1705L127.392 16.892C127.498 17.303 127.699 17.6113 127.994 17.8168C128.292 18.0223 128.682 18.125 129.162 18.125C129.709 18.125 130.143 18.009 130.465 17.777C130.79 17.5417 130.952 17.2599 130.952 16.9318C130.952 16.6667 130.859 16.4446 130.674 16.2656C130.488 16.0833 130.203 15.9474 129.819 15.858L128.546 15.5597C127.846 15.3939 127.333 15.1371 127.005 14.7891C126.68 14.4377 126.517 13.9986 126.517 13.4716C126.517 13.0407 126.638 12.6596 126.88 12.3281C127.126 11.9967 127.459 11.7365 127.88 11.5476C128.304 11.3587 128.784 11.2642 129.321 11.2642C130.077 11.2642 130.67 11.4299 131.101 11.7614C131.535 12.0928 131.844 12.5303 132.026 13.0739ZM139.34 13.0739L138.286 13.3722C138.22 13.1965 138.122 13.0258 137.993 12.8601C137.867 12.6911 137.695 12.5518 137.476 12.4425C137.257 12.3331 136.977 12.2784 136.636 12.2784C136.169 12.2784 135.779 12.3861 135.468 12.6016C135.159 12.8137 135.005 13.0838 135.005 13.4119C135.005 13.7036 135.111 13.9339 135.323 14.103C135.535 14.272 135.867 14.4129 136.318 14.5256L137.451 14.804C138.134 14.9697 138.643 15.2232 138.977 15.5646C139.312 15.9027 139.48 16.3385 139.48 16.8722C139.48 17.3097 139.354 17.7008 139.102 18.0455C138.853 18.3902 138.505 18.6619 138.058 18.8608C137.61 19.0597 137.09 19.1591 136.497 19.1591C135.718 19.1591 135.073 18.9901 134.563 18.652C134.052 18.3139 133.729 17.8201 133.593 17.1705L134.707 16.892C134.813 17.303 135.013 17.6113 135.308 17.8168C135.607 18.0223 135.996 18.125 136.477 18.125C137.024 18.125 137.458 18.009 137.779 17.777C138.104 17.5417 138.267 17.2599 138.267 16.9318C138.267 16.6667 138.174 16.4446 137.988 16.2656C137.802 16.0833 137.517 15.9474 137.133 15.858L135.86 15.5597C135.161 15.3939 134.647 15.1371 134.319 14.7891C133.994 14.4377 133.832 13.9986 133.832 13.4716C133.832 13.0407 133.953 12.6596 134.195 12.3281C134.44 11.9967 134.773 11.7365 135.194 11.5476C135.618 11.3587 136.099 11.2642 136.636 11.2642C137.392 11.2642 137.985 11.4299 138.416 11.7614C138.85 12.0928 139.158 12.5303 139.34 13.0739Z" fill="#F5F5F5"/>
</svg>
