<svg width="152" height="28" viewBox="0 0 152 28" fill="none" xmlns="http://www.w3.org/2000/svg">
<path d="M0 14C0 6.26801 6.26801 0 14 0H138C145.732 0 152 6.26801 152 14C152 21.732 145.732 28 138 28H14C6.26801 28 0 21.732 0 14Z" fill="#343434"/>
<path d="M18.3667 18.0001L14.5667 14.2001L15.5167 13.2501L18.3667 16.1001L24.4833 9.9834L25.4333 10.9334L18.3667 18.0001Z" fill="#FF6C2E"/>
<path d="M33.233 19V8.81818H36.6733C37.4721 8.81818 38.125 8.96236 38.6321 9.25071C39.1425 9.53575 39.5204 9.92188 39.7656 10.4091C40.0109 10.8963 40.1335 11.4399 40.1335 12.0398C40.1335 12.6397 40.0109 13.1849 39.7656 13.6754C39.5237 14.166 39.1491 14.5571 38.642 14.8487C38.1349 15.1371 37.4853 15.2812 36.6932 15.2812H34.2273V14.1875H36.6534C37.2003 14.1875 37.6394 14.093 37.9709 13.9041C38.3023 13.7152 38.5426 13.46 38.6918 13.1385C38.8442 12.8137 38.9205 12.4474 38.9205 12.0398C38.9205 11.6321 38.8442 11.2675 38.6918 10.946C38.5426 10.6245 38.3007 10.3726 37.9659 10.1903C37.6312 10.0047 37.187 9.91193 36.6335 9.91193H34.4659V19H33.233ZM45.0803 19.1591C44.3445 19.1591 43.7098 18.9967 43.1761 18.6719C42.6458 18.3438 42.2365 17.8864 41.9482 17.2997C41.6631 16.7098 41.5206 16.0237 41.5206 15.2415C41.5206 14.4593 41.6631 13.7699 41.9482 13.1733C42.2365 12.5734 42.6375 12.1061 43.1513 11.7713C43.6683 11.4332 44.2715 11.2642 44.9609 11.2642C45.3587 11.2642 45.7514 11.3305 46.1392 11.4631C46.527 11.5956 46.88 11.8111 47.1982 12.1094C47.5163 12.4044 47.7699 12.7955 47.9588 13.2827C48.1477 13.7699 48.2422 14.3698 48.2422 15.0824V15.5795H42.3558V14.5653H47.049C47.049 14.1345 46.9628 13.75 46.7905 13.4119C46.6214 13.0739 46.3795 12.8071 46.0646 12.6115C45.7531 12.416 45.3852 12.3182 44.9609 12.3182C44.4936 12.3182 44.0893 12.4342 43.7479 12.6662C43.4098 12.8949 43.1496 13.1932 42.9673 13.5611C42.785 13.929 42.6939 14.3234 42.6939 14.7443V15.4205C42.6939 15.9972 42.7933 16.486 42.9922 16.8871C43.1944 17.2848 43.4744 17.5881 43.8324 17.7969C44.1903 18.0024 44.6063 18.1051 45.0803 18.1051C45.3885 18.1051 45.6669 18.062 45.9155 17.9759C46.1674 17.8864 46.3845 17.7538 46.5668 17.5781C46.7491 17.3991 46.8899 17.1771 46.9893 16.9119L48.1229 17.2301C48.0036 17.6146 47.803 17.9527 47.5213 18.2443C47.2396 18.5327 46.8916 18.758 46.4773 18.9205C46.063 19.0795 45.5973 19.1591 45.0803 19.1591ZM50.027 19V11.3636H51.1605V12.517H51.2401C51.3793 12.1392 51.6312 11.8326 51.9957 11.5973C52.3603 11.362 52.7713 11.2443 53.2287 11.2443C53.3149 11.2443 53.4226 11.246 53.5518 11.2493C53.6811 11.2526 53.7789 11.2576 53.8452 11.2642V12.4574C53.8054 12.4474 53.7143 12.4325 53.5717 12.4126C53.4325 12.3894 53.285 12.3778 53.1293 12.3778C52.758 12.3778 52.4266 12.4557 52.1349 12.6115C51.8466 12.764 51.6179 12.9761 51.4489 13.2479C51.2831 13.5163 51.2003 13.8229 51.2003 14.1676V19H50.027ZM60.6451 13.0739L59.5911 13.3722C59.5248 13.1965 59.427 13.0258 59.2978 12.8601C59.1718 12.6911 58.9995 12.5518 58.7807 12.4425C58.562 12.3331 58.2819 12.2784 57.9405 12.2784C57.4732 12.2784 57.0837 12.3861 56.7722 12.6016C56.464 12.8137 56.3098 13.0838 56.3098 13.4119C56.3098 13.7036 56.4159 13.9339 56.628 14.103C56.8401 14.272 57.1716 14.4129 57.6223 14.5256L58.7559 14.804C59.4386 14.9697 59.9474 15.2232 60.2821 15.5646C60.6169 15.9027 60.7843 16.3385 60.7843 16.8722C60.7843 17.3097 60.6583 17.7008 60.4064 18.0455C60.1578 18.3902 59.8098 18.6619 59.3624 18.8608C58.915 19.0597 58.3946 19.1591 57.8013 19.1591C57.0224 19.1591 56.3778 18.9901 55.8674 18.652C55.3569 18.3139 55.0338 17.8201 54.8979 17.1705L56.0115 16.892C56.1176 17.303 56.3181 17.6113 56.6131 17.8168C56.9114 18.0223 57.3008 18.125 57.7814 18.125C58.3283 18.125 58.7625 18.009 59.084 17.777C59.4088 17.5417 59.5712 17.2599 59.5712 16.9318C59.5712 16.6667 59.4784 16.4446 59.2928 16.2656C59.1072 16.0833 58.8221 15.9474 58.4377 15.858L57.165 15.5597C56.4656 15.3939 55.9519 15.1371 55.6238 14.7891C55.2989 14.4377 55.1365 13.9986 55.1365 13.4716C55.1365 13.0407 55.2575 12.6596 55.4995 12.3281C55.7447 11.9967 56.0778 11.7365 56.4988 11.5476C56.923 11.3587 57.4036 11.2642 57.9405 11.2642C58.6962 11.2642 59.2895 11.4299 59.7203 11.7614C60.1545 12.0928 60.4628 12.5303 60.6451 13.0739ZM65.6527 19.1591C64.9633 19.1591 64.3584 18.995 63.8381 18.6669C63.321 18.3388 62.9167 17.8797 62.625 17.2898C62.3366 16.6998 62.1925 16.0104 62.1925 15.2216C62.1925 14.4261 62.3366 13.7318 62.625 13.1385C62.9167 12.5452 63.321 12.0845 63.8381 11.7564C64.3584 11.4283 64.9633 11.2642 65.6527 11.2642C66.3421 11.2642 66.9453 11.4283 67.4624 11.7564C67.9827 12.0845 68.3871 12.5452 68.6754 13.1385C68.9671 13.7318 69.1129 14.4261 69.1129 15.2216C69.1129 16.0104 68.9671 16.6998 68.6754 17.2898C68.3871 17.8797 67.9827 18.3388 67.4624 18.6669C66.9453 18.995 66.3421 19.1591 65.6527 19.1591ZM65.6527 18.1051C66.1764 18.1051 66.6072 17.9709 66.9453 17.7024C67.2834 17.4339 67.5336 17.081 67.696 16.6435C67.8584 16.206 67.9396 15.732 67.9396 15.2216C67.9396 14.7112 67.8584 14.2356 67.696 13.7947C67.5336 13.3539 67.2834 12.9976 66.9453 12.7259C66.6072 12.4541 66.1764 12.3182 65.6527 12.3182C65.129 12.3182 64.6982 12.4541 64.3601 12.7259C64.022 12.9976 63.7718 13.3539 63.6094 13.7947C63.447 14.2356 63.3658 14.7112 63.3658 15.2216C63.3658 15.732 63.447 16.206 63.6094 16.6435C63.7718 17.081 64.022 17.4339 64.3601 17.7024C64.6982 17.9709 65.129 18.1051 65.6527 18.1051ZM72.0772 14.4062V19H70.9039V11.3636H72.0375V12.5568H72.1369C72.3159 12.169 72.5877 11.8575 72.9522 11.6222C73.3168 11.3835 73.7875 11.2642 74.3642 11.2642C74.8812 11.2642 75.3336 11.3703 75.7214 11.5824C76.1092 11.7912 76.4108 12.1094 76.6262 12.5369C76.8417 12.9612 76.9494 13.4981 76.9494 14.1477V19H75.7761V14.2273C75.7761 13.6274 75.6203 13.16 75.3088 12.8253C74.9972 12.4872 74.5697 12.3182 74.0261 12.3182C73.6516 12.3182 73.3168 12.3994 73.0218 12.5618C72.7302 12.7242 72.4998 12.9612 72.3308 13.2727C72.1618 13.5843 72.0772 13.9621 72.0772 14.4062ZM81.3406 19.179C80.8567 19.179 80.4175 19.0878 80.0231 18.9055C79.6287 18.7199 79.3155 18.4531 79.0835 18.1051C78.8514 17.7538 78.7354 17.3295 78.7354 16.8324C78.7354 16.3949 78.8216 16.0402 78.994 15.7685C79.1663 15.4934 79.3967 15.2779 79.685 15.1222C79.9734 14.9664 80.2915 14.8504 80.6396 14.7741C80.9909 14.6946 81.3439 14.6316 81.6985 14.5852C82.1625 14.5256 82.5387 14.4808 82.8271 14.451C83.1187 14.4179 83.3308 14.3632 83.4634 14.2869C83.5993 14.2107 83.6673 14.0781 83.6673 13.8892V13.8494C83.6673 13.3589 83.533 12.9777 83.2646 12.706C82.9994 12.4342 82.5967 12.2983 82.0565 12.2983C81.4963 12.2983 81.0572 12.4209 80.739 12.6662C80.4208 12.9115 80.1971 13.1733 80.0678 13.4517L78.9542 13.054C79.1531 12.59 79.4182 12.2287 79.7496 11.9702C80.0844 11.7083 80.449 11.526 80.8434 11.4233C81.2411 11.3172 81.6322 11.2642 82.0167 11.2642C82.262 11.2642 82.5437 11.294 82.8619 11.3537C83.1834 11.41 83.4933 11.5277 83.7915 11.7067C84.0932 11.8857 84.3434 12.1558 84.5423 12.517C84.7411 12.8783 84.8406 13.3622 84.8406 13.9688V19H83.6673V17.9659H83.6076C83.5281 18.1316 83.3955 18.3089 83.2099 18.4979C83.0243 18.6868 82.7773 18.8475 82.4691 18.9801C82.1609 19.1127 81.7847 19.179 81.3406 19.179ZM81.5195 18.125C81.9835 18.125 82.3746 18.0339 82.6928 17.8516C83.0143 17.6693 83.2563 17.4339 83.4187 17.1456C83.5844 16.8572 83.6673 16.554 83.6673 16.2358V15.1619C83.6175 15.2216 83.5082 15.2763 83.3391 15.326C83.1734 15.3724 82.9812 15.4138 82.7624 15.4503C82.547 15.4834 82.3365 15.5133 82.131 15.5398C81.9289 15.563 81.7648 15.5829 81.6388 15.5994C81.3339 15.6392 81.0489 15.7038 80.7837 15.7933C80.5219 15.8795 80.3098 16.0104 80.1474 16.1861C79.9883 16.3584 79.9087 16.5937 79.9087 16.892C79.9087 17.2997 80.0595 17.608 80.3612 17.8168C80.6661 18.0223 81.0522 18.125 81.5195 18.125ZM88.1554 8.81818V19H86.9821V8.81818H88.1554ZM93.8441 9.91193V8.81818H101.48V9.91193H98.2788V19H97.0458V9.91193H93.8441ZM102.431 19V11.3636H103.565V12.517H103.644C103.784 12.1392 104.035 11.8326 104.4 11.5973C104.765 11.362 105.176 11.2443 105.633 11.2443C105.719 11.2443 105.827 11.246 105.956 11.2493C106.085 11.2526 106.183 11.2576 106.249 11.2642V12.4574C106.21 12.4474 106.119 12.4325 105.976 12.4126C105.837 12.3894 105.689 12.3778 105.534 12.3778C105.162 12.3778 104.831 12.4557 104.539 12.6115C104.251 12.764 104.022 12.9761 103.853 13.2479C103.687 13.5163 103.605 13.8229 103.605 14.1676V19H102.431ZM109.887 19.179C109.404 19.179 108.964 19.0878 108.57 18.9055C108.176 18.7199 107.862 18.4531 107.63 18.1051C107.398 17.7538 107.282 17.3295 107.282 16.8324C107.282 16.3949 107.368 16.0402 107.541 15.7685C107.713 15.4934 107.944 15.2779 108.232 15.1222C108.52 14.9664 108.838 14.8504 109.186 14.7741C109.538 14.6946 109.891 14.6316 110.245 14.5852C110.709 14.5256 111.086 14.4808 111.374 14.451C111.666 14.4179 111.878 14.3632 112.01 14.2869C112.146 14.2107 112.214 14.0781 112.214 13.8892V13.8494C112.214 13.3589 112.08 12.9777 111.811 12.706C111.546 12.4342 111.144 12.2983 110.603 12.2983C110.043 12.2983 109.604 12.4209 109.286 12.6662C108.968 12.9115 108.744 13.1733 108.615 13.4517L107.501 13.054C107.7 12.59 107.965 12.2287 108.297 11.9702C108.631 11.7083 108.996 11.526 109.39 11.4233C109.788 11.3172 110.179 11.2642 110.564 11.2642C110.809 11.2642 111.091 11.294 111.409 11.3537C111.73 11.41 112.04 11.5277 112.338 11.7067C112.64 11.8857 112.89 12.1558 113.089 12.517C113.288 12.8783 113.387 13.3622 113.387 13.9688V19H112.214V17.9659H112.154C112.075 18.1316 111.942 18.3089 111.757 18.4979C111.571 18.6868 111.324 18.8475 111.016 18.9801C110.708 19.1127 110.332 19.179 109.887 19.179ZM110.066 18.125C110.53 18.125 110.922 18.0339 111.24 17.8516C111.561 17.6693 111.803 17.4339 111.966 17.1456C112.131 16.8572 112.214 16.554 112.214 16.2358V15.1619C112.164 15.2216 112.055 15.2763 111.886 15.326C111.72 15.3724 111.528 15.4138 111.309 15.4503C111.094 15.4834 110.883 15.5133 110.678 15.5398C110.476 15.563 110.312 15.5829 110.186 15.5994C109.881 15.6392 109.596 15.7038 109.331 15.7933C109.069 15.8795 108.857 16.0104 108.694 16.1861C108.535 16.3584 108.456 16.5937 108.456 16.892C108.456 17.2997 108.606 17.608 108.908 17.8168C109.213 18.0223 109.599 18.125 110.066 18.125ZM115.529 19V11.3636H116.702V19H115.529ZM116.126 10.0909C115.897 10.0909 115.7 10.013 115.534 9.85724C115.372 9.70147 115.29 9.5142 115.29 9.29545C115.29 9.0767 115.372 8.88944 115.534 8.73366C115.7 8.57789 115.897 8.5 116.126 8.5C116.354 8.5 116.55 8.57789 116.712 8.73366C116.878 8.88944 116.961 9.0767 116.961 9.29545C116.961 9.5142 116.878 9.70147 116.712 9.85724C116.55 10.013 116.354 10.0909 116.126 10.0909ZM120.025 14.4062V19H118.851V11.3636H119.985V12.5568H120.084C120.263 12.169 120.535 11.8575 120.9 11.6222C121.264 11.3835 121.735 11.2642 122.311 11.2642C122.828 11.2642 123.281 11.3703 123.669 11.5824C124.056 11.7912 124.358 12.1094 124.574 12.5369C124.789 12.9612 124.897 13.4981 124.897 14.1477V19H123.723V14.2273C123.723 13.6274 123.568 13.16 123.256 12.8253C122.944 12.4872 122.517 12.3182 121.973 12.3182C121.599 12.3182 121.264 12.3994 120.969 12.5618C120.677 12.7242 120.447 12.9612 120.278 13.2727C120.109 13.5843 120.025 13.9621 120.025 14.4062ZM130.242 19.1591C129.507 19.1591 128.872 18.9967 128.338 18.6719C127.808 18.3438 127.399 17.8864 127.11 17.2997C126.825 16.7098 126.683 16.0237 126.683 15.2415C126.683 14.4593 126.825 13.7699 127.11 13.1733C127.399 12.5734 127.8 12.1061 128.313 11.7713C128.83 11.4332 129.434 11.2642 130.123 11.2642C130.521 11.2642 130.914 11.3305 131.301 11.4631C131.689 11.5956 132.042 11.8111 132.36 12.1094C132.678 12.4044 132.932 12.7955 133.121 13.2827C133.31 13.7699 133.404 14.3698 133.404 15.0824V15.5795H127.518V14.5653H132.211C132.211 14.1345 132.125 13.75 131.953 13.4119C131.784 13.0739 131.542 12.8071 131.227 12.6115C130.915 12.416 130.547 12.3182 130.123 12.3182C129.656 12.3182 129.251 12.4342 128.91 12.6662C128.572 12.8949 128.312 13.1932 128.129 13.5611C127.947 13.929 127.856 14.3234 127.856 14.7443V15.4205C127.856 15.9972 127.955 16.486 128.154 16.8871C128.356 17.2848 128.637 17.5881 128.994 17.7969C129.352 18.0024 129.768 18.1051 130.242 18.1051C130.551 18.1051 130.829 18.062 131.078 17.9759C131.329 17.8864 131.547 17.7538 131.729 17.5781C131.911 17.3991 132.052 17.1771 132.151 16.9119L133.285 17.2301C133.166 17.6146 132.965 17.9527 132.683 18.2443C132.402 18.5327 132.054 18.758 131.639 18.9205C131.225 19.0795 130.759 19.1591 130.242 19.1591ZM135.189 19V11.3636H136.323V12.517H136.402C136.541 12.1392 136.793 11.8326 137.158 11.5973C137.522 11.362 137.933 11.2443 138.391 11.2443C138.477 11.2443 138.585 11.246 138.714 11.2493C138.843 11.2526 138.941 11.2576 139.007 11.2642V12.4574C138.968 12.4474 138.876 12.4325 138.734 12.4126C138.595 12.3894 138.447 12.3778 138.291 12.3778C137.92 12.3778 137.589 12.4557 137.297 12.6115C137.009 12.764 136.78 12.9761 136.611 13.2479C136.445 13.5163 136.362 13.8229 136.362 14.1676V19H135.189Z" fill="#F5F5F5"/>
</svg>
