<svg width="204" height="28" viewBox="0 0 204 28" fill="none" xmlns="http://www.w3.org/2000/svg">
<path d="M0 14C0 6.26801 6.26801 0 14 0H190C197.732 0 204 6.26801 204 14C204 21.732 197.732 28 190 28H14C6.26802 28 0 21.732 0 14Z" fill="#343434"/>
<path d="M18.3667 18.0001L14.5667 14.2001L15.5167 13.2501L18.3667 16.1001L24.4833 9.9834L25.4333 10.9334L18.3667 18.0001Z" fill="#FF6C2E"/>
<path d="M33.6506 19H32.358L36.0966 8.81818H37.3693L41.108 19H39.8153L36.7727 10.429H36.6932L33.6506 19ZM34.1278 15.0227H39.3381V16.1165H34.1278V15.0227ZM45.4183 19.1591C44.782 19.1591 44.2202 18.9983 43.733 18.6768C43.2457 18.352 42.8646 17.8946 42.5895 17.3047C42.3144 16.7114 42.1768 16.0104 42.1768 15.2017C42.1768 14.3996 42.3144 13.7036 42.5895 13.1136C42.8646 12.5237 43.2474 12.0679 43.7379 11.7464C44.2285 11.425 44.7952 11.2642 45.4382 11.2642C45.9354 11.2642 46.3281 11.3471 46.6165 11.5128C46.9081 11.6752 47.1302 11.8608 47.2827 12.0696C47.4384 12.2751 47.5594 12.4441 47.6456 12.5767H47.745V8.81818H48.9183V19H47.7848V17.8267H47.6456C47.5594 17.9659 47.4368 18.1416 47.2777 18.3537C47.1186 18.5625 46.8916 18.7498 46.5966 18.9155C46.3016 19.0779 45.9089 19.1591 45.4183 19.1591ZM45.5774 18.1051C46.0481 18.1051 46.4458 17.9825 46.7706 17.7372C47.0954 17.4886 47.3423 17.1456 47.5114 16.7081C47.6804 16.2673 47.7649 15.7585 47.7649 15.1818C47.7649 14.6117 47.6821 14.1129 47.5163 13.6854C47.3506 13.2545 47.1054 12.9197 46.7805 12.6811C46.4557 12.4392 46.0547 12.3182 45.5774 12.3182C45.0803 12.3182 44.666 12.4458 44.3345 12.701C44.0064 12.9529 43.7595 13.2959 43.5938 13.7301C43.4313 14.161 43.3501 14.6449 43.3501 15.1818C43.3501 15.7254 43.433 16.2192 43.5987 16.6634C43.7678 17.1042 44.0163 17.4555 44.3445 17.7173C44.6759 17.9759 45.0869 18.1051 45.5774 18.1051ZM57.4744 11.3636L54.6506 19H53.4574L50.6335 11.3636H51.9062L54.0142 17.4489H54.0938L56.2017 11.3636H57.4744ZM61.0378 19.179C60.5539 19.179 60.1148 19.0878 59.7203 18.9055C59.3259 18.7199 59.0127 18.4531 58.7807 18.1051C58.5487 17.7538 58.4327 17.3295 58.4327 16.8324C58.4327 16.3949 58.5189 16.0402 58.6912 15.7685C58.8636 15.4934 59.0939 15.2779 59.3823 15.1222C59.6706 14.9664 59.9888 14.8504 60.3368 14.7741C60.6882 14.6946 61.0411 14.6316 61.3958 14.5852C61.8598 14.5256 62.236 14.4808 62.5243 14.451C62.816 14.4179 63.0281 14.3632 63.1607 14.2869C63.2966 14.2107 63.3645 14.0781 63.3645 13.8892V13.8494C63.3645 13.3589 63.2303 12.9777 62.9618 12.706C62.6967 12.4342 62.294 12.2983 61.7537 12.2983C61.1936 12.2983 60.7544 12.4209 60.4363 12.6662C60.1181 12.9115 59.8944 13.1733 59.7651 13.4517L58.6515 13.054C58.8503 12.59 59.1155 12.2287 59.4469 11.9702C59.7817 11.7083 60.1462 11.526 60.5407 11.4233C60.9384 11.3172 61.3295 11.2642 61.714 11.2642C61.9592 11.2642 62.2409 11.294 62.5591 11.3537C62.8806 11.41 63.1905 11.5277 63.4888 11.7067C63.7904 11.8857 64.0407 12.1558 64.2395 12.517C64.4384 12.8783 64.5378 13.3622 64.5378 13.9688V19H63.3645V17.9659H63.3049C63.2253 18.1316 63.0927 18.3089 62.9071 18.4979C62.7215 18.6868 62.4746 18.8475 62.1664 18.9801C61.8581 19.1127 61.4819 19.179 61.0378 19.179ZM61.2168 18.125C61.6808 18.125 62.0719 18.0339 62.3901 17.8516C62.7116 17.6693 62.9535 17.4339 63.1159 17.1456C63.2817 16.8572 63.3645 16.554 63.3645 16.2358V15.1619C63.3148 15.2216 63.2054 15.2763 63.0364 15.326C62.8707 15.3724 62.6784 15.4138 62.4597 15.4503C62.2443 15.4834 62.0338 15.5133 61.8283 15.5398C61.6261 15.563 61.4621 15.5829 61.3361 15.5994C61.0312 15.6392 60.7462 15.7038 60.481 15.7933C60.2192 15.8795 60.007 16.0104 59.8446 16.1861C59.6855 16.3584 59.606 16.5937 59.606 16.892C59.606 17.2997 59.7568 17.608 60.0584 17.8168C60.3633 18.0223 60.7495 18.125 61.2168 18.125ZM67.8526 14.4062V19H66.6793V11.3636H67.8129V12.5568H67.9123C68.0913 12.169 68.363 11.8575 68.7276 11.6222C69.0922 11.3835 69.5629 11.2642 70.1396 11.2642C70.6566 11.2642 71.109 11.3703 71.4968 11.5824C71.8846 11.7912 72.1862 12.1094 72.4016 12.5369C72.6171 12.9612 72.7248 13.4981 72.7248 14.1477V19H71.5515V14.2273C71.5515 13.6274 71.3957 13.16 71.0842 12.8253C70.7726 12.4872 70.3451 12.3182 69.8015 12.3182C69.427 12.3182 69.0922 12.3994 68.7972 12.5618C68.5056 12.7242 68.2752 12.9612 68.1062 13.2727C67.9371 13.5843 67.8526 13.9621 67.8526 14.4062ZM77.9711 19.1591C77.2551 19.1591 76.6387 18.9901 76.1216 18.652C75.6046 18.3139 75.2069 17.8482 74.9284 17.255C74.65 16.6617 74.5108 15.9839 74.5108 15.2216C74.5108 14.446 74.6533 13.7616 74.9384 13.1683C75.2267 12.5717 75.6278 12.1061 76.1415 11.7713C76.6586 11.4332 77.2618 11.2642 77.9512 11.2642C78.4881 11.2642 78.972 11.3636 79.4029 11.5625C79.8337 11.7614 80.1867 12.0398 80.4618 12.3977C80.7369 12.7557 80.9076 13.1733 80.9739 13.6506H79.8006C79.7111 13.3026 79.5123 12.9943 79.204 12.7259C78.8991 12.4541 78.4881 12.3182 77.9711 12.3182C77.5137 12.3182 77.1126 12.4375 76.7679 12.6761C76.4266 12.9115 76.1597 13.2446 75.9675 13.6754C75.7786 14.103 75.6841 14.6051 75.6841 15.1818C75.6841 15.7718 75.7769 16.2855 75.9625 16.723C76.1515 17.1605 76.4166 17.5002 76.758 17.7422C77.1027 17.9841 77.507 18.1051 77.9711 18.1051C78.276 18.1051 78.5527 18.0521 78.8013 17.946C79.0499 17.84 79.2604 17.6875 79.4327 17.4886C79.6051 17.2898 79.7277 17.0511 79.8006 16.7727H80.9739C80.9076 17.2235 80.7435 17.6295 80.4817 17.9908C80.2232 18.3487 79.8801 18.6338 79.4526 18.8459C79.0284 19.0547 78.5345 19.1591 77.9711 19.1591ZM85.8908 19.1591C85.155 19.1591 84.5203 18.9967 83.9867 18.6719C83.4564 18.3438 83.0471 17.8864 82.7587 17.2997C82.4737 16.7098 82.3311 16.0237 82.3311 15.2415C82.3311 14.4593 82.4737 13.7699 82.7587 13.1733C83.0471 12.5734 83.4481 12.1061 83.9618 11.7713C84.4789 11.4332 85.0821 11.2642 85.7715 11.2642C86.1692 11.2642 86.562 11.3305 86.9498 11.4631C87.3375 11.5956 87.6905 11.8111 88.0087 12.1094C88.3269 12.4044 88.5804 12.7955 88.7694 13.2827C88.9583 13.7699 89.0527 14.3698 89.0527 15.0824V15.5795H83.1664V14.5653H87.8596C87.8596 14.1345 87.7734 13.75 87.601 13.4119C87.432 13.0739 87.19 12.8071 86.8752 12.6115C86.5636 12.416 86.1957 12.3182 85.7715 12.3182C85.3042 12.3182 84.8998 12.4342 84.5584 12.6662C84.2203 12.8949 83.9602 13.1932 83.7779 13.5611C83.5956 13.929 83.5044 14.3234 83.5044 14.7443V15.4205C83.5044 15.9972 83.6039 16.486 83.8027 16.8871C84.0049 17.2848 84.285 17.5881 84.6429 17.7969C85.0009 18.0024 85.4168 18.1051 85.8908 18.1051C86.199 18.1051 86.4775 18.062 86.726 17.9759C86.9779 17.8864 87.195 17.7538 87.3773 17.5781C87.5596 17.3991 87.7005 17.1771 87.7999 16.9119L88.9334 17.2301C88.8141 17.6146 88.6136 17.9527 88.3319 18.2443C88.0501 18.5327 87.7021 18.758 87.2878 18.9205C86.8735 19.0795 86.4078 19.1591 85.8908 19.1591ZM93.7211 19.1591C93.0847 19.1591 92.5229 18.9983 92.0357 18.6768C91.5485 18.352 91.1673 17.8946 90.8922 17.3047C90.6171 16.7114 90.4796 16.0104 90.4796 15.2017C90.4796 14.3996 90.6171 13.7036 90.8922 13.1136C91.1673 12.5237 91.5501 12.0679 92.0407 11.7464C92.5312 11.425 93.098 11.2642 93.7409 11.2642C94.2381 11.2642 94.6309 11.3471 94.9192 11.5128C95.2109 11.6752 95.4329 11.8608 95.5854 12.0696C95.7412 12.2751 95.8622 12.4441 95.9483 12.5767H96.0478V8.81818H97.2211V19H96.0875V17.8267H95.9483C95.8622 17.9659 95.7395 18.1416 95.5804 18.3537C95.4213 18.5625 95.1943 18.7498 94.8993 18.9155C94.6043 19.0779 94.2116 19.1591 93.7211 19.1591ZM93.8801 18.1051C94.3508 18.1051 94.7485 17.9825 95.0733 17.7372C95.3981 17.4886 95.6451 17.1456 95.8141 16.7081C95.9831 16.2673 96.0676 15.7585 96.0676 15.1818C96.0676 14.6117 95.9848 14.1129 95.8191 13.6854C95.6534 13.2545 95.4081 12.9197 95.0833 12.6811C94.7585 12.4392 94.3574 12.3182 93.8801 12.3182C93.383 12.3182 92.9687 12.4458 92.6373 12.701C92.3091 12.9529 92.0622 13.2959 91.8965 13.7301C91.7341 14.161 91.6529 14.6449 91.6529 15.1818C91.6529 15.7254 91.7357 16.2192 91.9015 16.6634C92.0705 17.1042 92.3191 17.4555 92.6472 17.7173C92.9786 17.9759 93.3896 18.1051 93.8801 18.1051ZM111.703 8.81818V19H110.51L104.962 11.0057H104.862V19H103.629V8.81818H104.823L110.391 16.8324H110.49V8.81818H111.703ZM118.824 15.8778V11.3636H119.997V19H118.824V17.7074H118.744C118.565 18.0952 118.287 18.425 117.909 18.6967C117.531 18.9652 117.054 19.0994 116.477 19.0994C116 19.0994 115.576 18.995 115.205 18.7862C114.833 18.5741 114.542 18.2559 114.33 17.8317C114.117 17.4041 114.011 16.8655 114.011 16.2159V11.3636H115.185V16.1364C115.185 16.6932 115.34 17.1373 115.652 17.4688C115.967 17.8002 116.368 17.9659 116.855 17.9659C117.147 17.9659 117.443 17.8913 117.745 17.7422C118.05 17.593 118.305 17.3643 118.511 17.0561C118.719 16.7479 118.824 16.3551 118.824 15.8778ZM125.467 11.3636V12.358H121.51V11.3636H125.467ZM122.663 9.53409H123.836V16.8125C123.836 17.1439 123.885 17.3925 123.981 17.5582C124.08 17.7206 124.206 17.83 124.358 17.8864C124.514 17.9394 124.678 17.9659 124.851 17.9659C124.98 17.9659 125.086 17.9593 125.169 17.946C125.252 17.9295 125.318 17.9162 125.368 17.9062L125.606 18.9602C125.527 18.9901 125.416 19.0199 125.273 19.0497C125.131 19.0829 124.95 19.0994 124.731 19.0994C124.4 19.0994 124.075 19.0282 123.757 18.8857C123.442 18.7431 123.18 18.526 122.971 18.2344C122.766 17.9427 122.663 17.5748 122.663 17.1307V9.53409ZM127.232 19V11.3636H128.366V12.517H128.445C128.584 12.1392 128.836 11.8326 129.201 11.5973C129.565 11.362 129.976 11.2443 130.434 11.2443C130.52 11.2443 130.628 11.246 130.757 11.2493C130.886 11.2526 130.984 11.2576 131.05 11.2642V12.4574C131.01 12.4474 130.919 12.4325 130.777 12.4126C130.638 12.3894 130.49 12.3778 130.334 12.3778C129.963 12.3778 129.632 12.4557 129.34 12.6115C129.052 12.764 128.823 12.9761 128.654 13.2479C128.488 13.5163 128.405 13.8229 128.405 14.1676V19H127.232ZM132.441 19V11.3636H133.614V19H132.441ZM133.038 10.0909C132.809 10.0909 132.612 10.013 132.446 9.85724C132.284 9.70147 132.202 9.5142 132.202 9.29545C132.202 9.0767 132.284 8.88944 132.446 8.73366C132.612 8.57789 132.809 8.5 133.038 8.5C133.266 8.5 133.462 8.57789 133.624 8.73366C133.79 8.88944 133.873 9.0767 133.873 9.29545C133.873 9.5142 133.79 9.70147 133.624 9.85724C133.462 10.013 133.266 10.0909 133.038 10.0909ZM139.084 11.3636V12.358H135.127V11.3636H139.084ZM136.28 9.53409H137.454V16.8125C137.454 17.1439 137.502 17.3925 137.598 17.5582C137.697 17.7206 137.823 17.83 137.976 17.8864C138.131 17.9394 138.296 17.9659 138.468 17.9659C138.597 17.9659 138.703 17.9593 138.786 17.946C138.869 17.9295 138.935 17.9162 138.985 17.9062L139.224 18.9602C139.144 18.9901 139.033 19.0199 138.89 19.0497C138.748 19.0829 138.567 19.0994 138.349 19.0994C138.017 19.0994 137.692 19.0282 137.374 18.8857C137.059 18.7431 136.797 18.526 136.589 18.2344C136.383 17.9427 136.28 17.5748 136.28 17.1307V9.53409ZM140.849 19V11.3636H142.023V19H140.849ZM141.446 10.0909C141.217 10.0909 141.02 10.013 140.854 9.85724C140.692 9.70147 140.611 9.5142 140.611 9.29545C140.611 9.0767 140.692 8.88944 140.854 8.73366C141.02 8.57789 141.217 8.5 141.446 8.5C141.675 8.5 141.87 8.57789 142.032 8.73366C142.198 8.88944 142.281 9.0767 142.281 9.29545C142.281 9.5142 142.198 9.70147 142.032 9.85724C141.87 10.013 141.675 10.0909 141.446 10.0909ZM147.274 19.1591C146.584 19.1591 145.98 18.995 145.459 18.6669C144.942 18.3388 144.538 17.8797 144.246 17.2898C143.958 16.6998 143.814 16.0104 143.814 15.2216C143.814 14.4261 143.958 13.7318 144.246 13.1385C144.538 12.5452 144.942 12.0845 145.459 11.7564C145.98 11.4283 146.584 11.2642 147.274 11.2642C147.963 11.2642 148.566 11.4283 149.083 11.7564C149.604 12.0845 150.008 12.5452 150.297 13.1385C150.588 13.7318 150.734 14.4261 150.734 15.2216C150.734 16.0104 150.588 16.6998 150.297 17.2898C150.008 17.8797 149.604 18.3388 149.083 18.6669C148.566 18.995 147.963 19.1591 147.274 19.1591ZM147.274 18.1051C147.797 18.1051 148.228 17.9709 148.566 17.7024C148.904 17.4339 149.155 17.081 149.317 16.6435C149.48 16.206 149.561 15.732 149.561 15.2216C149.561 14.7112 149.48 14.2356 149.317 13.7947C149.155 13.3539 148.904 12.9976 148.566 12.7259C148.228 12.4541 147.797 12.3182 147.274 12.3182C146.75 12.3182 146.319 12.4541 145.981 12.7259C145.643 12.9976 145.393 13.3539 145.23 13.7947C145.068 14.2356 144.987 14.7112 144.987 15.2216C144.987 15.732 145.068 16.206 145.23 16.6435C145.393 17.081 145.643 17.4339 145.981 17.7024C146.319 17.9709 146.75 18.1051 147.274 18.1051ZM153.698 14.4062V19H152.525V11.3636H153.659V12.5568H153.758C153.937 12.169 154.209 11.8575 154.573 11.6222C154.938 11.3835 155.409 11.2642 155.985 11.2642C156.502 11.2642 156.955 11.3703 157.343 11.5824C157.73 11.7912 158.032 12.1094 158.247 12.5369C158.463 12.9612 158.57 13.4981 158.57 14.1477V19H157.397V14.2273C157.397 13.6274 157.241 13.16 156.93 12.8253C156.618 12.4872 156.191 12.3182 155.647 12.3182C155.273 12.3182 154.938 12.3994 154.643 12.5618C154.351 12.7242 154.121 12.9612 153.952 13.2727C153.783 13.5843 153.698 13.9621 153.698 14.4062ZM164.811 19V8.81818H168.251C169.05 8.81818 169.703 8.96236 170.21 9.25071C170.721 9.53575 171.098 9.92188 171.344 10.4091C171.589 10.8963 171.712 11.4399 171.712 12.0398C171.712 12.6397 171.589 13.1849 171.344 13.6754C171.102 14.166 170.727 14.5571 170.22 14.8487C169.713 15.1371 169.063 15.2812 168.271 15.2812H165.805V14.1875H168.232C168.778 14.1875 169.218 14.093 169.549 13.9041C169.88 13.7152 170.121 13.46 170.27 13.1385C170.422 12.8137 170.499 12.4474 170.499 12.0398C170.499 11.6321 170.422 11.2675 170.27 10.946C170.121 10.6245 169.879 10.3726 169.544 10.1903C169.209 10.0047 168.765 9.91193 168.212 9.91193H166.044V19H164.811ZM174.712 8.81818V19H173.539V8.81818H174.712ZM179.108 19.179C178.624 19.179 178.185 19.0878 177.791 18.9055C177.396 18.7199 177.083 18.4531 176.851 18.1051C176.619 17.7538 176.503 17.3295 176.503 16.8324C176.503 16.3949 176.589 16.0402 176.762 15.7685C176.934 15.4934 177.164 15.2779 177.453 15.1222C177.741 14.9664 178.059 14.8504 178.407 14.7741C178.758 14.6946 179.111 14.6316 179.466 14.5852C179.93 14.5256 180.306 14.4808 180.595 14.451C180.886 14.4179 181.098 14.3632 181.231 14.2869C181.367 14.2107 181.435 14.0781 181.435 13.8892V13.8494C181.435 13.3589 181.301 12.9777 181.032 12.706C180.767 12.4342 180.364 12.2983 179.824 12.2983C179.264 12.2983 178.825 12.4209 178.507 12.6662C178.188 12.9115 177.965 13.1733 177.835 13.4517L176.722 13.054C176.921 12.59 177.186 12.2287 177.517 11.9702C177.852 11.7083 178.217 11.526 178.611 11.4233C179.009 11.3172 179.4 11.2642 179.784 11.2642C180.03 11.2642 180.311 11.294 180.629 11.3537C180.951 11.41 181.261 11.5277 181.559 11.7067C181.861 11.8857 182.111 12.1558 182.31 12.517C182.509 12.8783 182.608 13.3622 182.608 13.9688V19H181.435V17.9659H181.375C181.296 18.1316 181.163 18.3089 180.977 18.4979C180.792 18.6868 180.545 18.8475 180.237 18.9801C179.928 19.1127 179.552 19.179 179.108 19.179ZM179.287 18.125C179.751 18.125 180.142 18.0339 180.46 17.8516C180.782 17.6693 181.024 17.4339 181.186 17.1456C181.352 16.8572 181.435 16.554 181.435 16.2358V15.1619C181.385 15.2216 181.276 15.2763 181.107 15.326C180.941 15.3724 180.749 15.4138 180.53 15.4503C180.315 15.4834 180.104 15.5133 179.899 15.5398C179.696 15.563 179.532 15.5829 179.406 15.5994C179.102 15.6392 178.816 15.7038 178.551 15.7933C178.289 15.8795 178.077 16.0104 177.915 16.1861C177.756 16.3584 177.676 16.5937 177.676 16.892C177.676 17.2997 177.827 17.608 178.129 17.8168C178.434 18.0223 178.82 18.125 179.287 18.125ZM185.923 14.4062V19H184.75V11.3636H185.883V12.5568H185.983C186.162 12.169 186.433 11.8575 186.798 11.6222C187.163 11.3835 187.633 11.2642 188.21 11.2642C188.727 11.2642 189.179 11.3703 189.567 11.5824C189.955 11.7912 190.257 12.1094 190.472 12.5369C190.687 12.9612 190.795 13.4981 190.795 14.1477V19H189.622V14.2273C189.622 13.6274 189.466 13.16 189.154 12.8253C188.843 12.4872 188.415 12.3182 187.872 12.3182C187.497 12.3182 187.163 12.3994 186.868 12.5618C186.576 12.7242 186.346 12.9612 186.176 13.2727C186.007 13.5843 185.923 13.9621 185.923 14.4062Z" fill="#F5F5F5"/>
</svg>
