<svg width="183" height="28" viewBox="0 0 183 28" fill="none" xmlns="http://www.w3.org/2000/svg">
<path d="M0 14C0 6.26801 6.26801 0 14 0H169C176.732 0 183 6.26801 183 14C183 21.732 176.732 28 169 28H14C6.26802 28 0 21.732 0 14Z" fill="#343434"/>
<path d="M18.3667 18.0001L14.5667 14.2001L15.5167 13.2501L18.3667 16.1001L24.4833 9.9834L25.4333 10.9334L18.3667 18.0001Z" fill="#FF6C2E"/>
<path d="M33.233 19V8.81818H39.3778V9.91193H34.4659V13.3523H39.0597V14.446H34.4659V17.9062H39.4574V19H33.233ZM42.3161 11.3636L44.1456 14.4858L45.9751 11.3636H47.3274L44.8615 15.1818L47.3274 19H45.9751L44.1456 16.0369L42.3161 19H40.9638L43.3899 15.1818L40.9638 11.3636H42.3161ZM51.7894 19.1591C51.0735 19.1591 50.457 18.9901 49.94 18.652C49.4229 18.3139 49.0252 17.8482 48.7468 17.255C48.4684 16.6617 48.3292 15.9839 48.3292 15.2216C48.3292 14.446 48.4717 13.7616 48.7567 13.1683C49.0451 12.5717 49.4461 12.1061 49.9599 11.7713C50.4769 11.4332 51.0801 11.2642 51.7695 11.2642C52.3065 11.2642 52.7904 11.3636 53.2212 11.5625C53.6521 11.7614 54.0051 12.0398 54.2802 12.3977C54.5553 12.7557 54.726 13.1733 54.7923 13.6506H53.619C53.5295 13.3026 53.3306 12.9943 53.0224 12.7259C52.7174 12.4541 52.3065 12.3182 51.7894 12.3182C51.332 12.3182 50.931 12.4375 50.5863 12.6761C50.2449 12.9115 49.9781 13.2446 49.7859 13.6754C49.5969 14.103 49.5025 14.6051 49.5025 15.1818C49.5025 15.7718 49.5953 16.2855 49.7809 16.723C49.9698 17.1605 50.235 17.5002 50.5763 17.7422C50.921 17.9841 51.3254 18.1051 51.7894 18.1051C52.0943 18.1051 52.3711 18.0521 52.6197 17.946C52.8683 17.84 53.0787 17.6875 53.2511 17.4886C53.4234 17.2898 53.546 17.0511 53.619 16.7727H54.7923C54.726 17.2235 54.5619 17.6295 54.3001 17.9908C54.0415 18.3487 53.6985 18.6338 53.271 18.8459C52.8467 19.0547 52.3529 19.1591 51.7894 19.1591ZM57.6808 8.81818V19H56.5075V8.81818H57.6808ZM64.6422 15.8778V11.3636H65.8155V19H64.6422V17.7074H64.5627C64.3837 18.0952 64.1053 18.425 63.7275 18.6967C63.3496 18.9652 62.8723 19.0994 62.2956 19.0994C61.8184 19.0994 61.3941 18.995 61.0229 18.7862C60.6517 18.5741 60.36 18.2559 60.1479 17.8317C59.9358 17.4041 59.8297 16.8655 59.8297 16.2159V11.3636H61.003V16.1364C61.003 16.6932 61.1588 17.1373 61.4703 17.4688C61.7852 17.8002 62.1863 17.9659 62.6735 17.9659C62.9651 17.9659 63.2618 17.8913 63.5634 17.7422C63.8683 17.593 64.1235 17.3643 64.329 17.0561C64.5378 16.7479 64.6422 16.3551 64.6422 15.8778ZM73.3736 13.0739L72.3196 13.3722C72.2533 13.1965 72.1555 13.0258 72.0263 12.8601C71.9003 12.6911 71.728 12.5518 71.5092 12.4425C71.2905 12.3331 71.0104 12.2784 70.669 12.2784C70.2017 12.2784 69.8123 12.3861 69.5007 12.6016C69.1925 12.8137 69.0384 13.0838 69.0384 13.4119C69.0384 13.7036 69.1444 13.9339 69.3565 14.103C69.5687 14.272 69.9001 14.4129 70.3509 14.5256L71.4844 14.804C72.1671 14.9697 72.6759 15.2232 73.0107 15.5646C73.3454 15.9027 73.5128 16.3385 73.5128 16.8722C73.5128 17.3097 73.3868 17.7008 73.1349 18.0455C72.8864 18.3902 72.5384 18.6619 72.0909 18.8608C71.6435 19.0597 71.1231 19.1591 70.5298 19.1591C69.7509 19.1591 69.1063 18.9901 68.5959 18.652C68.0855 18.3139 67.7623 17.8201 67.6264 17.1705L68.7401 16.892C68.8461 17.303 69.0466 17.6113 69.3416 17.8168C69.6399 18.0223 70.0294 18.125 70.5099 18.125C71.0568 18.125 71.491 18.009 71.8125 17.777C72.1373 17.5417 72.2997 17.2599 72.2997 16.9318C72.2997 16.6667 72.2069 16.4446 72.0213 16.2656C71.8357 16.0833 71.5507 15.9474 71.1662 15.858L69.8935 15.5597C69.1941 15.3939 68.6804 15.1371 68.3523 14.7891C68.0275 14.4377 67.8651 13.9986 67.8651 13.4716C67.8651 13.0407 67.986 12.6596 68.228 12.3281C68.4732 11.9967 68.8063 11.7365 69.2273 11.5476C69.6515 11.3587 70.1321 11.2642 70.669 11.2642C71.4247 11.2642 72.018 11.4299 72.4489 11.7614C72.883 12.0928 73.1913 12.5303 73.3736 13.0739ZM75.2789 19V11.3636H76.4522V19H75.2789ZM75.8755 10.0909C75.6468 10.0909 75.4496 10.013 75.2839 9.85724C75.1215 9.70147 75.0403 9.5142 75.0403 9.29545C75.0403 9.0767 75.1215 8.88944 75.2839 8.73366C75.4496 8.57789 75.6468 8.5 75.8755 8.5C76.1042 8.5 76.2998 8.57789 76.4622 8.73366C76.6279 8.88944 76.7108 9.0767 76.7108 9.29545C76.7108 9.5142 76.6279 9.70147 76.4622 9.85724C76.2998 10.013 76.1042 10.0909 75.8755 10.0909ZM84.8455 11.3636L82.0217 19H80.8285L78.0046 11.3636H79.2773L81.3853 17.4489H81.4648L83.5728 11.3636H84.8455ZM89.3224 19.1591C88.5866 19.1591 87.9519 18.9967 87.4183 18.6719C86.888 18.3438 86.4787 17.8864 86.1903 17.2997C85.9053 16.7098 85.7628 16.0237 85.7628 15.2415C85.7628 14.4593 85.9053 13.7699 86.1903 13.1733C86.4787 12.5734 86.8797 12.1061 87.3935 11.7713C87.9105 11.4332 88.5137 11.2642 89.2031 11.2642C89.6009 11.2642 89.9936 11.3305 90.3814 11.4631C90.7692 11.5956 91.1222 11.8111 91.4403 12.1094C91.7585 12.4044 92.0121 12.7955 92.201 13.2827C92.3899 13.7699 92.4844 14.3698 92.4844 15.0824V15.5795H86.598V14.5653H91.2912C91.2912 14.1345 91.205 13.75 91.0327 13.4119C90.8636 13.0739 90.6217 12.8071 90.3068 12.6115C89.9953 12.416 89.6274 12.3182 89.2031 12.3182C88.7358 12.3182 88.3314 12.4342 87.9901 12.6662C87.652 12.8949 87.3918 13.1932 87.2095 13.5611C87.0272 13.929 86.9361 14.3234 86.9361 14.7443V15.4205C86.9361 15.9972 87.0355 16.486 87.2344 16.8871C87.4366 17.2848 87.7166 17.5881 88.0746 17.7969C88.4325 18.0024 88.8485 18.1051 89.3224 18.1051C89.6307 18.1051 89.9091 18.062 90.1577 17.9759C90.4096 17.8864 90.6267 17.7538 90.8089 17.5781C90.9912 17.3991 91.1321 17.1771 91.2315 16.9119L92.3651 17.2301C92.2457 17.6146 92.0452 17.9527 91.7635 18.2443C91.4818 18.5327 91.1338 18.758 90.7195 18.9205C90.3052 19.0795 89.8395 19.1591 89.3224 19.1591ZM100.215 19L97.4311 8.81818H98.6839L100.812 17.1108H100.911L103.079 8.81818H104.471L106.638 17.1108H106.738L108.866 8.81818H110.119L107.335 19H106.062L103.815 10.8864H103.735L101.488 19H100.215ZM113.887 19.1591C113.198 19.1591 112.593 18.995 112.072 18.6669C111.555 18.3388 111.151 17.8797 110.859 17.2898C110.571 16.6998 110.427 16.0104 110.427 15.2216C110.427 14.4261 110.571 13.7318 110.859 13.1385C111.151 12.5452 111.555 12.0845 112.072 11.7564C112.593 11.4283 113.198 11.2642 113.887 11.2642C114.576 11.2642 115.18 11.4283 115.697 11.7564C116.217 12.0845 116.621 12.5452 116.91 13.1385C117.201 13.7318 117.347 14.4261 117.347 15.2216C117.347 16.0104 117.201 16.6998 116.91 17.2898C116.621 17.8797 116.217 18.3388 115.697 18.6669C115.18 18.995 114.576 19.1591 113.887 19.1591ZM113.887 18.1051C114.411 18.1051 114.842 17.9709 115.18 17.7024C115.518 17.4339 115.768 17.081 115.93 16.6435C116.093 16.206 116.174 15.732 116.174 15.2216C116.174 14.7112 116.093 14.2356 115.93 13.7947C115.768 13.3539 115.518 12.9976 115.18 12.7259C114.842 12.4541 114.411 12.3182 113.887 12.3182C113.363 12.3182 112.933 12.4541 112.594 12.7259C112.256 12.9976 112.006 13.3539 111.844 13.7947C111.681 14.2356 111.6 14.7112 111.6 15.2216C111.6 15.732 111.681 16.206 111.844 16.6435C112.006 17.081 112.256 17.4339 112.594 17.7024C112.933 17.9709 113.363 18.1051 113.887 18.1051ZM119.138 19V11.3636H120.272V12.517H120.351C120.491 12.1392 120.742 11.8326 121.107 11.5973C121.472 11.362 121.883 11.2443 122.34 11.2443C122.426 11.2443 122.534 11.246 122.663 11.2493C122.792 11.2526 122.89 11.2576 122.956 11.2642V12.4574C122.917 12.4474 122.826 12.4325 122.683 12.4126C122.544 12.3894 122.396 12.3778 122.241 12.3778C121.869 12.3778 121.538 12.4557 121.246 12.6115C120.958 12.764 120.729 12.9761 120.56 13.2479C120.394 13.5163 120.312 13.8229 120.312 14.1676V19H119.138ZM125.441 16.2159L125.421 14.7642H125.66L129.001 11.3636H130.452L126.893 14.9631H126.793L125.441 16.2159ZM124.347 19V8.81818H125.521V19H124.347ZM129.2 19L126.217 15.2216L127.052 14.4062L130.691 19H129.2ZM137.372 13.0739L136.318 13.3722C136.251 13.1965 136.154 13.0258 136.024 12.8601C135.898 12.6911 135.726 12.5518 135.507 12.4425C135.289 12.3331 135.008 12.2784 134.667 12.2784C134.2 12.2784 133.81 12.3861 133.499 12.6016C133.191 12.8137 133.036 13.0838 133.036 13.4119C133.036 13.7036 133.142 13.9339 133.355 14.103C133.567 14.272 133.898 14.4129 134.349 14.5256L135.482 14.804C136.165 14.9697 136.674 15.2232 137.009 15.5646C137.343 15.9027 137.511 16.3385 137.511 16.8722C137.511 17.3097 137.385 17.7008 137.133 18.0455C136.884 18.3902 136.536 18.6619 136.089 18.8608C135.642 19.0597 135.121 19.1591 134.528 19.1591C133.749 19.1591 133.104 18.9901 132.594 18.652C132.084 18.3139 131.76 17.8201 131.624 17.1705L132.738 16.892C132.844 17.303 133.045 17.6113 133.34 17.8168C133.638 18.0223 134.027 18.125 134.508 18.125C135.055 18.125 135.489 18.009 135.811 17.777C136.135 17.5417 136.298 17.2599 136.298 16.9318C136.298 16.6667 136.205 16.4446 136.019 16.2656C135.834 16.0833 135.549 15.9474 135.164 15.858L133.892 15.5597C133.192 15.3939 132.678 15.1371 132.35 14.7891C132.026 14.4377 131.863 13.9986 131.863 13.4716C131.863 13.0407 131.984 12.6596 132.226 12.3281C132.471 11.9967 132.804 11.7365 133.225 11.5476C133.65 11.3587 134.13 11.2642 134.667 11.2642C135.423 11.2642 136.016 11.4299 136.447 11.7614C136.881 12.0928 137.189 12.5303 137.372 13.0739ZM140.45 14.4062V19H139.277V8.81818H140.45V12.5568H140.55C140.729 12.1624 140.997 11.8492 141.355 11.6172C141.716 11.3819 142.197 11.2642 142.797 11.2642C143.317 11.2642 143.773 11.3686 144.164 11.5774C144.555 11.7829 144.858 12.0994 145.074 12.527C145.293 12.9512 145.402 13.4915 145.402 14.1477V19H144.229V14.2273C144.229 13.6207 144.071 13.1518 143.756 12.8203C143.445 12.4856 143.012 12.3182 142.459 12.3182C142.074 12.3182 141.73 12.3994 141.425 12.5618C141.123 12.7242 140.884 12.9612 140.709 13.2727C140.536 13.5843 140.45 13.9621 140.45 14.4062ZM150.651 19.1591C149.961 19.1591 149.356 18.995 148.836 18.6669C148.319 18.3388 147.915 17.8797 147.623 17.2898C147.335 16.6998 147.191 16.0104 147.191 15.2216C147.191 14.4261 147.335 13.7318 147.623 13.1385C147.915 12.5452 148.319 12.0845 148.836 11.7564C149.356 11.4283 149.961 11.2642 150.651 11.2642C151.34 11.2642 151.943 11.4283 152.46 11.7564C152.981 12.0845 153.385 12.5452 153.673 13.1385C153.965 13.7318 154.111 14.4261 154.111 15.2216C154.111 16.0104 153.965 16.6998 153.673 17.2898C153.385 17.8797 152.981 18.3388 152.46 18.6669C151.943 18.995 151.34 19.1591 150.651 19.1591ZM150.651 18.1051C151.174 18.1051 151.605 17.9709 151.943 17.7024C152.281 17.4339 152.532 17.081 152.694 16.6435C152.856 16.206 152.938 15.732 152.938 15.2216C152.938 14.7112 152.856 14.2356 152.694 13.7947C152.532 13.3539 152.281 12.9976 151.943 12.7259C151.605 12.4541 151.174 12.3182 150.651 12.3182C150.127 12.3182 149.696 12.4541 149.358 12.7259C149.02 12.9976 148.77 13.3539 148.607 13.7947C148.445 14.2356 148.364 14.7112 148.364 15.2216C148.364 15.732 148.445 16.206 148.607 16.6435C148.77 17.081 149.02 17.4339 149.358 17.7024C149.696 17.9709 150.127 18.1051 150.651 18.1051ZM155.902 21.8636V11.3636H157.036V12.5767H157.175C157.261 12.4441 157.38 12.2751 157.533 12.0696C157.688 11.8608 157.911 11.6752 158.199 11.5128C158.491 11.3471 158.885 11.2642 159.382 11.2642C160.025 11.2642 160.592 11.425 161.082 11.7464C161.573 12.0679 161.956 12.5237 162.231 13.1136C162.506 13.7036 162.643 14.3996 162.643 15.2017C162.643 16.0104 162.506 16.7114 162.231 17.3047C161.956 17.8946 161.575 18.352 161.087 18.6768C160.6 18.9983 160.038 19.1591 159.402 19.1591C158.911 19.1591 158.519 19.0779 158.224 18.9155C157.929 18.7498 157.702 18.5625 157.543 18.3537C157.384 18.1416 157.261 17.9659 157.175 17.8267H157.075V21.8636H155.902ZM157.055 15.1818C157.055 15.7585 157.14 16.2673 157.309 16.7081C157.478 17.1456 157.725 17.4886 158.05 17.7372C158.375 17.9825 158.772 18.1051 159.243 18.1051C159.733 18.1051 160.143 17.9759 160.471 17.7173C160.802 17.4555 161.051 17.1042 161.217 16.6634C161.386 16.2192 161.47 15.7254 161.47 15.1818C161.47 14.6449 161.387 14.161 161.222 13.7301C161.059 13.2959 160.812 12.9529 160.481 12.701C160.153 12.4458 159.74 12.3182 159.243 12.3182C158.766 12.3182 158.365 12.4392 158.04 12.6811C157.715 12.9197 157.47 13.2545 157.304 13.6854C157.138 14.1129 157.055 14.6117 157.055 15.1818ZM169.842 13.0739L168.788 13.3722C168.722 13.1965 168.624 13.0258 168.495 12.8601C168.369 12.6911 168.197 12.5518 167.978 12.4425C167.759 12.3331 167.479 12.2784 167.138 12.2784C166.67 12.2784 166.281 12.3861 165.969 12.6016C165.661 12.8137 165.507 13.0838 165.507 13.4119C165.507 13.7036 165.613 13.9339 165.825 14.103C166.037 14.272 166.369 14.4129 166.82 14.5256L167.953 14.804C168.636 14.9697 169.145 15.2232 169.479 15.5646C169.814 15.9027 169.982 16.3385 169.982 16.8722C169.982 17.3097 169.856 17.7008 169.604 18.0455C169.355 18.3902 169.007 18.6619 168.56 18.8608C168.112 19.0597 167.592 19.1591 166.999 19.1591C166.22 19.1591 165.575 18.9901 165.065 18.652C164.554 18.3139 164.231 17.8201 164.095 17.1705L165.209 16.892C165.315 17.303 165.515 17.6113 165.81 17.8168C166.109 18.0223 166.498 18.125 166.979 18.125C167.526 18.125 167.96 18.009 168.281 17.777C168.606 17.5417 168.768 17.2599 168.768 16.9318C168.768 16.6667 168.676 16.4446 168.49 16.2656C168.304 16.0833 168.019 15.9474 167.635 15.858L166.362 15.5597C165.663 15.3939 165.149 15.1371 164.821 14.7891C164.496 14.4377 164.334 13.9986 164.334 13.4716C164.334 13.0407 164.455 12.6596 164.697 12.3281C164.942 11.9967 165.275 11.7365 165.696 11.5476C166.12 11.3587 166.601 11.2642 167.138 11.2642C167.893 11.2642 168.487 11.4299 168.918 11.7614C169.352 12.0928 169.66 12.5303 169.842 13.0739Z" fill="#F5F5F5"/>
</svg>
